<svg width="18" height="17" viewBox="0 0 18 17" fill="none" xmlns="http://www.w3.org/2000/svg">
<g clip-path="url(#clip0_8342_24753)">
<path d="M12.7358 8.20266C12.7075 7.62655 12.5989 7.07877 12.41 6.55933C12.2211 6.03988 11.9614 5.55822 11.6308 5.11433C11.4419 5.31266 11.2247 5.52044 10.9792 5.73766C10.2992 6.30433 9.51528 6.77655 8.6275 7.15433C8.75028 7.40933 8.85889 7.64544 8.95333 7.86266L9.02417 8.061C10.0347 7.94766 11.135 7.97127 12.325 8.13183L12.7358 8.20266ZM6.09167 2.9185C6.22389 3.09794 6.36083 3.29627 6.5025 3.5135C6.96528 4.18405 7.38556 4.85461 7.76333 5.52516L8.00417 5.95016C8.83528 5.61961 9.55306 5.19933 10.1575 4.68933C10.3747 4.50988 10.5636 4.33044 10.7242 4.151C10.2236 3.73544 9.66639 3.41433 9.0525 3.18766C8.41972 2.95155 7.76333 2.8335 7.08333 2.8335C6.75278 2.8335 6.42222 2.86183 6.09167 2.9185ZM1.60083 7.0835C2.04472 7.07405 2.52639 7.04572 3.04583 6.9985C4.24528 6.88516 5.39278 6.69155 6.48833 6.41766C6.09167 5.71877 5.6525 5.01044 5.17083 4.29266C4.96306 3.981 4.76472 3.68822 4.57583 3.41433C3.83917 3.78266 3.20875 4.28558 2.68458 4.92308C2.16042 5.56058 1.79917 6.28072 1.60083 7.0835ZM2.6775 12.0702C2.98917 11.6168 3.36222 11.1682 3.79667 10.7243C4.89222 9.60044 6.11056 8.82127 7.45167 8.38683L7.49417 8.37266C7.37139 8.11766 7.25806 7.88627 7.15417 7.6785C5.9075 8.03738 4.56167 8.28294 3.11667 8.41516C2.50278 8.47183 1.93611 8.50016 1.41667 8.50016C1.41667 9.17072 1.53 9.81294 1.75667 10.4268C1.97389 11.0218 2.28083 11.5696 2.6775 12.0702ZM9.20833 13.756C9.13278 13.3404 9.03361 12.906 8.91083 12.4527C8.67472 11.5082 8.39139 10.5921 8.06083 9.70433C6.70083 10.1954 5.55806 10.9179 4.6325 11.8718C4.24528 12.2685 3.93361 12.6604 3.6975 13.0477C4.17917 13.4066 4.70806 13.6828 5.28417 13.8764C5.86028 14.07 6.46 14.1668 7.08333 14.1668C7.82 14.1668 8.52833 14.0299 9.20833 13.756ZM10.54 12.991C11.0878 12.566 11.5458 12.0584 11.9142 11.4681C12.2825 10.8778 12.5281 10.2379 12.6508 9.5485C12.3769 9.47294 12.0842 9.41627 11.7725 9.3785C10.9886 9.26516 10.2378 9.25572 9.52 9.35016C9.83167 10.2191 10.0961 11.1021 10.3133 11.9993C10.3983 12.3488 10.4739 12.6793 10.54 12.991ZM7.08333 15.5835C6.12 15.5835 5.19917 15.3993 4.32083 15.031C3.48028 14.6721 2.73181 14.1645 2.07542 13.5081C1.41903 12.8517 0.911389 12.1032 0.5525 11.2627C0.184167 10.3843 0 9.4635 0 8.50016C0 7.53683 0.184167 6.616 0.5525 5.73766C0.911389 4.89711 1.41903 4.14863 2.07542 3.49225C2.73181 2.83586 3.48028 2.32822 4.32083 1.96933C5.19917 1.601 6.12 1.41683 7.08333 1.41683C8.04667 1.41683 8.9675 1.601 9.84583 1.96933C10.6864 2.32822 11.4349 2.83586 12.0913 3.49225C12.7476 4.14863 13.2553 4.89711 13.6142 5.73766C13.9825 6.616 14.1667 7.53683 14.1667 8.50016C14.1667 9.4635 13.9825 10.3843 13.6142 11.2627C13.2553 12.1032 12.7476 12.8517 12.0913 13.5081C11.4349 14.1645 10.6864 14.6721 9.84583 15.031C8.9675 15.3993 8.04667 15.5835 7.08333 15.5835Z" fill="black"/>
</g>
<defs>
<clipPath id="clip0_8342_24753">
<rect width="17.48" height="17" fill="white" transform="matrix(1 0 0 -1 0 17)"/>
</clipPath>
</defs>
</svg>
