<svg width="321" height="107" viewBox="0 0 321 107" fill="none" xmlns="http://www.w3.org/2000/svg">
<rect width="321" height="107" rx="10" fill="#F4F6FA"/>
<g clip-path="url(#clip0_8336_969)">
<g clip-path="url(#clip1_8336_969)">
<mask id="mask0_8336_969" style="mask-type:luminance" maskUnits="userSpaceOnUse" x="20" y="20" width="60" height="60">
<path d="M79.305 20H20V79.305H79.305V20Z" fill="white"/>
</mask>
<g mask="url(#mask0_8336_969)">
<path d="M57.7146 24.2859H49.1431L38.8574 34.5716L44.0003 37.5716L49.1431 32.4287L59.8574 43.143L63.7146 47.8573L69.286 48.7145L71.8574 44.0002V27.7145L67.5717 24.2859H57.7146Z" fill="#FDC040"/>
<path d="M75.3668 32.3328H73.048L73.0502 28.1873C73.0516 25.4042 70.7888 23.1388 68.0052 23.1374L50.4063 23.1274H50.4041C49.4023 23.1274 48.4603 23.5175 47.7517 24.226L21.4782 50.4995C20.5249 51.4529 20 52.7202 20 54.0686C20 55.4169 20.5249 56.6842 21.4782 57.6376L38.5288 74.6882C39.5129 75.6723 40.8055 76.1641 42.0977 76.1641C43.3905 76.1641 44.6831 75.6723 45.6672 74.6882L62.2092 58.1462C62.6617 57.6937 62.6617 56.9602 62.2092 56.5083C61.7567 56.0558 61.0233 56.0558 60.5709 56.5083L44.0289 73.0503C42.9642 74.1149 41.2318 74.1149 40.1671 73.0503L23.1166 55.9997C22.6008 55.4839 22.3166 54.7979 22.3166 54.0686C22.3166 53.3392 22.6008 52.6533 23.1166 52.1374L49.3896 25.8644C49.6607 25.5934 50.0208 25.444 50.4041 25.444H50.405L68.0039 25.454C69.5097 25.4544 70.7345 26.6806 70.7336 28.1864L70.7282 37.8927H65.5109C65.0615 37.8927 64.6547 37.7089 64.3607 37.413C64.8453 37.2053 65.2996 36.9053 65.6945 36.5103C67.3591 34.8453 67.3591 32.1369 65.6945 30.4723C64.0295 28.8072 61.3211 28.8072 59.656 30.4723C57.9914 32.1369 57.9914 34.8453 59.656 36.5103C60.2731 37.1275 61.0342 37.5153 61.8319 37.675C62.3988 39.155 63.8336 40.2093 65.5109 40.2093H70.7268L70.7237 45.7618C70.7237 46.1451 70.5743 46.5048 70.3033 46.7753L67.1234 49.9557C66.6709 50.4081 66.6709 51.1416 67.1234 51.5941C67.5755 52.0461 68.3088 52.0461 68.7613 51.5941L71.9417 48.4137C72.6493 47.7056 73.0398 46.7645 73.0403 45.7632L73.0434 40.2093H75.3668C77.5382 40.2093 79.305 38.4429 79.305 36.271C79.305 34.0996 77.5382 32.3328 75.3668 32.3328ZM61.2943 32.1102C61.6753 31.7292 62.1753 31.5392 62.6757 31.5392C63.1757 31.5392 63.6756 31.7296 64.0566 32.1102C64.177 32.231 64.2765 32.3644 64.3589 32.5052C63.0875 32.8947 62.0885 33.9123 61.7233 35.1946C61.5699 35.1091 61.4247 35.0027 61.2943 34.8724C60.5328 34.1105 60.5328 32.8717 61.2943 32.1102ZM75.3668 37.8927H73.0448L73.0466 34.6494H75.3668C76.2609 34.6494 76.9884 35.3769 76.9884 36.271C76.9884 37.165 76.2609 37.8927 75.3668 37.8927Z" fill="#3BB77E"/>
<path d="M38.697 52.3519C38.8395 52.8644 39.3051 53.1998 39.8118 53.1998C39.915 53.1998 40.0195 53.1862 40.1232 53.1572L52.0139 49.8475C52.6301 49.676 52.9907 49.0371 52.8192 48.4208C52.6477 47.8051 52.0093 47.4445 51.3926 47.6159L39.5019 50.9252C38.8861 51.0972 38.5255 51.7356 38.697 52.3519Z" fill="#3BB77E"/>
<path d="M43.9301 53.8803C43.2848 54.5255 42.9297 55.3829 42.9297 56.2955C42.9297 57.2077 43.2848 58.0651 43.9301 58.7104C44.5961 59.3759 45.4703 59.7089 46.3448 59.7089C47.2194 59.7089 48.0941 59.3759 48.7601 58.7104C50.0916 57.3787 50.0916 55.2118 48.7601 53.8803C47.4285 52.5487 45.2616 52.5487 43.9301 53.8803ZM47.1217 57.0719C46.6932 57.5004 45.9965 57.5004 45.568 57.0719C45.3603 56.8648 45.2463 56.5888 45.2463 56.2951C45.2463 56.0019 45.3607 55.7259 45.568 55.5182C45.7824 55.3042 46.0638 55.1969 46.3448 55.1969C46.6263 55.1969 46.9077 55.3042 47.1217 55.5182C47.5502 55.9467 47.5502 56.644 47.1217 57.0719Z" fill="#3BB77E"/>
<path d="M49.3345 46.9839C50.6661 45.6519 50.6661 43.4855 49.3345 42.1539C48.6894 41.5088 47.8315 41.1536 46.9193 41.1536C46.0071 41.1536 45.1493 41.5088 44.5045 42.1539C43.173 43.4855 43.173 45.6519 44.5045 46.9839C45.1705 47.6495 46.0447 47.9825 46.9193 47.9825C47.7939 47.9825 48.6685 47.6495 49.3345 46.9839ZM46.1425 43.7918C46.3501 43.5842 46.6261 43.4702 46.9193 43.4702C47.2129 43.4702 47.4889 43.5842 47.6962 43.7918C48.1247 44.2203 48.1247 44.9171 47.6962 45.3456C47.2681 45.7741 46.5709 45.7741 46.1425 45.3456C45.7144 44.9171 45.7144 44.2203 46.1425 43.7918Z" fill="#3BB77E"/>
<path d="M31.5208 49.9585C31.0684 49.506 30.335 49.506 29.8825 49.9585L26.5913 53.2497C26.3741 53.4669 26.252 53.7614 26.252 54.0686C26.252 54.3759 26.3741 54.6704 26.5913 54.8876L41.2796 69.5758C41.5054 69.8016 41.8022 69.9148 42.0985 69.9148C42.3949 69.9148 42.6912 69.8016 42.9175 69.5758L64.8781 47.6147C65.3306 47.1622 65.3306 46.4288 64.8781 45.9764L50.1904 31.2886C49.9732 31.0714 49.6786 30.9492 49.3714 30.9492C49.0642 30.9492 48.7696 31.0714 48.5524 31.2886L36.435 43.4059C35.9826 43.8584 35.9826 44.5918 36.435 45.0442C36.8871 45.4963 37.6205 45.4963 38.0729 45.0442L49.3714 33.7459L62.4213 46.7957L42.0985 67.1185L29.0486 54.0686L31.5208 51.5964C31.9729 51.1439 31.9733 50.4109 31.5208 49.9585Z" fill="#3BB77E"/>
<path d="M64.6662 52.8926C64.3612 52.8926 64.0626 53.0165 63.8472 53.2319C63.6318 53.4473 63.5078 53.7464 63.5078 54.0508C63.5078 54.3554 63.6318 54.6544 63.8472 54.8698C64.0626 55.0852 64.3612 55.2092 64.6662 55.2092C64.9706 55.2092 65.2692 55.0852 65.4851 54.8698C65.7005 54.6544 65.8244 54.3554 65.8244 54.0508C65.8244 53.7464 65.7005 53.4473 65.4851 53.2319C65.2692 53.0165 64.9706 52.8926 64.6662 52.8926Z" fill="#3BB77E"/>
<path d="M34.7951 48.3195C35.0119 48.1042 35.135 47.8065 35.135 47.5006C35.135 47.1961 35.0119 46.8984 34.7951 46.6816C34.5798 46.4663 34.282 46.3423 33.9766 46.3423C33.6716 46.3423 33.373 46.4663 33.1577 46.6816C32.9419 46.897 32.8184 47.1961 32.8184 47.5006C32.8184 47.8065 32.9419 48.1042 33.1577 48.3195C33.374 48.5363 33.6716 48.6589 33.9766 48.6589C34.282 48.6589 34.5798 48.5363 34.7951 48.3195Z" fill="#3BB77E"/>
</g>
</g>
</g>
<path d="M106.984 32.61C108.088 32.61 108.922 32.88 109.486 33.42C110.062 33.96 110.35 34.746 110.35 35.778C110.35 36.318 110.218 36.81 109.954 37.254C109.702 37.686 109.324 38.028 108.82 38.28C108.328 38.532 107.71 38.664 106.966 38.676L107.002 38.01C107.398 38.01 107.824 38.064 108.28 38.172C108.748 38.28 109.186 38.466 109.594 38.73C110.002 38.994 110.338 39.354 110.602 39.81C110.866 40.254 110.998 40.812 110.998 41.484C110.998 42.216 110.878 42.828 110.638 43.32C110.398 43.8 110.08 44.178 109.684 44.454C109.288 44.73 108.85 44.928 108.37 45.048C107.902 45.156 107.44 45.21 106.984 45.21H102.376C102.124 45.21 101.908 45.126 101.728 44.958C101.548 44.778 101.458 44.556 101.458 44.292V33.528C101.458 33.264 101.548 33.048 101.728 32.88C101.908 32.7 102.124 32.61 102.376 32.61H106.984ZM106.732 34.374H103.186L103.402 34.086V37.956L103.204 37.758H106.768C107.2 37.746 107.578 37.602 107.902 37.326C108.238 37.038 108.406 36.618 108.406 36.066C108.406 35.502 108.256 35.082 107.956 34.806C107.656 34.518 107.248 34.374 106.732 34.374ZM106.858 39.522H103.276L103.402 39.396V43.644L103.258 43.482H106.966C107.59 43.482 108.094 43.32 108.478 42.996C108.862 42.66 109.054 42.156 109.054 41.484C109.054 40.92 108.94 40.5 108.712 40.224C108.484 39.948 108.202 39.762 107.866 39.666C107.53 39.57 107.194 39.522 106.858 39.522ZM117.43 45.39C116.434 45.39 115.57 45.186 114.838 44.778C114.106 44.358 113.536 43.788 113.128 43.068C112.732 42.336 112.534 41.502 112.534 40.566C112.534 39.51 112.744 38.61 113.164 37.866C113.596 37.11 114.154 36.534 114.838 36.138C115.522 35.73 116.248 35.526 117.016 35.526C117.604 35.526 118.162 35.646 118.69 35.886C119.218 36.114 119.686 36.438 120.094 36.858C120.514 37.266 120.844 37.752 121.084 38.316C121.324 38.868 121.45 39.474 121.462 40.134C121.45 40.374 121.354 40.572 121.174 40.728C120.994 40.884 120.784 40.962 120.544 40.962H113.542L113.11 39.432H119.878L119.536 39.756V39.306C119.512 38.886 119.374 38.52 119.122 38.208C118.87 37.884 118.558 37.638 118.186 37.47C117.814 37.29 117.424 37.2 117.016 37.2C116.656 37.2 116.308 37.26 115.972 37.38C115.648 37.488 115.354 37.668 115.09 37.92C114.838 38.172 114.634 38.508 114.478 38.928C114.334 39.336 114.262 39.846 114.262 40.458C114.262 41.118 114.4 41.694 114.676 42.186C114.952 42.678 115.324 43.062 115.792 43.338C116.26 43.602 116.776 43.734 117.34 43.734C117.784 43.734 118.15 43.692 118.438 43.608C118.726 43.512 118.966 43.398 119.158 43.266C119.35 43.134 119.518 43.008 119.662 42.888C119.842 42.78 120.022 42.726 120.202 42.726C120.418 42.726 120.598 42.804 120.742 42.96C120.886 43.104 120.958 43.278 120.958 43.482C120.958 43.746 120.826 43.986 120.562 44.202C120.238 44.514 119.788 44.79 119.212 45.03C118.648 45.27 118.054 45.39 117.43 45.39ZM122.938 43.734C122.83 43.566 122.782 43.374 122.794 43.158C122.806 42.93 122.932 42.738 123.172 42.582C123.34 42.474 123.514 42.432 123.694 42.456C123.886 42.468 124.066 42.558 124.234 42.726C124.57 43.098 124.942 43.392 125.35 43.608C125.77 43.824 126.274 43.932 126.862 43.932C127.102 43.92 127.348 43.884 127.6 43.824C127.852 43.752 128.068 43.632 128.248 43.464C128.428 43.284 128.518 43.026 128.518 42.69C128.518 42.39 128.422 42.15 128.23 41.97C128.038 41.79 127.786 41.646 127.474 41.538C127.162 41.418 126.826 41.31 126.466 41.214C126.082 41.106 125.692 40.986 125.296 40.854C124.912 40.722 124.564 40.554 124.252 40.35C123.94 40.134 123.682 39.858 123.478 39.522C123.286 39.186 123.19 38.772 123.19 38.28C123.19 37.716 123.346 37.23 123.658 36.822C123.982 36.414 124.396 36.096 124.9 35.868C125.416 35.64 125.974 35.526 126.574 35.526C126.922 35.526 127.288 35.574 127.672 35.67C128.056 35.754 128.428 35.892 128.788 36.084C129.148 36.276 129.46 36.528 129.724 36.84C129.844 36.996 129.91 37.182 129.922 37.398C129.946 37.614 129.85 37.806 129.634 37.974C129.49 38.094 129.316 38.148 129.112 38.136C128.908 38.124 128.74 38.058 128.608 37.938C128.38 37.65 128.086 37.428 127.726 37.272C127.366 37.104 126.958 37.02 126.502 37.02C126.274 37.02 126.034 37.056 125.782 37.128C125.542 37.188 125.338 37.302 125.17 37.47C125.002 37.638 124.918 37.884 124.918 38.208C124.918 38.508 125.014 38.748 125.206 38.928C125.41 39.108 125.674 39.258 125.998 39.378C126.322 39.498 126.676 39.606 127.06 39.702C127.432 39.798 127.798 39.912 128.158 40.044C128.53 40.176 128.86 40.35 129.148 40.566C129.448 40.77 129.688 41.04 129.868 41.376C130.06 41.7 130.156 42.114 130.156 42.618C130.156 43.206 129.982 43.71 129.634 44.13C129.298 44.538 128.866 44.85 128.338 45.066C127.822 45.282 127.276 45.39 126.7 45.39C126.016 45.39 125.332 45.27 124.648 45.03C123.976 44.778 123.406 44.346 122.938 43.734ZM131.966 35.85H136.196C136.436 35.85 136.634 35.934 136.79 36.102C136.958 36.258 137.042 36.456 137.042 36.696C137.042 36.924 136.958 37.116 136.79 37.272C136.634 37.428 136.436 37.506 136.196 37.506H131.966C131.726 37.506 131.522 37.428 131.354 37.272C131.198 37.104 131.12 36.906 131.12 36.678C131.12 36.438 131.198 36.24 131.354 36.084C131.522 35.928 131.726 35.85 131.966 35.85ZM133.856 33.51C134.12 33.51 134.336 33.6 134.504 33.78C134.672 33.948 134.756 34.164 134.756 34.428V42.78C134.756 42.996 134.792 43.17 134.864 43.302C134.936 43.434 135.032 43.524 135.152 43.572C135.284 43.62 135.416 43.644 135.548 43.644C135.68 43.644 135.794 43.62 135.89 43.572C135.998 43.524 136.124 43.5 136.268 43.5C136.412 43.5 136.544 43.566 136.664 43.698C136.784 43.83 136.844 44.01 136.844 44.238C136.844 44.526 136.688 44.76 136.376 44.94C136.064 45.12 135.728 45.21 135.368 45.21C135.164 45.21 134.924 45.192 134.648 45.156C134.372 45.12 134.102 45.03 133.838 44.886C133.586 44.742 133.376 44.514 133.208 44.202C133.04 43.878 132.956 43.428 132.956 42.852V34.428C132.956 34.164 133.04 33.948 133.208 33.78C133.388 33.6 133.604 33.51 133.856 33.51ZM148.815 35.58C149.655 35.58 150.399 35.79 151.047 36.21C151.707 36.63 152.229 37.206 152.613 37.938C152.997 38.658 153.189 39.498 153.189 40.458C153.189 41.418 152.997 42.27 152.613 43.014C152.229 43.746 151.713 44.322 151.065 44.742C150.417 45.162 149.685 45.372 148.869 45.372C148.413 45.372 147.981 45.3 147.573 45.156C147.165 45.012 146.805 44.826 146.493 44.598C146.181 44.358 145.923 44.106 145.719 43.842C145.527 43.578 145.407 43.332 145.359 43.104L145.845 42.87V47.892C145.845 48.156 145.755 48.372 145.575 48.54C145.407 48.72 145.197 48.81 144.945 48.81C144.681 48.81 144.465 48.72 144.297 48.54C144.129 48.372 144.045 48.156 144.045 47.892V36.624C144.045 36.372 144.129 36.156 144.297 35.976C144.465 35.796 144.681 35.706 144.945 35.706C145.197 35.706 145.407 35.796 145.575 35.976C145.755 36.156 145.845 36.372 145.845 36.624V37.866L145.557 37.704C145.593 37.476 145.707 37.242 145.899 37.002C146.091 36.75 146.331 36.516 146.619 36.3C146.919 36.084 147.255 35.91 147.627 35.778C148.011 35.646 148.407 35.58 148.815 35.58ZM148.617 37.236C148.041 37.236 147.537 37.38 147.105 37.668C146.685 37.944 146.355 38.322 146.115 38.802C145.875 39.282 145.755 39.834 145.755 40.458C145.755 41.07 145.875 41.628 146.115 42.132C146.355 42.624 146.685 43.014 147.105 43.302C147.537 43.578 148.041 43.716 148.617 43.716C149.181 43.716 149.673 43.578 150.093 43.302C150.513 43.014 150.843 42.624 151.083 42.132C151.335 41.628 151.461 41.07 151.461 40.458C151.461 39.846 151.335 39.3 151.083 38.82C150.843 38.328 150.513 37.944 150.093 37.668C149.673 37.38 149.181 37.236 148.617 37.236ZM156.125 45.21C155.861 45.21 155.645 45.126 155.477 44.958C155.309 44.778 155.225 44.556 155.225 44.292V36.66C155.225 36.396 155.309 36.18 155.477 36.012C155.645 35.832 155.861 35.742 156.125 35.742C156.377 35.742 156.587 35.832 156.755 36.012C156.935 36.18 157.025 36.396 157.025 36.66V38.676L156.845 37.902C156.941 37.566 157.085 37.254 157.277 36.966C157.481 36.678 157.721 36.426 157.997 36.21C158.273 35.994 158.579 35.826 158.915 35.706C159.263 35.586 159.623 35.526 159.995 35.526C160.307 35.526 160.577 35.61 160.805 35.778C161.033 35.946 161.147 36.156 161.147 36.408C161.147 36.732 161.063 36.972 160.895 37.128C160.727 37.272 160.541 37.344 160.337 37.344C160.157 37.344 159.983 37.308 159.815 37.236C159.647 37.152 159.449 37.11 159.221 37.11C158.969 37.11 158.711 37.176 158.447 37.308C158.183 37.44 157.943 37.638 157.727 37.902C157.511 38.154 157.337 38.454 157.205 38.802C157.085 39.15 157.025 39.54 157.025 39.972V44.292C157.025 44.556 156.935 44.778 156.755 44.958C156.587 45.126 156.377 45.21 156.125 45.21ZM164.44 44.292C164.44 44.556 164.356 44.778 164.188 44.958C164.02 45.126 163.804 45.21 163.54 45.21C163.288 45.21 163.072 45.126 162.892 44.958C162.724 44.778 162.64 44.556 162.64 44.292V36.588C162.64 36.324 162.724 36.108 162.892 35.94C163.072 35.76 163.288 35.67 163.54 35.67C163.804 35.67 164.02 35.76 164.188 35.94C164.356 36.108 164.44 36.324 164.44 36.588V44.292ZM163.522 34.482C163.174 34.482 162.922 34.422 162.766 34.302C162.61 34.17 162.532 33.954 162.532 33.654V33.366C162.532 33.066 162.616 32.856 162.784 32.736C162.952 32.616 163.204 32.556 163.54 32.556C163.9 32.556 164.158 32.622 164.314 32.754C164.47 32.874 164.548 33.078 164.548 33.366V33.654C164.548 33.966 164.464 34.182 164.296 34.302C164.14 34.422 163.882 34.482 163.522 34.482ZM171.056 35.526C171.704 35.526 172.28 35.598 172.784 35.742C173.288 35.874 173.678 36.066 173.954 36.318C174.242 36.558 174.386 36.84 174.386 37.164C174.386 37.368 174.326 37.56 174.206 37.74C174.086 37.908 173.906 37.992 173.666 37.992C173.498 37.992 173.354 37.962 173.234 37.902C173.126 37.842 173.024 37.77 172.928 37.686C172.832 37.602 172.712 37.518 172.568 37.434C172.436 37.362 172.238 37.302 171.974 37.254C171.722 37.206 171.494 37.182 171.29 37.182C170.654 37.182 170.102 37.326 169.634 37.614C169.178 37.902 168.818 38.292 168.554 38.784C168.302 39.276 168.176 39.834 168.176 40.458C168.176 41.082 168.302 41.64 168.554 42.132C168.818 42.624 169.172 43.014 169.616 43.302C170.072 43.59 170.6 43.734 171.2 43.734C171.56 43.734 171.854 43.71 172.082 43.662C172.31 43.602 172.508 43.53 172.676 43.446C172.856 43.338 173.006 43.23 173.126 43.122C173.258 43.002 173.438 42.942 173.666 42.942C173.93 42.942 174.128 43.026 174.26 43.194C174.404 43.35 174.476 43.548 174.476 43.788C174.476 44.052 174.314 44.31 173.99 44.562C173.678 44.802 173.258 45 172.73 45.156C172.202 45.312 171.62 45.39 170.984 45.39C170.048 45.39 169.232 45.174 168.536 44.742C167.852 44.31 167.318 43.722 166.934 42.978C166.562 42.234 166.376 41.394 166.376 40.458C166.376 39.51 166.574 38.67 166.97 37.938C167.366 37.194 167.918 36.606 168.626 36.174C169.334 35.742 170.144 35.526 171.056 35.526ZM180.606 45.39C179.61 45.39 178.746 45.186 178.014 44.778C177.282 44.358 176.712 43.788 176.304 43.068C175.908 42.336 175.71 41.502 175.71 40.566C175.71 39.51 175.92 38.61 176.34 37.866C176.772 37.11 177.33 36.534 178.014 36.138C178.698 35.73 179.424 35.526 180.192 35.526C180.78 35.526 181.338 35.646 181.866 35.886C182.394 36.114 182.862 36.438 183.27 36.858C183.69 37.266 184.02 37.752 184.26 38.316C184.5 38.868 184.626 39.474 184.638 40.134C184.626 40.374 184.53 40.572 184.35 40.728C184.17 40.884 183.96 40.962 183.72 40.962H176.718L176.286 39.432H183.054L182.712 39.756V39.306C182.688 38.886 182.55 38.52 182.298 38.208C182.046 37.884 181.734 37.638 181.362 37.47C180.99 37.29 180.6 37.2 180.192 37.2C179.832 37.2 179.484 37.26 179.148 37.38C178.824 37.488 178.53 37.668 178.266 37.92C178.014 38.172 177.81 38.508 177.654 38.928C177.51 39.336 177.438 39.846 177.438 40.458C177.438 41.118 177.576 41.694 177.852 42.186C178.128 42.678 178.5 43.062 178.968 43.338C179.436 43.602 179.952 43.734 180.516 43.734C180.96 43.734 181.326 43.692 181.614 43.608C181.902 43.512 182.142 43.398 182.334 43.266C182.526 43.134 182.694 43.008 182.838 42.888C183.018 42.78 183.198 42.726 183.378 42.726C183.594 42.726 183.774 42.804 183.918 42.96C184.062 43.104 184.134 43.278 184.134 43.482C184.134 43.746 184.002 43.986 183.738 44.202C183.414 44.514 182.964 44.79 182.388 45.03C181.824 45.27 181.23 45.39 180.606 45.39ZM186.114 43.734C186.006 43.566 185.958 43.374 185.97 43.158C185.982 42.93 186.108 42.738 186.348 42.582C186.516 42.474 186.69 42.432 186.87 42.456C187.062 42.468 187.242 42.558 187.41 42.726C187.746 43.098 188.118 43.392 188.526 43.608C188.946 43.824 189.45 43.932 190.038 43.932C190.278 43.92 190.524 43.884 190.776 43.824C191.028 43.752 191.244 43.632 191.424 43.464C191.604 43.284 191.694 43.026 191.694 42.69C191.694 42.39 191.598 42.15 191.406 41.97C191.214 41.79 190.962 41.646 190.65 41.538C190.338 41.418 190.002 41.31 189.642 41.214C189.258 41.106 188.868 40.986 188.472 40.854C188.088 40.722 187.74 40.554 187.428 40.35C187.116 40.134 186.858 39.858 186.654 39.522C186.462 39.186 186.366 38.772 186.366 38.28C186.366 37.716 186.522 37.23 186.834 36.822C187.158 36.414 187.572 36.096 188.076 35.868C188.592 35.64 189.15 35.526 189.75 35.526C190.098 35.526 190.464 35.574 190.848 35.67C191.232 35.754 191.604 35.892 191.964 36.084C192.324 36.276 192.636 36.528 192.9 36.84C193.02 36.996 193.086 37.182 193.098 37.398C193.122 37.614 193.026 37.806 192.81 37.974C192.666 38.094 192.492 38.148 192.288 38.136C192.084 38.124 191.916 38.058 191.784 37.938C191.556 37.65 191.262 37.428 190.902 37.272C190.542 37.104 190.134 37.02 189.678 37.02C189.45 37.02 189.21 37.056 188.958 37.128C188.718 37.188 188.514 37.302 188.346 37.47C188.178 37.638 188.094 37.884 188.094 38.208C188.094 38.508 188.19 38.748 188.382 38.928C188.586 39.108 188.85 39.258 189.174 39.378C189.498 39.498 189.852 39.606 190.236 39.702C190.608 39.798 190.974 39.912 191.334 40.044C191.706 40.176 192.036 40.35 192.324 40.566C192.624 40.77 192.864 41.04 193.044 41.376C193.236 41.7 193.332 42.114 193.332 42.618C193.332 43.206 193.158 43.71 192.81 44.13C192.474 44.538 192.042 44.85 191.514 45.066C190.998 45.282 190.452 45.39 189.876 45.39C189.192 45.39 188.508 45.27 187.824 45.03C187.152 44.778 186.582 44.346 186.114 43.734ZM204.004 45.39C203.152 45.39 202.39 45.204 201.718 44.832C201.046 44.448 200.518 43.95 200.134 43.338C199.75 42.726 199.558 42.078 199.558 41.394C199.558 40.818 199.66 40.284 199.864 39.792C200.08 39.288 200.398 38.844 200.818 38.46C201.25 38.076 201.796 37.758 202.456 37.506L203.644 38.73C202.78 38.922 202.186 39.228 201.862 39.648C201.55 40.068 201.394 40.56 201.394 41.124C201.394 41.544 201.496 41.952 201.7 42.348C201.904 42.732 202.222 43.05 202.654 43.302C203.098 43.554 203.674 43.68 204.382 43.68C205.018 43.68 205.576 43.554 206.056 43.302C206.548 43.038 206.968 42.696 207.316 42.276C207.664 41.844 207.946 41.37 208.162 40.854C208.378 40.326 208.528 39.786 208.612 39.234C208.636 39.066 208.702 38.94 208.81 38.856C208.918 38.76 209.098 38.712 209.35 38.712C209.614 38.712 209.818 38.814 209.962 39.018C210.118 39.222 210.178 39.468 210.142 39.756C210.034 40.452 209.83 41.136 209.53 41.808C209.23 42.468 208.828 43.074 208.324 43.626C207.82 44.166 207.208 44.598 206.488 44.922C205.768 45.234 204.94 45.39 204.004 45.39ZM210.394 45.21C210.286 45.21 210.184 45.198 210.088 45.174C210.004 45.138 209.938 45.102 209.89 45.066C209.062 44.382 208.294 43.74 207.586 43.14C206.89 42.54 206.23 41.946 205.606 41.358C204.994 40.758 204.388 40.122 203.788 39.45C203.368 38.97 202.984 38.526 202.636 38.118C202.3 37.71 202.024 37.308 201.808 36.912C201.604 36.516 201.502 36.096 201.502 35.652C201.502 35.076 201.652 34.548 201.952 34.068C202.264 33.576 202.696 33.18 203.248 32.88C203.812 32.58 204.478 32.43 205.246 32.43C206.086 32.43 206.818 32.58 207.442 32.88C208.078 33.168 208.51 33.534 208.738 33.978C208.75 33.99 208.774 34.056 208.81 34.176C208.858 34.284 208.882 34.416 208.882 34.572C208.882 34.752 208.81 34.914 208.666 35.058C208.522 35.202 208.33 35.274 208.09 35.274C207.934 35.274 207.808 35.244 207.712 35.184C207.616 35.124 207.544 35.064 207.496 35.004C207.232 34.644 206.92 34.38 206.56 34.212C206.212 34.044 205.774 33.96 205.246 33.96C204.646 33.96 204.184 34.116 203.86 34.428C203.548 34.74 203.392 35.124 203.392 35.58C203.392 35.952 203.512 36.33 203.752 36.714C204.004 37.098 204.292 37.47 204.616 37.83C204.952 38.178 205.258 38.502 205.534 38.802C205.942 39.246 206.386 39.708 206.866 40.188C207.358 40.656 207.844 41.106 208.324 41.538C208.816 41.97 209.272 42.366 209.692 42.726C210.112 43.086 210.466 43.392 210.754 43.644C210.886 43.764 210.982 43.884 211.042 44.004C211.114 44.124 211.15 44.268 211.15 44.436C211.15 44.568 211.09 44.73 210.97 44.922C210.85 45.114 210.658 45.21 210.394 45.21ZM226.945 40.476C226.945 41.436 226.735 42.288 226.315 43.032C225.895 43.764 225.325 44.34 224.605 44.76C223.885 45.18 223.075 45.39 222.175 45.39C221.275 45.39 220.465 45.18 219.745 44.76C219.025 44.34 218.449 43.764 218.017 43.032C217.597 42.288 217.387 41.436 217.387 40.476C217.387 39.504 217.597 38.652 218.017 37.92C218.449 37.176 219.025 36.594 219.745 36.174C220.465 35.742 221.275 35.526 222.175 35.526C223.075 35.526 223.885 35.742 224.605 36.174C225.325 36.594 225.895 37.176 226.315 37.92C226.735 38.652 226.945 39.504 226.945 40.476ZM225.145 40.476C225.145 39.816 225.013 39.246 224.749 38.766C224.485 38.274 224.125 37.89 223.669 37.614C223.225 37.326 222.727 37.182 222.175 37.182C221.623 37.182 221.119 37.326 220.663 37.614C220.207 37.89 219.847 38.274 219.583 38.766C219.319 39.246 219.187 39.816 219.187 40.476C219.187 41.112 219.319 41.676 219.583 42.168C219.847 42.66 220.207 43.044 220.663 43.32C221.119 43.596 221.623 43.734 222.175 43.734C222.727 43.734 223.225 43.596 223.669 43.32C224.125 43.044 224.485 42.66 224.749 42.168C225.013 41.676 225.145 41.112 225.145 40.476ZM233.393 31.908C233.621 31.908 233.855 31.938 234.095 31.998C234.335 32.058 234.533 32.16 234.689 32.304C234.857 32.436 234.941 32.622 234.941 32.862C234.941 33.102 234.869 33.3 234.725 33.456C234.581 33.6 234.413 33.672 234.221 33.672C234.101 33.672 233.939 33.648 233.735 33.6C233.531 33.54 233.327 33.51 233.123 33.51C232.847 33.51 232.625 33.576 232.457 33.708C232.289 33.828 232.169 33.984 232.097 34.176C232.025 34.356 231.989 34.536 231.989 34.716V44.292C231.989 44.556 231.899 44.778 231.719 44.958C231.551 45.126 231.341 45.21 231.089 45.21C230.825 45.21 230.609 45.126 230.441 44.958C230.273 44.778 230.189 44.556 230.189 44.292V34.734C230.189 33.906 230.459 33.228 230.999 32.7C231.551 32.172 232.349 31.908 233.393 31.908ZM233.753 35.904C233.993 35.904 234.191 35.982 234.347 36.138C234.503 36.294 234.581 36.492 234.581 36.732C234.581 36.972 234.503 37.17 234.347 37.326C234.191 37.482 233.993 37.56 233.753 37.56H229.091C228.863 37.56 228.665 37.482 228.497 37.326C228.341 37.17 228.263 36.972 228.263 36.732C228.263 36.492 228.341 36.294 228.497 36.138C228.665 35.982 228.863 35.904 229.091 35.904H233.753ZM240.791 31.908C241.019 31.908 241.253 31.938 241.493 31.998C241.733 32.058 241.931 32.16 242.087 32.304C242.255 32.436 242.339 32.622 242.339 32.862C242.339 33.102 242.267 33.3 242.123 33.456C241.979 33.6 241.811 33.672 241.619 33.672C241.499 33.672 241.337 33.648 241.133 33.6C240.929 33.54 240.725 33.51 240.521 33.51C240.245 33.51 240.023 33.576 239.855 33.708C239.687 33.828 239.567 33.984 239.495 34.176C239.423 34.356 239.387 34.536 239.387 34.716V44.292C239.387 44.556 239.297 44.778 239.117 44.958C238.949 45.126 238.739 45.21 238.487 45.21C238.223 45.21 238.007 45.126 237.839 44.958C237.671 44.778 237.587 44.556 237.587 44.292V34.734C237.587 33.906 237.857 33.228 238.397 32.7C238.949 32.172 239.747 31.908 240.791 31.908ZM241.151 35.904C241.391 35.904 241.589 35.982 241.745 36.138C241.901 36.294 241.979 36.492 241.979 36.732C241.979 36.972 241.901 37.17 241.745 37.326C241.589 37.482 241.391 37.56 241.151 37.56H236.489C236.261 37.56 236.063 37.482 235.895 37.326C235.739 37.17 235.661 36.972 235.661 36.732C235.661 36.492 235.739 36.294 235.895 36.138C236.063 35.982 236.261 35.904 236.489 35.904H241.151ZM248.211 45.39C247.215 45.39 246.351 45.186 245.619 44.778C244.887 44.358 244.317 43.788 243.909 43.068C243.513 42.336 243.315 41.502 243.315 40.566C243.315 39.51 243.525 38.61 243.945 37.866C244.377 37.11 244.935 36.534 245.619 36.138C246.303 35.73 247.029 35.526 247.797 35.526C248.385 35.526 248.943 35.646 249.471 35.886C249.999 36.114 250.467 36.438 250.875 36.858C251.295 37.266 251.625 37.752 251.865 38.316C252.105 38.868 252.231 39.474 252.243 40.134C252.231 40.374 252.135 40.572 251.955 40.728C251.775 40.884 251.565 40.962 251.325 40.962H244.323L243.891 39.432H250.659L250.317 39.756V39.306C250.293 38.886 250.155 38.52 249.903 38.208C249.651 37.884 249.339 37.638 248.967 37.47C248.595 37.29 248.205 37.2 247.797 37.2C247.437 37.2 247.089 37.26 246.753 37.38C246.429 37.488 246.135 37.668 245.871 37.92C245.619 38.172 245.415 38.508 245.259 38.928C245.115 39.336 245.043 39.846 245.043 40.458C245.043 41.118 245.181 41.694 245.457 42.186C245.733 42.678 246.105 43.062 246.573 43.338C247.041 43.602 247.557 43.734 248.121 43.734C248.565 43.734 248.931 43.692 249.219 43.608C249.507 43.512 249.747 43.398 249.939 43.266C250.131 43.134 250.299 43.008 250.443 42.888C250.623 42.78 250.803 42.726 250.983 42.726C251.199 42.726 251.379 42.804 251.523 42.96C251.667 43.104 251.739 43.278 251.739 43.482C251.739 43.746 251.607 43.986 251.343 44.202C251.019 44.514 250.569 44.79 249.993 45.03C249.429 45.27 248.835 45.39 248.211 45.39ZM255.178 45.21C254.914 45.21 254.698 45.126 254.53 44.958C254.362 44.778 254.278 44.556 254.278 44.292V36.66C254.278 36.396 254.362 36.18 254.53 36.012C254.698 35.832 254.914 35.742 255.178 35.742C255.43 35.742 255.64 35.832 255.808 36.012C255.988 36.18 256.078 36.396 256.078 36.66V38.676L255.898 37.902C255.994 37.566 256.138 37.254 256.33 36.966C256.534 36.678 256.774 36.426 257.05 36.21C257.326 35.994 257.632 35.826 257.968 35.706C258.316 35.586 258.676 35.526 259.048 35.526C259.36 35.526 259.63 35.61 259.858 35.778C260.086 35.946 260.2 36.156 260.2 36.408C260.2 36.732 260.116 36.972 259.948 37.128C259.78 37.272 259.594 37.344 259.39 37.344C259.21 37.344 259.036 37.308 258.868 37.236C258.7 37.152 258.502 37.11 258.274 37.11C258.022 37.11 257.764 37.176 257.5 37.308C257.236 37.44 256.996 37.638 256.78 37.902C256.564 38.154 256.39 38.454 256.258 38.802C256.138 39.15 256.078 39.54 256.078 39.972V44.292C256.078 44.556 255.988 44.778 255.808 44.958C255.64 45.126 255.43 45.21 255.178 45.21ZM261.243 43.734C261.135 43.566 261.087 43.374 261.099 43.158C261.111 42.93 261.237 42.738 261.477 42.582C261.645 42.474 261.819 42.432 261.999 42.456C262.191 42.468 262.371 42.558 262.539 42.726C262.875 43.098 263.247 43.392 263.655 43.608C264.075 43.824 264.579 43.932 265.167 43.932C265.407 43.92 265.653 43.884 265.905 43.824C266.157 43.752 266.373 43.632 266.553 43.464C266.733 43.284 266.823 43.026 266.823 42.69C266.823 42.39 266.727 42.15 266.535 41.97C266.343 41.79 266.091 41.646 265.779 41.538C265.467 41.418 265.131 41.31 264.771 41.214C264.387 41.106 263.997 40.986 263.601 40.854C263.217 40.722 262.869 40.554 262.557 40.35C262.245 40.134 261.987 39.858 261.783 39.522C261.591 39.186 261.495 38.772 261.495 38.28C261.495 37.716 261.651 37.23 261.963 36.822C262.287 36.414 262.701 36.096 263.205 35.868C263.721 35.64 264.279 35.526 264.879 35.526C265.227 35.526 265.593 35.574 265.977 35.67C266.361 35.754 266.733 35.892 267.093 36.084C267.453 36.276 267.765 36.528 268.029 36.84C268.149 36.996 268.215 37.182 268.227 37.398C268.251 37.614 268.155 37.806 267.939 37.974C267.795 38.094 267.621 38.148 267.417 38.136C267.213 38.124 267.045 38.058 266.913 37.938C266.685 37.65 266.391 37.428 266.031 37.272C265.671 37.104 265.263 37.02 264.807 37.02C264.579 37.02 264.339 37.056 264.087 37.128C263.847 37.188 263.643 37.302 263.475 37.47C263.307 37.638 263.223 37.884 263.223 38.208C263.223 38.508 263.319 38.748 263.511 38.928C263.715 39.108 263.979 39.258 264.303 39.378C264.627 39.498 264.981 39.606 265.365 39.702C265.737 39.798 266.103 39.912 266.463 40.044C266.835 40.176 267.165 40.35 267.453 40.566C267.753 40.77 267.993 41.04 268.173 41.376C268.365 41.7 268.461 42.114 268.461 42.618C268.461 43.206 268.287 43.71 267.939 44.13C267.603 44.538 267.171 44.85 266.643 45.066C266.127 45.282 265.581 45.39 265.005 45.39C264.321 45.39 263.637 45.27 262.953 45.03C262.281 44.778 261.711 44.346 261.243 43.734Z" fill="#242424"/>
<path d="M112.056 67.072C112.056 67.9307 111.92 68.72 111.648 69.44C111.376 70.1547 110.992 70.7707 110.496 71.288C110 71.8054 109.403 72.208 108.704 72.496C108.011 72.7787 107.243 72.92 106.4 72.92C105.557 72.92 104.789 72.7787 104.096 72.496C103.403 72.208 102.808 71.8054 102.312 71.288C101.816 70.7707 101.432 70.1547 101.16 69.44C100.888 68.72 100.752 67.9307 100.752 67.072C100.752 66.2134 100.888 65.4267 101.16 64.712C101.432 63.992 101.816 63.3734 102.312 62.856C102.808 62.3334 103.403 61.928 104.096 61.64C104.789 61.352 105.557 61.208 106.4 61.208C107.243 61.208 108.011 61.352 108.704 61.64C109.403 61.928 110 62.3334 110.496 62.856C110.992 63.3734 111.376 63.992 111.648 64.712C111.92 65.4267 112.056 66.2134 112.056 67.072ZM110.464 67.072C110.464 66.368 110.368 65.736 110.176 65.176C109.984 64.616 109.712 64.144 109.36 63.76C109.008 63.3707 108.581 63.072 108.08 62.864C107.579 62.656 107.019 62.552 106.4 62.552C105.787 62.552 105.229 62.656 104.728 62.864C104.227 63.072 103.797 63.3707 103.44 63.76C103.088 64.144 102.816 64.616 102.624 65.176C102.432 65.736 102.336 66.368 102.336 67.072C102.336 67.776 102.432 68.408 102.624 68.968C102.816 69.5227 103.088 69.9947 103.44 70.384C103.797 70.768 104.227 71.064 104.728 71.272C105.229 71.4747 105.787 71.576 106.4 71.576C107.019 71.576 107.579 71.4747 108.08 71.272C108.581 71.064 109.008 70.768 109.36 70.384C109.712 69.9947 109.984 69.5227 110.176 68.968C110.368 68.408 110.464 67.776 110.464 67.072ZM115.136 66.32C115.392 65.7654 115.707 65.3334 116.08 65.024C116.454 64.7094 116.91 64.552 117.448 64.552C117.619 64.552 117.782 64.5707 117.936 64.608C118.096 64.6454 118.238 64.704 118.36 64.784L118.256 65.848C118.224 65.9814 118.144 66.048 118.016 66.048C117.942 66.048 117.832 66.032 117.688 66C117.544 65.968 117.382 65.952 117.2 65.952C116.944 65.952 116.715 65.9894 116.512 66.064C116.315 66.1387 116.136 66.2507 115.976 66.4C115.822 66.544 115.68 66.7254 115.552 66.944C115.43 67.1574 115.318 67.4027 115.216 67.68V72.8H113.784V64.696H114.6C114.755 64.696 114.862 64.7254 114.92 64.784C114.979 64.8427 115.019 64.944 115.04 65.088L115.136 66.32ZM124.58 66.624C124.313 66.2667 124.025 66.0187 123.716 65.88C123.407 65.736 123.06 65.664 122.676 65.664C121.924 65.664 121.345 65.9334 120.94 66.472C120.535 67.0107 120.332 67.7787 120.332 68.776C120.332 69.304 120.377 69.7574 120.468 70.136C120.559 70.5094 120.692 70.8187 120.868 71.064C121.044 71.304 121.26 71.48 121.516 71.592C121.772 71.704 122.063 71.76 122.388 71.76C122.857 71.76 123.265 71.6534 123.612 71.44C123.964 71.2267 124.287 70.9254 124.58 70.536V66.624ZM126.004 61.016V72.8H125.156C124.953 72.8 124.825 72.7014 124.772 72.504L124.644 71.52C124.297 71.936 123.903 72.272 123.46 72.528C123.017 72.784 122.505 72.912 121.924 72.912C121.46 72.912 121.039 72.824 120.66 72.648C120.281 72.4667 119.959 72.2027 119.692 71.856C119.425 71.5094 119.22 71.0774 119.076 70.56C118.932 70.0427 118.86 69.448 118.86 68.776C118.86 68.1787 118.94 67.624 119.1 67.112C119.26 66.5947 119.489 66.1467 119.788 65.768C120.087 65.3894 120.452 65.0934 120.884 64.88C121.321 64.6614 121.812 64.552 122.356 64.552C122.852 64.552 123.276 64.6374 123.628 64.808C123.985 64.9734 124.303 65.2054 124.58 65.504V61.016H126.004ZM133.677 67.864C133.677 67.5334 133.629 67.232 133.533 66.96C133.442 66.6827 133.306 66.4454 133.125 66.248C132.949 66.0454 132.733 65.8907 132.477 65.784C132.221 65.672 131.93 65.616 131.605 65.616C130.922 65.616 130.381 65.816 129.981 66.216C129.586 66.6107 129.341 67.16 129.245 67.864H133.677ZM134.829 71.664C134.653 71.8774 134.442 72.064 134.197 72.224C133.952 72.3787 133.688 72.5067 133.405 72.608C133.128 72.7094 132.84 72.784 132.541 72.832C132.242 72.8854 131.946 72.912 131.653 72.912C131.093 72.912 130.576 72.8187 130.101 72.632C129.632 72.44 129.224 72.1627 128.877 71.8C128.536 71.432 128.269 70.9787 128.077 70.44C127.885 69.9014 127.789 69.2827 127.789 68.584C127.789 68.0187 127.874 67.4907 128.045 67C128.221 66.5094 128.472 66.0854 128.797 65.728C129.122 65.3654 129.52 65.0827 129.989 64.88C130.458 64.672 130.986 64.568 131.573 64.568C132.058 64.568 132.506 64.6507 132.917 64.816C133.333 64.976 133.69 65.2107 133.989 65.52C134.293 65.824 134.53 66.2027 134.701 66.656C134.872 67.104 134.957 67.616 134.957 68.192C134.957 68.416 134.933 68.5654 134.885 68.64C134.837 68.7147 134.746 68.752 134.613 68.752H129.197C129.213 69.264 129.282 69.7094 129.405 70.088C129.533 70.4667 129.709 70.784 129.933 71.04C130.157 71.2907 130.424 71.48 130.733 71.608C131.042 71.7307 131.389 71.792 131.773 71.792C132.13 71.792 132.437 71.752 132.693 71.672C132.954 71.5867 133.178 71.496 133.365 71.4C133.552 71.304 133.706 71.216 133.829 71.136C133.957 71.0507 134.066 71.008 134.157 71.008C134.274 71.008 134.365 71.0534 134.429 71.144L134.829 71.664ZM138.058 66.32C138.314 65.7654 138.629 65.3334 139.002 65.024C139.375 64.7094 139.831 64.552 140.37 64.552C140.541 64.552 140.703 64.5707 140.858 64.608C141.018 64.6454 141.159 64.704 141.282 64.784L141.178 65.848C141.146 65.9814 141.066 66.048 140.938 66.048C140.863 66.048 140.754 66.032 140.61 66C140.466 65.968 140.303 65.952 140.122 65.952C139.866 65.952 139.637 65.9894 139.434 66.064C139.237 66.1387 139.058 66.2507 138.898 66.4C138.743 66.544 138.602 66.7254 138.474 66.944C138.351 67.1574 138.239 67.4027 138.138 67.68V72.8H136.706V64.696H137.522C137.677 64.696 137.783 64.7254 137.842 64.784C137.901 64.8427 137.941 64.944 137.962 65.088L138.058 66.32ZM147.207 66.032C147.143 66.1494 147.045 66.208 146.911 66.208C146.831 66.208 146.741 66.1787 146.639 66.12C146.538 66.0614 146.413 65.9974 146.263 65.928C146.119 65.8534 145.946 65.7867 145.743 65.728C145.541 65.664 145.301 65.632 145.023 65.632C144.783 65.632 144.567 65.664 144.375 65.728C144.183 65.7867 144.018 65.8694 143.879 65.976C143.746 66.0827 143.642 66.208 143.567 66.352C143.498 66.4907 143.463 66.6427 143.463 66.808C143.463 67.016 143.522 67.1894 143.639 67.328C143.762 67.4667 143.922 67.5867 144.119 67.688C144.317 67.7894 144.541 67.88 144.791 67.96C145.042 68.0347 145.298 68.1174 145.559 68.208C145.826 68.2934 146.085 68.3894 146.335 68.496C146.586 68.6027 146.81 68.736 147.007 68.896C147.205 69.056 147.362 69.2534 147.479 69.488C147.602 69.7174 147.663 69.9947 147.663 70.32C147.663 70.6934 147.597 71.04 147.463 71.36C147.33 71.6747 147.133 71.9494 146.871 72.184C146.61 72.4134 146.29 72.5947 145.911 72.728C145.533 72.8614 145.095 72.928 144.599 72.928C144.034 72.928 143.522 72.8374 143.063 72.656C142.605 72.4694 142.215 72.232 141.895 71.944L142.231 71.4C142.274 71.3307 142.325 71.2774 142.383 71.24C142.442 71.2027 142.517 71.184 142.607 71.184C142.703 71.184 142.805 71.2214 142.911 71.296C143.018 71.3707 143.146 71.4534 143.295 71.544C143.45 71.6347 143.637 71.7174 143.855 71.792C144.074 71.8667 144.346 71.904 144.671 71.904C144.949 71.904 145.191 71.8694 145.399 71.8C145.607 71.7254 145.781 71.6267 145.919 71.504C146.058 71.3814 146.159 71.24 146.223 71.08C146.293 70.92 146.327 70.7494 146.327 70.568C146.327 70.344 146.266 70.16 146.143 70.016C146.026 69.8667 145.869 69.7414 145.671 69.64C145.474 69.5334 145.247 69.4427 144.991 69.368C144.741 69.288 144.482 69.2054 144.215 69.12C143.954 69.0347 143.695 68.9387 143.439 68.832C143.189 68.72 142.965 68.5814 142.767 68.416C142.57 68.2507 142.41 68.048 142.287 67.808C142.17 67.5627 142.111 67.2667 142.111 66.92C142.111 66.6107 142.175 66.3147 142.303 66.032C142.431 65.744 142.618 65.4934 142.863 65.28C143.109 65.0614 143.41 64.888 143.767 64.76C144.125 64.632 144.533 64.568 144.991 64.568C145.525 64.568 146.002 64.6534 146.423 64.824C146.85 64.9894 147.218 65.2187 147.527 65.512L147.207 66.032ZM157.279 71.704C157.631 71.672 157.94 71.5974 158.207 71.48C158.474 71.3574 158.698 71.2027 158.879 71.016C159.066 70.8294 159.204 70.6134 159.295 70.368C159.391 70.1174 159.439 69.8427 159.439 69.544C159.439 69.2774 159.388 69.048 159.287 68.856C159.191 68.664 159.058 68.4987 158.887 68.36C158.716 68.216 158.516 68.096 158.287 68C158.058 67.8987 157.812 67.8054 157.551 67.72L157.279 71.704ZM157.015 62.456C156.668 62.488 156.367 62.5574 156.111 62.664C155.86 62.7707 155.652 62.904 155.487 63.064C155.322 63.224 155.199 63.4054 155.119 63.608C155.039 63.8054 154.999 64.0134 154.999 64.232C154.999 64.488 155.044 64.712 155.135 64.904C155.226 65.0907 155.351 65.256 155.511 65.4C155.671 65.544 155.858 65.6694 156.071 65.776C156.284 65.8827 156.516 65.9787 156.767 66.064L157.015 62.456ZM157.647 66.344C158.031 66.4667 158.41 66.5974 158.783 66.736C159.156 66.8747 159.492 67.0534 159.791 67.272C160.09 67.4907 160.33 67.7654 160.511 68.096C160.698 68.4214 160.791 68.8294 160.791 69.32C160.791 69.8 160.711 70.2507 160.551 70.672C160.391 71.0934 160.156 71.464 159.847 71.784C159.543 72.104 159.167 72.3654 158.719 72.568C158.276 72.7654 157.77 72.8827 157.199 72.92L157.103 74.32C157.098 74.4214 157.058 74.5094 156.983 74.584C156.908 74.664 156.815 74.704 156.703 74.704H156.175L156.295 72.904C155.65 72.84 155.06 72.68 154.527 72.424C153.999 72.1627 153.543 71.832 153.159 71.432L153.591 70.776C153.634 70.7174 153.687 70.6694 153.751 70.632C153.815 70.5947 153.884 70.576 153.959 70.576C154.06 70.576 154.175 70.6267 154.303 70.728C154.431 70.8294 154.588 70.944 154.775 71.072C154.967 71.2 155.191 71.3254 155.447 71.448C155.708 71.5707 156.02 71.6534 156.383 71.696L156.671 67.448C156.298 67.336 155.93 67.2107 155.567 67.072C155.21 66.9334 154.887 66.7494 154.599 66.52C154.316 66.2907 154.087 66.0054 153.911 65.664C153.74 65.3227 153.655 64.8934 153.655 64.376C153.655 63.9867 153.73 63.608 153.879 63.24C154.034 62.8667 154.258 62.536 154.551 62.248C154.844 61.96 155.204 61.7254 155.631 61.544C156.058 61.3574 156.546 61.2534 157.095 61.232L157.175 60.08C157.18 59.9787 157.218 59.888 157.287 59.808C157.362 59.728 157.458 59.688 157.575 59.688H158.103L157.999 61.264C158.554 61.3334 159.034 61.4774 159.439 61.696C159.85 61.9147 160.212 62.1814 160.527 62.496L160.183 63.024C160.076 63.184 159.954 63.264 159.815 63.264C159.74 63.264 159.647 63.232 159.535 63.168C159.428 63.0987 159.298 63.0187 159.143 62.928C158.994 62.8374 158.815 62.7494 158.607 62.664C158.404 62.5787 158.172 62.5147 157.911 62.472L157.647 66.344ZM164.552 65.664C165.15 65.536 165.699 65.472 166.2 65.472C166.798 65.472 167.326 65.56 167.784 65.736C168.243 65.912 168.624 66.1547 168.928 66.464C169.238 66.7734 169.47 67.1387 169.624 67.56C169.784 67.9814 169.864 68.44 169.864 68.936C169.864 69.544 169.758 70.0934 169.544 70.584C169.336 71.0747 169.046 71.496 168.672 71.848C168.304 72.1947 167.87 72.4614 167.368 72.648C166.867 72.8347 166.326 72.928 165.744 72.928C165.408 72.928 165.086 72.8934 164.776 72.824C164.467 72.76 164.176 72.672 163.904 72.56C163.638 72.448 163.39 72.32 163.16 72.176C162.931 72.032 162.728 71.88 162.552 71.72L162.992 71.112C163.088 70.9734 163.214 70.904 163.368 70.904C163.475 70.904 163.595 70.9467 163.728 71.032C163.862 71.112 164.024 71.2027 164.216 71.304C164.408 71.4054 164.632 71.4987 164.888 71.584C165.15 71.664 165.459 71.704 165.816 71.704C166.216 71.704 166.576 71.64 166.896 71.512C167.216 71.384 167.491 71.2027 167.72 70.968C167.95 70.728 168.126 70.4427 168.248 70.112C168.371 69.7814 168.432 69.4107 168.432 69C168.432 68.6427 168.379 68.32 168.272 68.032C168.171 67.744 168.014 67.4987 167.8 67.296C167.592 67.0934 167.331 66.936 167.016 66.824C166.702 66.712 166.334 66.656 165.912 66.656C165.624 66.656 165.323 66.68 165.008 66.728C164.699 66.776 164.382 66.8534 164.056 66.96L163.16 66.696L164.08 61.336H169.512V61.96C169.512 62.1627 169.448 62.3307 169.32 62.464C169.198 62.592 168.984 62.656 168.68 62.656H165.08L164.552 65.664ZM179.738 67.072C179.738 68.0747 179.628 68.944 179.41 69.68C179.196 70.4107 178.903 71.016 178.53 71.496C178.156 71.976 177.714 72.3334 177.202 72.568C176.695 72.8027 176.151 72.92 175.57 72.92C174.983 72.92 174.436 72.8027 173.93 72.568C173.428 72.3334 172.991 71.976 172.618 71.496C172.244 71.016 171.951 70.4107 171.738 69.68C171.524 68.944 171.418 68.0747 171.418 67.072C171.418 66.0694 171.524 65.2 171.738 64.464C171.951 63.728 172.244 63.12 172.618 62.64C172.991 62.1547 173.428 61.7947 173.93 61.56C174.436 61.3254 174.983 61.208 175.57 61.208C176.151 61.208 176.695 61.3254 177.202 61.56C177.714 61.7947 178.156 62.1547 178.53 62.64C178.903 63.12 179.196 63.728 179.41 64.464C179.628 65.2 179.738 66.0694 179.738 67.072ZM178.258 67.072C178.258 66.1974 178.183 65.464 178.034 64.872C177.89 64.2747 177.692 63.7947 177.442 63.432C177.196 63.0694 176.911 62.8107 176.586 62.656C176.26 62.496 175.922 62.416 175.57 62.416C175.218 62.416 174.879 62.496 174.554 62.656C174.228 62.8107 173.943 63.0694 173.698 63.432C173.452 63.7947 173.255 64.2747 173.106 64.872C172.962 65.464 172.89 66.1974 172.89 67.072C172.89 67.9467 172.962 68.68 173.106 69.272C173.255 69.864 173.452 70.3414 173.698 70.704C173.943 71.0667 174.228 71.328 174.554 71.488C174.879 71.6427 175.218 71.72 175.57 71.72C175.922 71.72 176.26 71.6427 176.586 71.488C176.911 71.328 177.196 71.0667 177.442 70.704C177.692 70.3414 177.89 69.864 178.034 69.272C178.183 68.68 178.258 67.9467 178.258 67.072ZM188.857 64.568C189.449 64.568 189.982 64.6667 190.457 64.864C190.931 65.0614 191.337 65.3414 191.673 65.704C192.009 66.0667 192.265 66.5067 192.441 67.024C192.622 67.536 192.713 68.1094 192.713 68.744C192.713 69.384 192.622 69.96 192.441 70.472C192.265 70.984 192.009 71.4214 191.673 71.784C191.337 72.1467 190.931 72.4267 190.457 72.624C189.982 72.816 189.449 72.912 188.857 72.912C188.259 72.912 187.721 72.816 187.241 72.624C186.766 72.4267 186.361 72.1467 186.025 71.784C185.689 71.4214 185.43 70.984 185.249 70.472C185.073 69.96 184.985 69.384 184.985 68.744C184.985 68.1094 185.073 67.536 185.249 67.024C185.43 66.5067 185.689 66.0667 186.025 65.704C186.361 65.3414 186.766 65.0614 187.241 64.864C187.721 64.6667 188.259 64.568 188.857 64.568ZM188.857 71.8C189.657 71.8 190.254 71.5334 190.649 71C191.043 70.4614 191.241 69.712 191.241 68.752C191.241 67.7867 191.043 67.0347 190.649 66.496C190.254 65.9574 189.657 65.688 188.857 65.688C188.451 65.688 188.097 65.7574 187.793 65.896C187.494 66.0347 187.243 66.2347 187.041 66.496C186.843 66.7574 186.694 67.08 186.593 67.464C186.497 67.8427 186.449 68.272 186.449 68.752C186.449 69.712 186.646 70.4614 187.041 71C187.441 71.5334 188.046 71.8 188.857 71.8ZM195.871 66.32C196.127 65.7654 196.441 65.3334 196.815 65.024C197.188 64.7094 197.644 64.552 198.183 64.552C198.353 64.552 198.516 64.5707 198.671 64.608C198.831 64.6454 198.972 64.704 199.095 64.784L198.991 65.848C198.959 65.9814 198.879 66.048 198.751 66.048C198.676 66.048 198.567 66.032 198.423 66C198.279 65.968 198.116 65.952 197.935 65.952C197.679 65.952 197.449 65.9894 197.247 66.064C197.049 66.1387 196.871 66.2507 196.711 66.4C196.556 66.544 196.415 66.7254 196.287 66.944C196.164 67.1574 196.052 67.4027 195.951 67.68V72.8H194.519V64.696H195.335C195.489 64.696 195.596 64.7254 195.655 64.784C195.713 64.8427 195.753 64.944 195.775 65.088L195.871 66.32ZM204.097 72.8V64.696H204.953C205.155 64.696 205.281 64.7947 205.329 64.992L205.433 65.824C205.731 65.456 206.067 65.1547 206.441 64.92C206.814 64.6854 207.246 64.568 207.737 64.568C208.281 64.568 208.721 64.72 209.057 65.024C209.398 65.328 209.643 65.7387 209.793 66.256C209.91 65.9627 210.059 65.7094 210.241 65.496C210.427 65.2827 210.635 65.1067 210.865 64.968C211.094 64.8294 211.337 64.728 211.593 64.664C211.854 64.6 212.118 64.568 212.385 64.568C212.811 64.568 213.19 64.6374 213.521 64.776C213.857 64.9094 214.139 65.1067 214.369 65.368C214.603 65.6294 214.782 65.952 214.905 66.336C215.027 66.7147 215.089 67.1494 215.089 67.64V72.8H213.657V67.64C213.657 67.0054 213.518 66.5254 213.241 66.2C212.963 65.8694 212.563 65.704 212.041 65.704C211.806 65.704 211.582 65.7467 211.369 65.832C211.161 65.912 210.977 66.032 210.817 66.192C210.657 66.352 210.529 66.5547 210.433 66.8C210.342 67.04 210.297 67.32 210.297 67.64V72.8H208.865V67.64C208.865 66.9894 208.734 66.504 208.473 66.184C208.211 65.864 207.83 65.704 207.329 65.704C206.977 65.704 206.651 65.8 206.353 65.992C206.054 66.1787 205.779 66.4347 205.529 66.76V72.8H204.097ZM220.669 64.568C221.261 64.568 221.794 64.6667 222.269 64.864C222.744 65.0614 223.149 65.3414 223.485 65.704C223.821 66.0667 224.077 66.5067 224.253 67.024C224.434 67.536 224.525 68.1094 224.525 68.744C224.525 69.384 224.434 69.96 224.253 70.472C224.077 70.984 223.821 71.4214 223.485 71.784C223.149 72.1467 222.744 72.4267 222.269 72.624C221.794 72.816 221.261 72.912 220.669 72.912C220.072 72.912 219.533 72.816 219.053 72.624C218.578 72.4267 218.173 72.1467 217.837 71.784C217.501 71.4214 217.242 70.984 217.061 70.472C216.885 69.96 216.797 69.384 216.797 68.744C216.797 68.1094 216.885 67.536 217.061 67.024C217.242 66.5067 217.501 66.0667 217.837 65.704C218.173 65.3414 218.578 65.0614 219.053 64.864C219.533 64.6667 220.072 64.568 220.669 64.568ZM220.669 71.8C221.469 71.8 222.066 71.5334 222.461 71C222.856 70.4614 223.053 69.712 223.053 68.752C223.053 67.7867 222.856 67.0347 222.461 66.496C222.066 65.9574 221.469 65.688 220.669 65.688C220.264 65.688 219.909 65.7574 219.605 65.896C219.306 66.0347 219.056 66.2347 218.853 66.496C218.656 66.7574 218.506 67.08 218.405 67.464C218.309 67.8427 218.261 68.272 218.261 68.752C218.261 69.712 218.458 70.4614 218.853 71C219.253 71.5334 219.858 71.8 220.669 71.8ZM227.683 66.32C227.939 65.7654 228.254 65.3334 228.627 65.024C229 64.7094 229.456 64.552 229.995 64.552C230.166 64.552 230.328 64.5707 230.483 64.608C230.643 64.6454 230.784 64.704 230.907 64.784L230.803 65.848C230.771 65.9814 230.691 66.048 230.563 66.048C230.488 66.048 230.379 66.032 230.235 66C230.091 65.968 229.928 65.952 229.747 65.952C229.491 65.952 229.262 65.9894 229.059 66.064C228.862 66.1387 228.683 66.2507 228.523 66.4C228.368 66.544 228.227 66.7254 228.099 66.944C227.976 67.1574 227.864 67.4027 227.763 67.68V72.8H226.331V64.696H227.147C227.302 64.696 227.408 64.7254 227.467 64.784C227.526 64.8427 227.566 64.944 227.587 65.088L227.683 66.32ZM237.255 67.864C237.255 67.5334 237.207 67.232 237.111 66.96C237.02 66.6827 236.884 66.4454 236.703 66.248C236.527 66.0454 236.311 65.8907 236.055 65.784C235.799 65.672 235.508 65.616 235.183 65.616C234.5 65.616 233.959 65.816 233.559 66.216C233.164 66.6107 232.919 67.16 232.823 67.864H237.255ZM238.407 71.664C238.231 71.8774 238.02 72.064 237.775 72.224C237.53 72.3787 237.266 72.5067 236.983 72.608C236.706 72.7094 236.418 72.784 236.119 72.832C235.82 72.8854 235.524 72.912 235.231 72.912C234.671 72.912 234.154 72.8187 233.679 72.632C233.21 72.44 232.802 72.1627 232.455 71.8C232.114 71.432 231.847 70.9787 231.655 70.44C231.463 69.9014 231.367 69.2827 231.367 68.584C231.367 68.0187 231.452 67.4907 231.623 67C231.799 66.5094 232.05 66.0854 232.375 65.728C232.7 65.3654 233.098 65.0827 233.567 64.88C234.036 64.672 234.564 64.568 235.151 64.568C235.636 64.568 236.084 64.6507 236.495 64.816C236.911 64.976 237.268 65.2107 237.567 65.52C237.871 65.824 238.108 66.2027 238.279 66.656C238.45 67.104 238.535 67.616 238.535 68.192C238.535 68.416 238.511 68.5654 238.463 68.64C238.415 68.7147 238.324 68.752 238.191 68.752H232.775C232.791 69.264 232.86 69.7094 232.983 70.088C233.111 70.4667 233.287 70.784 233.511 71.04C233.735 71.2907 234.002 71.48 234.311 71.608C234.62 71.7307 234.967 71.792 235.351 71.792C235.708 71.792 236.015 71.752 236.271 71.672C236.532 71.5867 236.756 71.496 236.943 71.4C237.13 71.304 237.284 71.216 237.407 71.136C237.535 71.0507 237.644 71.008 237.735 71.008C237.852 71.008 237.943 71.0534 238.007 71.144L238.407 71.664Z" fill="#ADADAD"/>
<defs>
<clipPath id="clip0_8336_969">
<rect width="60" height="60" fill="white" transform="translate(20 20)"/>
</clipPath>
<clipPath id="clip1_8336_969">
<rect width="60" height="60" fill="white" transform="translate(20 20)"/>
</clipPath>
</defs>
</svg>
