<svg width="321" height="107" viewBox="0 0 321 107" fill="none" xmlns="http://www.w3.org/2000/svg">
<rect width="321" height="107" rx="10" fill="#F4F6FA"/>
<g clip-path="url(#clip0_8336_1025)">
<g clip-path="url(#clip1_8336_1025)">
<g clip-path="url(#clip2_8336_1025)">
<mask id="mask0_8336_1025" style="mask-type:luminance" maskUnits="userSpaceOnUse" x="20" y="20" width="60" height="60">
<path d="M79.7914 20H20.4863V79.305H79.7914V20Z" fill="white"/>
</mask>
<g mask="url(#mask0_8336_1025)">
<path d="M64.0158 75.9459C63.4152 75.9459 62.9214 76.4029 62.8631 76.9881H54.1466L52.7715 68.7076L54.2999 67.1792C54.5171 66.962 54.6392 66.6673 54.6392 66.3602C54.6392 66.053 54.5171 65.7584 54.2999 65.5411L52.9475 64.1887H55.2585C57.7947 64.1887 60.1547 65.4475 61.5712 67.5561C61.928 68.0871 62.6477 68.2282 63.1786 67.8717C63.7096 67.5148 63.8508 66.7952 63.4941 66.2641C61.661 63.5356 58.6159 61.8989 55.3364 61.8732C56.4585 60.6306 57.1429 58.9856 57.1429 57.1835V55.4847C57.1429 51.6219 54.0004 48.4795 50.1377 48.4795C46.275 48.4795 43.1326 51.6219 43.1326 55.4847V57.1835C43.1326 58.9861 43.8172 60.6313 44.9396 61.8741C39.5079 61.916 35.1016 66.3461 35.1016 71.7876V78.1464C35.1016 78.7861 35.6201 79.3048 36.2599 79.3048H64.0156C64.6553 79.3048 65.1739 78.7861 65.1739 78.1464V77.1042C65.1741 76.4646 64.6555 75.9459 64.0158 75.9459ZM50.1513 68.0518L48.4596 66.3602L50.1513 64.6686L51.843 66.3602L50.1513 68.0518ZM49.5517 70.6796C49.7356 70.791 49.9432 70.8481 50.1512 70.8481C50.3592 70.8481 50.5669 70.7911 50.7506 70.6796L51.7983 76.9881H48.504L49.5517 70.6796ZM45.4494 55.4847C45.4494 52.8994 47.5526 50.7961 50.138 50.7961C52.7233 50.7961 54.8266 52.8993 54.8266 55.4847V57.1835C54.8266 59.7688 52.7233 61.8721 50.138 61.8721C47.5526 61.8721 45.4494 59.7688 45.4494 57.1835V55.4847ZM37.4184 71.7876C37.4184 67.5975 40.8273 64.1887 45.0173 64.1887H47.3548L46.0024 65.5411C45.7852 65.7584 45.6631 66.053 45.6631 66.3602C45.6631 66.6673 45.7852 66.962 46.0024 67.1792L47.5308 68.7076L46.1557 76.9881H37.4183L37.4184 71.7876Z" fill="#3BB77E"/>
<path d="M44 21.2856C44.3429 21.2856 52.1429 21.5714 56 21.7142V34.1428L44 33.7142V21.2856Z" fill="#FDC040"/>
<path d="M71.4277 21.7141L65.4277 32.857H78.2849L72.2849 22.1427L71.4277 21.7141Z" fill="#FDC040"/>
<path d="M44 21.2856C44.3429 21.2856 52.1429 21.5714 56 21.7142V34.1428L44 33.7142V21.2856Z" stroke="black" stroke-width="0.857143" stroke-linecap="round" stroke-linejoin="round"/>
<path d="M71.4277 21.7141L65.4277 32.857H78.2849L72.2849 22.1427L71.4277 21.7141Z" stroke="black" stroke-width="0.857143" stroke-linecap="round" stroke-linejoin="round"/>
<path d="M35.2993 27.4074C35.2993 23.3234 31.9766 20.001 27.8929 20.001C23.809 20.001 20.4863 23.3236 20.4863 27.4074C20.4863 31.4912 23.8089 34.8138 27.8927 34.8138C31.9766 34.8138 35.2993 31.4913 35.2993 27.4074ZM22.8029 27.4074C22.8029 24.6009 25.0862 22.3176 27.8927 22.3176C30.6993 22.3176 32.9825 24.6009 32.9825 27.4074C32.9825 30.2138 30.6993 32.4972 27.8927 32.4972C25.0862 32.4972 22.8029 30.214 22.8029 27.4074Z" fill="#3BB77E"/>
<path d="M43.8907 34.813H56.3871C57.0267 34.813 57.5453 34.2942 57.5453 33.6546V21.1583C57.5453 20.5187 57.0267 20 56.3871 20H43.8907C43.251 20 42.7324 20.5187 42.7324 21.1583V33.6546C42.7324 34.2942 43.251 34.813 43.8907 34.813ZM45.049 22.3166H55.2287V32.4964H45.049V22.3166Z" fill="#3BB77E"/>
<path d="M79.6359 32.6151L72.9523 21.0391C72.7455 20.6807 72.3631 20.46 71.9493 20.46C71.5354 20.46 71.153 20.6807 70.9462 21.0391L64.2626 32.6151C64.0557 32.9736 64.0557 33.4151 64.2626 33.7735C64.4695 34.1318 64.8519 34.3526 65.2657 34.3526H78.6328C79.0466 34.3526 79.429 34.1318 79.6359 33.7735C79.8428 33.4151 79.8428 32.9736 79.6359 32.6151ZM67.2719 32.036L71.9491 23.9349L76.6264 32.036H67.2719Z" fill="#3BB77E"/>
<path d="M50.1394 46.2057C50.7792 46.2057 51.2977 45.6869 51.2977 45.0473V41.7424L51.3446 41.8078C51.5708 42.1239 51.9264 42.2922 52.2876 42.2922C52.5209 42.2922 52.7565 42.2219 52.9608 42.0757C53.481 41.7034 53.6009 40.9799 53.2286 40.4597L51.0815 37.4594C50.8639 37.1554 50.5132 36.9751 50.1395 36.9751C49.7658 36.9751 49.4151 37.1554 49.1976 37.4594L47.0504 40.4597C46.6781 40.9799 46.7981 41.7034 47.3183 42.0757C47.8385 42.448 48.5619 42.3282 48.9343 41.8079L48.9811 41.7424V45.0473C48.9811 45.6871 49.4997 46.2057 50.1394 46.2057Z" fill="#3BB77E"/>
<path d="M40.6019 55.5868C40.6019 54.9471 40.0833 54.4284 39.4436 54.4284H29.0574V41.7424L29.1044 41.8078C29.3306 42.1239 29.6862 42.2922 30.0474 42.2922C30.2806 42.2922 30.5162 42.2219 30.7206 42.0757C31.2408 41.7034 31.3606 40.9799 30.9883 40.4597L28.8412 37.4594C28.6236 37.1554 28.2729 36.9751 27.8993 36.9751C27.5256 36.9751 27.1749 37.1554 26.9573 37.4594L24.8102 40.4597C24.4379 40.9799 24.5578 41.7034 25.078 42.0757C25.5981 42.448 26.3217 42.3282 26.6941 41.8079L26.7409 41.7424V55.5868C26.7409 56.2264 27.2594 56.745 27.8992 56.745H39.4436C40.0832 56.745 40.6019 56.2264 40.6019 55.5868Z" fill="#3BB77E"/>
<path d="M73.3205 37.4594C73.1029 37.1554 72.7522 36.9751 72.3786 36.9751C72.0049 36.9751 71.6542 37.1554 71.4366 37.4594L69.2895 40.4597C68.9172 40.9799 69.0371 41.7034 69.5573 42.0757C70.0775 42.448 70.8011 42.3282 71.1733 41.8079L71.2202 41.7424V54.4285H60.8341C60.1944 54.4285 59.6758 54.9472 59.6758 55.5868C59.6758 56.2264 60.1944 56.7451 60.8341 56.7451H72.3786C73.0182 56.7451 73.5368 56.2264 73.5368 55.5868V41.7424L73.5838 41.8079C73.81 42.124 74.1656 42.2923 74.5267 42.2923C74.76 42.2923 74.9956 42.222 75.1999 42.0758C75.7201 41.7035 75.84 40.9801 75.4678 40.4599L73.3205 37.4594Z" fill="#3BB77E"/>
<path d="M64.0158 73.0505C64.6554 73.0505 65.174 72.5319 65.174 71.8922C65.174 71.2525 64.6554 70.7339 64.0158 70.7339C63.376 70.7339 62.8574 71.2525 62.8574 71.8922C62.8574 72.5319 63.376 73.0505 64.0158 73.0505Z" fill="#3BB77E"/>
</g>
</g>
</g>
</g>
<path d="M115.768 32.556C116.008 32.556 116.23 32.646 116.434 32.826C116.638 32.994 116.74 33.228 116.74 33.528C116.74 33.612 116.722 33.714 116.686 33.834L112.996 44.634C112.936 44.814 112.828 44.952 112.672 45.048C112.516 45.144 112.354 45.198 112.186 45.21C112.018 45.21 111.85 45.162 111.682 45.066C111.514 44.97 111.388 44.826 111.304 44.634L108.46 37.974L108.622 38.046L105.814 44.634C105.718 44.826 105.586 44.97 105.418 45.066C105.262 45.162 105.094 45.21 104.914 45.21C104.758 45.198 104.602 45.144 104.446 45.048C104.29 44.952 104.182 44.814 104.122 44.634L100.432 33.834C100.396 33.714 100.378 33.612 100.378 33.528C100.378 33.228 100.486 32.994 100.702 32.826C100.918 32.646 101.14 32.556 101.368 32.556C101.56 32.556 101.734 32.61 101.89 32.718C102.058 32.814 102.172 32.958 102.232 33.15L105.346 42.438H105.022L107.758 35.742C107.842 35.562 107.956 35.418 108.1 35.31C108.256 35.202 108.43 35.154 108.622 35.166C108.814 35.154 108.982 35.202 109.126 35.31C109.282 35.418 109.396 35.562 109.468 35.742L112.06 42.24L111.79 42.384L114.886 33.15C114.946 32.958 115.06 32.814 115.228 32.718C115.396 32.61 115.576 32.556 115.768 32.556ZM120.073 44.292C120.073 44.556 119.989 44.778 119.821 44.958C119.653 45.126 119.437 45.21 119.173 45.21C118.921 45.21 118.705 45.126 118.525 44.958C118.357 44.778 118.273 44.556 118.273 44.292V36.588C118.273 36.324 118.357 36.108 118.525 35.94C118.705 35.76 118.921 35.67 119.173 35.67C119.437 35.67 119.653 35.76 119.821 35.94C119.989 36.108 120.073 36.324 120.073 36.588V44.292ZM119.155 34.482C118.807 34.482 118.555 34.422 118.399 34.302C118.243 34.17 118.165 33.954 118.165 33.654V33.366C118.165 33.066 118.249 32.856 118.417 32.736C118.585 32.616 118.837 32.556 119.173 32.556C119.533 32.556 119.791 32.622 119.947 32.754C120.103 32.874 120.181 33.078 120.181 33.366V33.654C120.181 33.966 120.097 34.182 119.929 34.302C119.773 34.422 119.515 34.482 119.155 34.482ZM130.252 31.89C130.516 31.89 130.732 31.974 130.9 32.142C131.068 32.31 131.152 32.532 131.152 32.808V44.292C131.152 44.556 131.068 44.778 130.9 44.958C130.732 45.126 130.516 45.21 130.252 45.21C130 45.21 129.784 45.126 129.604 44.958C129.436 44.778 129.352 44.556 129.352 44.292V42.996L129.73 43.014C129.73 43.23 129.64 43.476 129.46 43.752C129.292 44.016 129.058 44.274 128.758 44.526C128.458 44.778 128.104 44.988 127.696 45.156C127.288 45.312 126.85 45.39 126.382 45.39C125.554 45.39 124.81 45.18 124.15 44.76C123.49 44.328 122.968 43.746 122.584 43.014C122.2 42.27 122.008 41.418 122.008 40.458C122.008 39.498 122.2 38.652 122.584 37.92C122.968 37.176 123.484 36.594 124.132 36.174C124.792 35.742 125.524 35.526 126.328 35.526C126.832 35.526 127.3 35.61 127.732 35.778C128.176 35.946 128.56 36.162 128.884 36.426C129.208 36.69 129.46 36.972 129.64 37.272C129.82 37.56 129.91 37.836 129.91 38.1L129.352 38.154V32.808C129.352 32.544 129.436 32.328 129.604 32.16C129.784 31.98 130 31.89 130.252 31.89ZM126.58 43.734C127.156 43.734 127.654 43.59 128.074 43.302C128.506 43.014 128.842 42.624 129.082 42.132C129.322 41.64 129.442 41.082 129.442 40.458C129.442 39.834 129.322 39.276 129.082 38.784C128.842 38.292 128.506 37.902 128.074 37.614C127.642 37.326 127.144 37.182 126.58 37.182C126.028 37.182 125.536 37.326 125.104 37.614C124.684 37.902 124.348 38.292 124.096 38.784C123.856 39.276 123.736 39.834 123.736 40.458C123.736 41.082 123.856 41.64 124.096 42.132C124.348 42.624 124.684 43.014 125.104 43.302C125.536 43.59 126.028 43.734 126.58 43.734ZM138.084 45.39C137.088 45.39 136.224 45.186 135.492 44.778C134.76 44.358 134.19 43.788 133.782 43.068C133.386 42.336 133.188 41.502 133.188 40.566C133.188 39.51 133.398 38.61 133.818 37.866C134.25 37.11 134.808 36.534 135.492 36.138C136.176 35.73 136.902 35.526 137.67 35.526C138.258 35.526 138.816 35.646 139.344 35.886C139.872 36.114 140.34 36.438 140.748 36.858C141.168 37.266 141.498 37.752 141.738 38.316C141.978 38.868 142.104 39.474 142.116 40.134C142.104 40.374 142.008 40.572 141.828 40.728C141.648 40.884 141.438 40.962 141.198 40.962H134.196L133.764 39.432H140.532L140.19 39.756V39.306C140.166 38.886 140.028 38.52 139.776 38.208C139.524 37.884 139.212 37.638 138.84 37.47C138.468 37.29 138.078 37.2 137.67 37.2C137.31 37.2 136.962 37.26 136.626 37.38C136.302 37.488 136.008 37.668 135.744 37.92C135.492 38.172 135.288 38.508 135.132 38.928C134.988 39.336 134.916 39.846 134.916 40.458C134.916 41.118 135.054 41.694 135.33 42.186C135.606 42.678 135.978 43.062 136.446 43.338C136.914 43.602 137.43 43.734 137.994 43.734C138.438 43.734 138.804 43.692 139.092 43.608C139.38 43.512 139.62 43.398 139.812 43.266C140.004 43.134 140.172 43.008 140.316 42.888C140.496 42.78 140.676 42.726 140.856 42.726C141.072 42.726 141.252 42.804 141.396 42.96C141.54 43.104 141.612 43.278 141.612 43.482C141.612 43.746 141.48 43.986 141.216 44.202C140.892 44.514 140.442 44.79 139.866 45.03C139.302 45.27 138.708 45.39 138.084 45.39ZM156.918 35.598C157.182 35.598 157.398 35.688 157.566 35.868C157.734 36.036 157.818 36.252 157.818 36.516V44.292C157.818 44.556 157.734 44.778 157.566 44.958C157.398 45.126 157.182 45.21 156.918 45.21C156.666 45.21 156.45 45.126 156.27 44.958C156.102 44.778 156.018 44.556 156.018 44.292V42.996L156.396 43.05C156.396 43.266 156.306 43.506 156.126 43.77C155.958 44.034 155.724 44.292 155.424 44.544C155.124 44.784 154.77 44.988 154.362 45.156C153.954 45.312 153.516 45.39 153.048 45.39C152.22 45.39 151.476 45.18 150.816 44.76C150.156 44.328 149.634 43.74 149.25 42.996C148.866 42.252 148.674 41.406 148.674 40.458C148.674 39.486 148.866 38.634 149.25 37.902C149.634 37.158 150.15 36.576 150.798 36.156C151.458 35.736 152.19 35.526 152.994 35.526C153.51 35.526 153.984 35.61 154.416 35.778C154.86 35.946 155.244 36.162 155.568 36.426C155.892 36.69 156.138 36.972 156.306 37.272C156.486 37.56 156.576 37.836 156.576 38.1L156.018 38.154V36.516C156.018 36.264 156.102 36.048 156.27 35.868C156.45 35.688 156.666 35.598 156.918 35.598ZM153.246 43.734C153.81 43.734 154.308 43.59 154.74 43.302C155.172 43.014 155.508 42.624 155.748 42.132C155.988 41.628 156.108 41.07 156.108 40.458C156.108 39.834 155.988 39.276 155.748 38.784C155.508 38.292 155.172 37.902 154.74 37.614C154.308 37.326 153.81 37.182 153.246 37.182C152.694 37.182 152.202 37.326 151.77 37.614C151.35 37.902 151.014 38.292 150.762 38.784C150.522 39.276 150.402 39.834 150.402 40.458C150.402 41.07 150.522 41.628 150.762 42.132C151.014 42.624 151.35 43.014 151.77 43.302C152.202 43.59 152.694 43.734 153.246 43.734ZM159.782 43.734C159.674 43.566 159.626 43.374 159.638 43.158C159.65 42.93 159.776 42.738 160.016 42.582C160.184 42.474 160.358 42.432 160.538 42.456C160.73 42.468 160.91 42.558 161.078 42.726C161.414 43.098 161.786 43.392 162.194 43.608C162.614 43.824 163.118 43.932 163.706 43.932C163.946 43.92 164.192 43.884 164.444 43.824C164.696 43.752 164.912 43.632 165.092 43.464C165.272 43.284 165.362 43.026 165.362 42.69C165.362 42.39 165.266 42.15 165.074 41.97C164.882 41.79 164.63 41.646 164.318 41.538C164.006 41.418 163.67 41.31 163.31 41.214C162.926 41.106 162.536 40.986 162.14 40.854C161.756 40.722 161.408 40.554 161.096 40.35C160.784 40.134 160.526 39.858 160.322 39.522C160.13 39.186 160.034 38.772 160.034 38.28C160.034 37.716 160.19 37.23 160.502 36.822C160.826 36.414 161.24 36.096 161.744 35.868C162.26 35.64 162.818 35.526 163.418 35.526C163.766 35.526 164.132 35.574 164.516 35.67C164.9 35.754 165.272 35.892 165.632 36.084C165.992 36.276 166.304 36.528 166.568 36.84C166.688 36.996 166.754 37.182 166.766 37.398C166.79 37.614 166.694 37.806 166.478 37.974C166.334 38.094 166.16 38.148 165.956 38.136C165.752 38.124 165.584 38.058 165.452 37.938C165.224 37.65 164.93 37.428 164.57 37.272C164.21 37.104 163.802 37.02 163.346 37.02C163.118 37.02 162.878 37.056 162.626 37.128C162.386 37.188 162.182 37.302 162.014 37.47C161.846 37.638 161.762 37.884 161.762 38.208C161.762 38.508 161.858 38.748 162.05 38.928C162.254 39.108 162.518 39.258 162.842 39.378C163.166 39.498 163.52 39.606 163.904 39.702C164.276 39.798 164.642 39.912 165.002 40.044C165.374 40.176 165.704 40.35 165.992 40.566C166.292 40.77 166.532 41.04 166.712 41.376C166.904 41.7 167 42.114 167 42.618C167 43.206 166.826 43.71 166.478 44.13C166.142 44.538 165.71 44.85 165.182 45.066C164.666 45.282 164.12 45.39 163.544 45.39C162.86 45.39 162.176 45.27 161.492 45.03C160.82 44.778 160.25 44.346 159.782 43.734ZM168.378 43.734C168.27 43.566 168.222 43.374 168.234 43.158C168.246 42.93 168.372 42.738 168.612 42.582C168.78 42.474 168.954 42.432 169.134 42.456C169.326 42.468 169.506 42.558 169.674 42.726C170.01 43.098 170.382 43.392 170.79 43.608C171.21 43.824 171.714 43.932 172.302 43.932C172.542 43.92 172.788 43.884 173.04 43.824C173.292 43.752 173.508 43.632 173.688 43.464C173.868 43.284 173.958 43.026 173.958 42.69C173.958 42.39 173.862 42.15 173.67 41.97C173.478 41.79 173.226 41.646 172.914 41.538C172.602 41.418 172.266 41.31 171.906 41.214C171.522 41.106 171.132 40.986 170.736 40.854C170.352 40.722 170.004 40.554 169.692 40.35C169.38 40.134 169.122 39.858 168.918 39.522C168.726 39.186 168.63 38.772 168.63 38.28C168.63 37.716 168.786 37.23 169.098 36.822C169.422 36.414 169.836 36.096 170.34 35.868C170.856 35.64 171.414 35.526 172.014 35.526C172.362 35.526 172.728 35.574 173.112 35.67C173.496 35.754 173.868 35.892 174.228 36.084C174.588 36.276 174.9 36.528 175.164 36.84C175.284 36.996 175.35 37.182 175.362 37.398C175.386 37.614 175.29 37.806 175.074 37.974C174.93 38.094 174.756 38.148 174.552 38.136C174.348 38.124 174.18 38.058 174.048 37.938C173.82 37.65 173.526 37.428 173.166 37.272C172.806 37.104 172.398 37.02 171.942 37.02C171.714 37.02 171.474 37.056 171.222 37.128C170.982 37.188 170.778 37.302 170.61 37.47C170.442 37.638 170.358 37.884 170.358 38.208C170.358 38.508 170.454 38.748 170.646 38.928C170.85 39.108 171.114 39.258 171.438 39.378C171.762 39.498 172.116 39.606 172.5 39.702C172.872 39.798 173.238 39.912 173.598 40.044C173.97 40.176 174.3 40.35 174.588 40.566C174.888 40.77 175.128 41.04 175.308 41.376C175.5 41.7 175.596 42.114 175.596 42.618C175.596 43.206 175.422 43.71 175.074 44.13C174.738 44.538 174.306 44.85 173.778 45.066C173.262 45.282 172.716 45.39 172.14 45.39C171.456 45.39 170.772 45.27 170.088 45.03C169.416 44.778 168.846 44.346 168.378 43.734ZM186.603 40.476C186.603 41.436 186.393 42.288 185.973 43.032C185.553 43.764 184.983 44.34 184.263 44.76C183.543 45.18 182.733 45.39 181.833 45.39C180.933 45.39 180.123 45.18 179.403 44.76C178.683 44.34 178.107 43.764 177.675 43.032C177.255 42.288 177.045 41.436 177.045 40.476C177.045 39.504 177.255 38.652 177.675 37.92C178.107 37.176 178.683 36.594 179.403 36.174C180.123 35.742 180.933 35.526 181.833 35.526C182.733 35.526 183.543 35.742 184.263 36.174C184.983 36.594 185.553 37.176 185.973 37.92C186.393 38.652 186.603 39.504 186.603 40.476ZM184.803 40.476C184.803 39.816 184.671 39.246 184.407 38.766C184.143 38.274 183.783 37.89 183.327 37.614C182.883 37.326 182.385 37.182 181.833 37.182C181.281 37.182 180.777 37.326 180.321 37.614C179.865 37.89 179.505 38.274 179.241 38.766C178.977 39.246 178.845 39.816 178.845 40.476C178.845 41.112 178.977 41.676 179.241 42.168C179.505 42.66 179.865 43.044 180.321 43.32C180.777 43.596 181.281 43.734 181.833 43.734C182.385 43.734 182.883 43.596 183.327 43.32C183.783 43.044 184.143 42.66 184.407 42.168C184.671 41.676 184.803 41.112 184.803 40.476ZM189.541 45.21C189.277 45.21 189.061 45.126 188.893 44.958C188.725 44.778 188.641 44.556 188.641 44.292V36.66C188.641 36.396 188.725 36.18 188.893 36.012C189.061 35.832 189.277 35.742 189.541 35.742C189.793 35.742 190.003 35.832 190.171 36.012C190.351 36.18 190.441 36.396 190.441 36.66V38.676L190.261 37.902C190.357 37.566 190.501 37.254 190.693 36.966C190.897 36.678 191.137 36.426 191.413 36.21C191.689 35.994 191.995 35.826 192.331 35.706C192.679 35.586 193.039 35.526 193.411 35.526C193.723 35.526 193.993 35.61 194.221 35.778C194.449 35.946 194.563 36.156 194.563 36.408C194.563 36.732 194.479 36.972 194.311 37.128C194.143 37.272 193.957 37.344 193.753 37.344C193.573 37.344 193.399 37.308 193.231 37.236C193.063 37.152 192.865 37.11 192.637 37.11C192.385 37.11 192.127 37.176 191.863 37.308C191.599 37.44 191.359 37.638 191.143 37.902C190.927 38.154 190.753 38.454 190.621 38.802C190.501 39.15 190.441 39.54 190.441 39.972V44.292C190.441 44.556 190.351 44.778 190.171 44.958C190.003 45.126 189.793 45.21 189.541 45.21ZM196.038 35.85H200.268C200.508 35.85 200.706 35.934 200.862 36.102C201.03 36.258 201.114 36.456 201.114 36.696C201.114 36.924 201.03 37.116 200.862 37.272C200.706 37.428 200.508 37.506 200.268 37.506H196.038C195.798 37.506 195.594 37.428 195.426 37.272C195.27 37.104 195.192 36.906 195.192 36.678C195.192 36.438 195.27 36.24 195.426 36.084C195.594 35.928 195.798 35.85 196.038 35.85ZM197.928 33.51C198.192 33.51 198.408 33.6 198.576 33.78C198.744 33.948 198.828 34.164 198.828 34.428V42.78C198.828 42.996 198.864 43.17 198.936 43.302C199.008 43.434 199.104 43.524 199.224 43.572C199.356 43.62 199.488 43.644 199.62 43.644C199.752 43.644 199.866 43.62 199.962 43.572C200.07 43.524 200.196 43.5 200.34 43.5C200.484 43.5 200.616 43.566 200.736 43.698C200.856 43.83 200.916 44.01 200.916 44.238C200.916 44.526 200.76 44.76 200.448 44.94C200.136 45.12 199.8 45.21 199.44 45.21C199.236 45.21 198.996 45.192 198.72 45.156C198.444 45.12 198.174 45.03 197.91 44.886C197.658 44.742 197.448 44.514 197.28 44.202C197.112 43.878 197.028 43.428 197.028 42.852V34.428C197.028 34.164 197.112 33.948 197.28 33.78C197.46 33.6 197.676 33.51 197.928 33.51ZM207.86 35.58C208.748 35.58 209.432 35.802 209.912 36.246C210.392 36.678 210.71 37.266 210.866 38.01L210.578 37.92L210.704 37.632C210.86 37.32 211.094 37.008 211.406 36.696C211.73 36.372 212.114 36.108 212.558 35.904C213.002 35.688 213.476 35.58 213.98 35.58C214.808 35.58 215.45 35.76 215.906 36.12C216.362 36.468 216.68 36.942 216.86 37.542C217.04 38.13 217.13 38.79 217.13 39.522V44.292C217.13 44.556 217.046 44.778 216.878 44.958C216.71 45.126 216.494 45.21 216.23 45.21C215.978 45.21 215.762 45.126 215.582 44.958C215.414 44.778 215.33 44.556 215.33 44.292V39.54C215.33 39.12 215.27 38.736 215.15 38.388C215.042 38.04 214.844 37.764 214.556 37.56C214.28 37.344 213.896 37.236 213.404 37.236C212.936 37.236 212.516 37.344 212.144 37.56C211.784 37.764 211.502 38.04 211.298 38.388C211.094 38.736 210.992 39.12 210.992 39.54V44.292C210.992 44.556 210.908 44.778 210.74 44.958C210.572 45.126 210.356 45.21 210.092 45.21C209.828 45.21 209.612 45.126 209.444 44.958C209.276 44.778 209.192 44.556 209.192 44.292V39.522C209.192 39.102 209.132 38.718 209.012 38.37C208.904 38.022 208.712 37.746 208.436 37.542C208.16 37.338 207.776 37.236 207.284 37.236C206.816 37.236 206.402 37.338 206.042 37.542C205.682 37.746 205.4 38.022 205.196 38.37C205.004 38.718 204.908 39.102 204.908 39.522V44.292C204.908 44.556 204.818 44.778 204.638 44.958C204.47 45.126 204.26 45.21 204.008 45.21C203.744 45.21 203.528 45.126 203.36 44.958C203.192 44.778 203.108 44.556 203.108 44.292V36.66C203.108 36.396 203.192 36.18 203.36 36.012C203.528 35.832 203.744 35.742 204.008 35.742C204.26 35.742 204.47 35.832 204.638 36.012C204.818 36.18 204.908 36.396 204.908 36.66V37.722L204.566 37.92C204.65 37.656 204.788 37.386 204.98 37.11C205.172 36.834 205.412 36.582 205.7 36.354C206 36.126 206.33 35.94 206.69 35.796C207.05 35.652 207.44 35.58 207.86 35.58ZM224.059 45.39C223.063 45.39 222.199 45.186 221.467 44.778C220.735 44.358 220.165 43.788 219.757 43.068C219.361 42.336 219.163 41.502 219.163 40.566C219.163 39.51 219.373 38.61 219.793 37.866C220.225 37.11 220.783 36.534 221.467 36.138C222.151 35.73 222.877 35.526 223.645 35.526C224.233 35.526 224.791 35.646 225.319 35.886C225.847 36.114 226.315 36.438 226.723 36.858C227.143 37.266 227.473 37.752 227.713 38.316C227.953 38.868 228.079 39.474 228.091 40.134C228.079 40.374 227.983 40.572 227.803 40.728C227.623 40.884 227.413 40.962 227.173 40.962H220.171L219.739 39.432H226.507L226.165 39.756V39.306C226.141 38.886 226.003 38.52 225.751 38.208C225.499 37.884 225.187 37.638 224.815 37.47C224.443 37.29 224.053 37.2 223.645 37.2C223.285 37.2 222.937 37.26 222.601 37.38C222.277 37.488 221.983 37.668 221.719 37.92C221.467 38.172 221.263 38.508 221.107 38.928C220.963 39.336 220.891 39.846 220.891 40.458C220.891 41.118 221.029 41.694 221.305 42.186C221.581 42.678 221.953 43.062 222.421 43.338C222.889 43.602 223.405 43.734 223.969 43.734C224.413 43.734 224.779 43.692 225.067 43.608C225.355 43.512 225.595 43.398 225.787 43.266C225.979 43.134 226.147 43.008 226.291 42.888C226.471 42.78 226.651 42.726 226.831 42.726C227.047 42.726 227.227 42.804 227.371 42.96C227.515 43.104 227.587 43.278 227.587 43.482C227.587 43.746 227.455 43.986 227.191 44.202C226.867 44.514 226.417 44.79 225.841 45.03C225.277 45.27 224.683 45.39 224.059 45.39ZM235.003 35.526C235.855 35.526 236.515 35.706 236.983 36.066C237.451 36.414 237.775 36.888 237.955 37.488C238.147 38.076 238.243 38.736 238.243 39.468V44.292C238.243 44.556 238.153 44.778 237.973 44.958C237.805 45.126 237.595 45.21 237.343 45.21C237.079 45.21 236.863 45.126 236.695 44.958C236.527 44.778 236.443 44.556 236.443 44.292V39.486C236.443 39.054 236.383 38.67 236.263 38.334C236.143 37.986 235.933 37.71 235.633 37.506C235.345 37.29 234.937 37.182 234.409 37.182C233.917 37.182 233.485 37.29 233.113 37.506C232.741 37.71 232.447 37.986 232.231 38.334C232.027 38.67 231.925 39.054 231.925 39.486V44.292C231.925 44.556 231.835 44.778 231.655 44.958C231.487 45.126 231.277 45.21 231.025 45.21C230.761 45.21 230.545 45.126 230.377 44.958C230.209 44.778 230.125 44.556 230.125 44.292V36.66C230.125 36.396 230.209 36.18 230.377 36.012C230.545 35.832 230.761 35.742 231.025 35.742C231.277 35.742 231.487 35.832 231.655 36.012C231.835 36.18 231.925 36.396 231.925 36.66V37.668L231.601 37.848C231.685 37.584 231.829 37.32 232.033 37.056C232.249 36.78 232.507 36.528 232.807 36.3C233.107 36.06 233.443 35.874 233.815 35.742C234.187 35.598 234.583 35.526 235.003 35.526ZM240.616 35.85H244.846C245.086 35.85 245.284 35.934 245.44 36.102C245.608 36.258 245.692 36.456 245.692 36.696C245.692 36.924 245.608 37.116 245.44 37.272C245.284 37.428 245.086 37.506 244.846 37.506H240.616C240.376 37.506 240.172 37.428 240.004 37.272C239.848 37.104 239.77 36.906 239.77 36.678C239.77 36.438 239.848 36.24 240.004 36.084C240.172 35.928 240.376 35.85 240.616 35.85ZM242.506 33.51C242.77 33.51 242.986 33.6 243.154 33.78C243.322 33.948 243.406 34.164 243.406 34.428V42.78C243.406 42.996 243.442 43.17 243.514 43.302C243.586 43.434 243.682 43.524 243.802 43.572C243.934 43.62 244.066 43.644 244.198 43.644C244.33 43.644 244.444 43.62 244.54 43.572C244.648 43.524 244.774 43.5 244.918 43.5C245.062 43.5 245.194 43.566 245.314 43.698C245.434 43.83 245.494 44.01 245.494 44.238C245.494 44.526 245.338 44.76 245.026 44.94C244.714 45.12 244.378 45.21 244.018 45.21C243.814 45.21 243.574 45.192 243.298 45.156C243.022 45.12 242.752 45.03 242.488 44.886C242.236 44.742 242.026 44.514 241.858 44.202C241.69 43.878 241.606 43.428 241.606 42.852V34.428C241.606 34.164 241.69 33.948 241.858 33.78C242.038 33.6 242.254 33.51 242.506 33.51Z" fill="#242424"/>
<path d="M113.392 61.336V72.8H112.032V64.376C112.032 64.264 112.035 64.144 112.04 64.016C112.051 63.888 112.061 63.7574 112.072 63.624L108.136 70.792C108.013 71.032 107.827 71.152 107.576 71.152H107.352C107.101 71.152 106.915 71.032 106.792 70.792L102.776 63.592C102.808 63.8747 102.824 64.136 102.824 64.376V72.8H101.464V61.336H102.608C102.747 61.336 102.853 61.3494 102.928 61.376C103.003 61.4027 103.075 61.4774 103.144 61.6L107.104 68.656C107.168 68.784 107.229 68.9174 107.288 69.056C107.352 69.1947 107.411 69.336 107.464 69.48C107.517 69.336 107.573 69.1947 107.632 69.056C107.691 68.912 107.755 68.776 107.824 68.648L111.712 61.6C111.776 61.4774 111.845 61.4027 111.92 61.376C112 61.3494 112.109 61.336 112.248 61.336H113.392ZM121.161 67.864C121.161 67.5334 121.113 67.232 121.017 66.96C120.927 66.6827 120.791 66.4454 120.609 66.248C120.433 66.0454 120.217 65.8907 119.961 65.784C119.705 65.672 119.415 65.616 119.089 65.616C118.407 65.616 117.865 65.816 117.465 66.216C117.071 66.6107 116.825 67.16 116.729 67.864H121.161ZM122.313 71.664C122.137 71.8774 121.927 72.064 121.681 72.224C121.436 72.3787 121.172 72.5067 120.889 72.608C120.612 72.7094 120.324 72.784 120.025 72.832C119.727 72.8854 119.431 72.912 119.137 72.912C118.577 72.912 118.06 72.8187 117.585 72.632C117.116 72.44 116.708 72.1627 116.361 71.8C116.02 71.432 115.753 70.9787 115.561 70.44C115.369 69.9014 115.273 69.2827 115.273 68.584C115.273 68.0187 115.359 67.4907 115.529 67C115.705 66.5094 115.956 66.0854 116.281 65.728C116.607 65.3654 117.004 65.0827 117.473 64.88C117.943 64.672 118.471 64.568 119.057 64.568C119.543 64.568 119.991 64.6507 120.401 64.816C120.817 64.976 121.175 65.2107 121.473 65.52C121.777 65.824 122.015 66.2027 122.185 66.656C122.356 67.104 122.441 67.616 122.441 68.192C122.441 68.416 122.417 68.5654 122.369 68.64C122.321 68.7147 122.231 68.752 122.097 68.752H116.681C116.697 69.264 116.767 69.7094 116.889 70.088C117.017 70.4667 117.193 70.784 117.417 71.04C117.641 71.2907 117.908 71.48 118.217 71.608C118.527 71.7307 118.873 71.792 119.257 71.792C119.615 71.792 119.921 71.752 120.177 71.672C120.439 71.5867 120.663 71.496 120.849 71.4C121.036 71.304 121.191 71.216 121.313 71.136C121.441 71.0507 121.551 71.008 121.641 71.008C121.759 71.008 121.849 71.0534 121.913 71.144L122.313 71.664ZM127.015 68.84C127.303 68.84 127.556 68.8 127.775 68.72C127.993 68.64 128.177 68.528 128.327 68.384C128.476 68.24 128.588 68.0694 128.663 67.872C128.737 67.6694 128.775 67.448 128.775 67.208C128.775 66.712 128.623 66.3174 128.319 66.024C128.02 65.7307 127.585 65.584 127.015 65.584C126.439 65.584 125.999 65.7307 125.695 66.024C125.396 66.3174 125.247 66.712 125.247 67.208C125.247 67.448 125.284 67.6694 125.359 67.872C125.439 68.0694 125.553 68.24 125.703 68.384C125.852 68.528 126.036 68.64 126.255 68.72C126.473 68.8 126.727 68.84 127.015 68.84ZM129.583 73.24C129.583 73.0427 129.527 72.8827 129.415 72.76C129.303 72.6374 129.151 72.5414 128.959 72.472C128.772 72.4027 128.553 72.3547 128.303 72.328C128.052 72.296 127.785 72.272 127.503 72.256C127.225 72.24 126.943 72.224 126.655 72.208C126.367 72.192 126.089 72.1654 125.823 72.128C125.524 72.2667 125.279 72.4427 125.087 72.656C124.9 72.864 124.807 73.1094 124.807 73.392C124.807 73.5734 124.852 73.7414 124.943 73.896C125.039 74.056 125.183 74.192 125.375 74.304C125.567 74.4214 125.807 74.512 126.095 74.576C126.388 74.6454 126.732 74.68 127.127 74.68C127.511 74.68 127.855 74.6454 128.159 74.576C128.463 74.5067 128.719 74.408 128.927 74.28C129.14 74.152 129.303 74 129.415 73.824C129.527 73.648 129.583 73.4534 129.583 73.24ZM131.031 65.016V65.544C131.031 65.72 130.919 65.832 130.695 65.88L129.775 66C129.956 66.352 130.047 66.7414 130.047 67.168C130.047 67.5627 129.969 67.9227 129.815 68.248C129.665 68.568 129.457 68.8427 129.191 69.072C128.924 69.3014 128.604 69.4774 128.231 69.6C127.857 69.7227 127.452 69.784 127.015 69.784C126.636 69.784 126.279 69.7387 125.943 69.648C125.772 69.7547 125.641 69.8694 125.551 69.992C125.46 70.1094 125.414 70.2294 125.414 70.352C125.414 70.544 125.492 70.6907 125.647 70.792C125.807 70.888 126.015 70.9574 126.271 71C126.527 71.0427 126.817 71.0694 127.143 71.08C127.473 71.0907 127.809 71.1094 128.151 71.136C128.497 71.1574 128.833 71.1974 129.159 71.256C129.489 71.3147 129.783 71.4107 130.039 71.544C130.295 71.6774 130.5 71.8614 130.655 72.096C130.815 72.3307 130.895 72.6347 130.895 73.008C130.895 73.3547 130.807 73.6907 130.631 74.016C130.46 74.3414 130.212 74.6294 129.887 74.88C129.561 75.136 129.161 75.3387 128.687 75.488C128.217 75.6427 127.687 75.72 127.095 75.72C126.503 75.72 125.985 75.6614 125.543 75.544C125.1 75.4267 124.732 75.2694 124.439 75.072C124.145 74.8747 123.924 74.6454 123.775 74.384C123.631 74.128 123.559 73.8587 123.559 73.576C123.559 73.176 123.684 72.8374 123.935 72.56C124.185 72.2827 124.529 72.0614 124.967 71.896C124.727 71.7894 124.535 71.648 124.391 71.472C124.252 71.2907 124.183 71.048 124.183 70.744C124.183 70.6267 124.204 70.5067 124.247 70.384C124.289 70.256 124.353 70.1307 124.439 70.008C124.529 69.88 124.639 69.76 124.767 69.648C124.895 69.536 125.044 69.4374 125.215 69.352C124.815 69.128 124.503 68.832 124.279 68.464C124.055 68.0907 123.943 67.6587 123.943 67.168C123.943 66.7734 124.017 66.416 124.167 66.096C124.321 65.7707 124.535 65.496 124.807 65.272C125.079 65.0427 125.401 64.8667 125.775 64.744C126.153 64.6214 126.567 64.56 127.015 64.56C127.367 64.56 127.695 64.6 127.999 64.68C128.303 64.7547 128.58 64.8667 128.831 65.016H131.031ZM136.895 69.152C136.239 69.1734 135.679 69.2267 135.215 69.312C134.756 69.392 134.38 69.4987 134.087 69.632C133.799 69.7654 133.588 69.9227 133.455 70.104C133.327 70.2854 133.263 70.488 133.263 70.712C133.263 70.9254 133.298 71.1094 133.367 71.264C133.436 71.4187 133.53 71.5467 133.647 71.648C133.77 71.744 133.911 71.816 134.071 71.864C134.236 71.9067 134.412 71.928 134.599 71.928C134.85 71.928 135.079 71.904 135.287 71.856C135.495 71.8027 135.69 71.728 135.871 71.632C136.058 71.536 136.234 71.4214 136.399 71.288C136.57 71.1547 136.735 71.0027 136.895 70.832V69.152ZM132.295 65.84C132.743 65.408 133.226 65.0854 133.743 64.872C134.26 64.6587 134.834 64.552 135.463 64.552C135.916 64.552 136.319 64.6267 136.671 64.776C137.023 64.9254 137.319 65.1334 137.559 65.4C137.799 65.6667 137.98 65.9894 138.103 66.368C138.226 66.7467 138.287 67.1627 138.287 67.616V72.8H137.655C137.516 72.8 137.41 72.7787 137.335 72.736C137.26 72.688 137.202 72.5974 137.159 72.464L136.999 71.696C136.786 71.8934 136.578 72.0694 136.375 72.224C136.172 72.3734 135.959 72.5014 135.735 72.608C135.511 72.7094 135.271 72.7867 135.015 72.84C134.764 72.8987 134.484 72.928 134.175 72.928C133.86 72.928 133.564 72.8854 133.287 72.8C133.01 72.7094 132.767 72.576 132.559 72.4C132.356 72.224 132.194 72.0027 132.071 71.736C131.954 71.464 131.895 71.144 131.895 70.776C131.895 70.456 131.983 70.1494 132.159 69.856C132.335 69.5574 132.62 69.2934 133.015 69.064C133.41 68.8347 133.924 68.648 134.559 68.504C135.194 68.3547 135.972 68.2694 136.895 68.248V67.616C136.895 66.9867 136.759 66.512 136.487 66.192C136.215 65.8667 135.818 65.704 135.295 65.704C134.943 65.704 134.647 65.7494 134.407 65.84C134.172 65.9254 133.967 66.024 133.791 66.136C133.62 66.2427 133.471 66.3414 133.343 66.432C133.22 66.5174 133.098 66.56 132.975 66.56C132.879 66.56 132.796 66.536 132.727 66.488C132.658 66.4347 132.599 66.3707 132.551 66.296L132.295 65.84ZM154.822 67.072C154.822 67.9307 154.686 68.712 154.414 69.416C154.142 70.12 153.758 70.7227 153.262 71.224C152.766 71.7254 152.169 72.1147 151.47 72.392C150.777 72.664 150.009 72.8 149.166 72.8H144.886V61.336H149.166C150.009 61.336 150.777 61.4747 151.47 61.752C152.169 62.024 152.766 62.4134 153.262 62.92C153.758 63.4214 154.142 64.024 154.414 64.728C154.686 65.432 154.822 66.2134 154.822 67.072ZM153.23 67.072C153.23 66.368 153.134 65.7387 152.942 65.184C152.75 64.6294 152.478 64.16 152.126 63.776C151.774 63.392 151.347 63.0987 150.846 62.896C150.345 62.6934 149.785 62.592 149.166 62.592H146.438V71.544H149.166C149.785 71.544 150.345 71.4427 150.846 71.24C151.347 71.0374 151.774 70.7467 152.126 70.368C152.478 69.984 152.75 69.5147 152.942 68.96C153.134 68.4054 153.23 67.776 153.23 67.072ZM158.07 64.696V72.8H156.646V64.696H158.07ZM158.374 62.152C158.374 62.2907 158.344 62.4214 158.286 62.544C158.232 62.6614 158.158 62.768 158.062 62.864C157.971 62.9547 157.862 63.0267 157.734 63.08C157.611 63.1334 157.48 63.16 157.342 63.16C157.203 63.16 157.072 63.1334 156.95 63.08C156.832 63.0267 156.728 62.9547 156.638 62.864C156.547 62.768 156.475 62.6614 156.422 62.544C156.368 62.4214 156.342 62.2907 156.342 62.152C156.342 62.0134 156.368 61.8827 156.422 61.76C156.475 61.632 156.547 61.5227 156.638 61.432C156.728 61.336 156.832 61.2614 156.95 61.208C157.072 61.1547 157.203 61.128 157.342 61.128C157.48 61.128 157.611 61.1547 157.734 61.208C157.862 61.2614 157.971 61.336 158.062 61.432C158.158 61.5227 158.232 61.632 158.286 61.76C158.344 61.8827 158.374 62.0134 158.374 62.152ZM165.129 66.032C165.065 66.1494 164.967 66.208 164.833 66.208C164.753 66.208 164.663 66.1787 164.561 66.12C164.46 66.0614 164.335 65.9974 164.185 65.928C164.041 65.8534 163.868 65.7867 163.665 65.728C163.463 65.664 163.223 65.632 162.945 65.632C162.705 65.632 162.489 65.664 162.297 65.728C162.105 65.7867 161.94 65.8694 161.801 65.976C161.668 66.0827 161.564 66.208 161.489 66.352C161.42 66.4907 161.385 66.6427 161.385 66.808C161.385 67.016 161.444 67.1894 161.561 67.328C161.684 67.4667 161.844 67.5867 162.041 67.688C162.239 67.7894 162.463 67.88 162.713 67.96C162.964 68.0347 163.22 68.1174 163.481 68.208C163.748 68.2934 164.007 68.3894 164.257 68.496C164.508 68.6027 164.732 68.736 164.929 68.896C165.127 69.056 165.284 69.2534 165.401 69.488C165.524 69.7174 165.585 69.9947 165.585 70.32C165.585 70.6934 165.519 71.04 165.385 71.36C165.252 71.6747 165.055 71.9494 164.793 72.184C164.532 72.4134 164.212 72.5947 163.833 72.728C163.455 72.8614 163.017 72.928 162.521 72.928C161.956 72.928 161.444 72.8374 160.985 72.656C160.527 72.4694 160.137 72.232 159.817 71.944L160.153 71.4C160.196 71.3307 160.247 71.2774 160.305 71.24C160.364 71.2027 160.439 71.184 160.529 71.184C160.625 71.184 160.727 71.2214 160.833 71.296C160.94 71.3707 161.068 71.4534 161.217 71.544C161.372 71.6347 161.559 71.7174 161.777 71.792C161.996 71.8667 162.268 71.904 162.593 71.904C162.871 71.904 163.113 71.8694 163.321 71.8C163.529 71.7254 163.703 71.6267 163.841 71.504C163.98 71.3814 164.081 71.24 164.145 71.08C164.215 70.92 164.249 70.7494 164.249 70.568C164.249 70.344 164.188 70.16 164.065 70.016C163.948 69.8667 163.791 69.7414 163.593 69.64C163.396 69.5334 163.169 69.4427 162.913 69.368C162.663 69.288 162.404 69.2054 162.137 69.12C161.876 69.0347 161.617 68.9387 161.361 68.832C161.111 68.72 160.887 68.5814 160.689 68.416C160.492 68.2507 160.332 68.048 160.209 67.808C160.092 67.5627 160.033 67.2667 160.033 66.92C160.033 66.6107 160.097 66.3147 160.225 66.032C160.353 65.744 160.54 65.4934 160.785 65.28C161.031 65.0614 161.332 64.888 161.689 64.76C162.047 64.632 162.455 64.568 162.913 64.568C163.447 64.568 163.924 64.6534 164.345 64.824C164.772 64.9894 165.14 65.2187 165.449 65.512L165.129 66.032ZM172.971 66.136C172.928 66.1947 172.886 66.24 172.843 66.272C172.8 66.304 172.742 66.32 172.667 66.32C172.587 66.32 172.499 66.288 172.403 66.224C172.307 66.1547 172.187 66.08 172.043 66C171.904 65.92 171.731 65.848 171.523 65.784C171.32 65.7147 171.07 65.68 170.771 65.68C170.371 65.68 170.019 65.752 169.715 65.896C169.411 66.0347 169.155 66.2374 168.947 66.504C168.744 66.7707 168.59 67.0934 168.483 67.472C168.382 67.8507 168.331 68.2747 168.331 68.744C168.331 69.2347 168.387 69.672 168.499 70.056C168.611 70.4347 168.768 70.7547 168.971 71.016C169.179 71.272 169.427 71.4694 169.715 71.608C170.008 71.7414 170.336 71.808 170.699 71.808C171.046 71.808 171.331 71.768 171.555 71.688C171.779 71.6027 171.963 71.5094 172.107 71.408C172.256 71.3067 172.379 71.216 172.475 71.136C172.576 71.0507 172.675 71.008 172.771 71.008C172.888 71.008 172.979 71.0534 173.043 71.144L173.443 71.664C173.267 71.8827 173.067 72.0694 172.843 72.224C172.619 72.3787 172.376 72.5094 172.115 72.616C171.859 72.7174 171.59 72.792 171.307 72.84C171.024 72.888 170.736 72.912 170.443 72.912C169.936 72.912 169.464 72.8187 169.027 72.632C168.595 72.4454 168.219 72.176 167.899 71.824C167.579 71.4667 167.328 71.0294 167.147 70.512C166.966 69.9947 166.875 69.4054 166.875 68.744C166.875 68.1414 166.958 67.584 167.123 67.072C167.294 66.56 167.539 66.12 167.859 65.752C168.184 65.3787 168.582 65.088 169.051 64.88C169.526 64.672 170.07 64.568 170.683 64.568C171.254 64.568 171.755 64.6614 172.187 64.848C172.624 65.0294 173.011 65.288 173.347 65.624L172.971 66.136ZM178.247 64.568C178.839 64.568 179.372 64.6667 179.847 64.864C180.322 65.0614 180.727 65.3414 181.063 65.704C181.399 66.0667 181.655 66.5067 181.831 67.024C182.012 67.536 182.103 68.1094 182.103 68.744C182.103 69.384 182.012 69.96 181.831 70.472C181.655 70.984 181.399 71.4214 181.063 71.784C180.727 72.1467 180.322 72.4267 179.847 72.624C179.372 72.816 178.839 72.912 178.247 72.912C177.65 72.912 177.111 72.816 176.631 72.624C176.156 72.4267 175.751 72.1467 175.415 71.784C175.079 71.4214 174.82 70.984 174.639 70.472C174.463 69.96 174.375 69.384 174.375 68.744C174.375 68.1094 174.463 67.536 174.639 67.024C174.82 66.5067 175.079 66.0667 175.415 65.704C175.751 65.3414 176.156 65.0614 176.631 64.864C177.111 64.6667 177.65 64.568 178.247 64.568ZM178.247 71.8C179.047 71.8 179.644 71.5334 180.039 71C180.434 70.4614 180.631 69.712 180.631 68.752C180.631 67.7867 180.434 67.0347 180.039 66.496C179.644 65.9574 179.047 65.688 178.247 65.688C177.842 65.688 177.487 65.7574 177.183 65.896C176.884 66.0347 176.634 66.2347 176.431 66.496C176.234 66.7574 176.084 67.08 175.983 67.464C175.887 67.8427 175.839 68.272 175.839 68.752C175.839 69.712 176.036 70.4614 176.431 71C176.831 71.5334 177.436 71.8 178.247 71.8ZM190.573 64.696V72.8H189.725C189.523 72.8 189.395 72.7014 189.341 72.504L189.229 71.632C188.877 72.0214 188.483 72.336 188.045 72.576C187.608 72.8107 187.107 72.928 186.541 72.928C186.099 72.928 185.707 72.856 185.365 72.712C185.029 72.5627 184.747 72.3547 184.517 72.088C184.288 71.8214 184.115 71.4987 183.997 71.12C183.885 70.7414 183.829 70.3227 183.829 69.864V64.696H185.253V69.864C185.253 70.4774 185.392 70.952 185.669 71.288C185.952 71.624 186.381 71.792 186.957 71.792C187.379 71.792 187.771 71.6934 188.133 71.496C188.501 71.2934 188.84 71.016 189.149 70.664V64.696H190.573ZM194.175 65.872C194.351 65.6747 194.538 65.496 194.735 65.336C194.932 65.176 195.14 65.04 195.359 64.928C195.583 64.8107 195.818 64.7227 196.063 64.664C196.314 64.6 196.583 64.568 196.871 64.568C197.314 64.568 197.703 64.6427 198.039 64.792C198.38 64.936 198.663 65.144 198.887 65.416C199.116 65.6827 199.29 66.0054 199.407 66.384C199.524 66.7627 199.583 67.1814 199.583 67.64V72.8H198.151V67.64C198.151 67.0267 198.01 66.552 197.727 66.216C197.45 65.8747 197.026 65.704 196.455 65.704C196.034 65.704 195.639 65.8054 195.271 66.008C194.908 66.2107 194.572 66.4854 194.263 66.832V72.8H192.831V64.696H193.687C193.89 64.696 194.015 64.7947 194.063 64.992L194.175 65.872ZM204.132 72.928C203.492 72.928 202.998 72.7494 202.652 72.392C202.31 72.0347 202.14 71.52 202.14 70.848V65.888H201.164C201.078 65.888 201.006 65.864 200.948 65.816C200.889 65.7627 200.86 65.6827 200.86 65.576V65.008L202.188 64.84L202.516 62.336C202.532 62.256 202.566 62.192 202.62 62.144C202.678 62.0907 202.753 62.064 202.844 62.064H203.564V64.856H205.908V65.888H203.564V70.752C203.564 71.0934 203.646 71.3467 203.812 71.512C203.977 71.6774 204.19 71.76 204.452 71.76C204.601 71.76 204.729 71.7414 204.836 71.704C204.948 71.6614 205.044 71.616 205.124 71.568C205.204 71.52 205.27 71.4774 205.324 71.44C205.382 71.3974 205.433 71.376 205.476 71.376C205.55 71.376 205.617 71.4214 205.676 71.512L206.092 72.192C205.846 72.4214 205.55 72.6027 205.204 72.736C204.857 72.864 204.5 72.928 204.132 72.928ZM212.098 66.032C212.034 66.1494 211.935 66.208 211.802 66.208C211.722 66.208 211.631 66.1787 211.53 66.12C211.429 66.0614 211.303 65.9974 211.154 65.928C211.01 65.8534 210.837 65.7867 210.634 65.728C210.431 65.664 210.191 65.632 209.914 65.632C209.674 65.632 209.458 65.664 209.266 65.728C209.074 65.7867 208.909 65.8694 208.77 65.976C208.637 66.0827 208.533 66.208 208.458 66.352C208.389 66.4907 208.354 66.6427 208.354 66.808C208.354 67.016 208.413 67.1894 208.53 67.328C208.653 67.4667 208.813 67.5867 209.01 67.688C209.207 67.7894 209.431 67.88 209.682 67.96C209.933 68.0347 210.189 68.1174 210.45 68.208C210.717 68.2934 210.975 68.3894 211.226 68.496C211.477 68.6027 211.701 68.736 211.898 68.896C212.095 69.056 212.253 69.2534 212.37 69.488C212.493 69.7174 212.554 69.9947 212.554 70.32C212.554 70.6934 212.487 71.04 212.354 71.36C212.221 71.6747 212.023 71.9494 211.762 72.184C211.501 72.4134 211.181 72.5947 210.802 72.728C210.423 72.8614 209.986 72.928 209.49 72.928C208.925 72.928 208.413 72.8374 207.954 72.656C207.495 72.4694 207.106 72.232 206.786 71.944L207.122 71.4C207.165 71.3307 207.215 71.2774 207.274 71.24C207.333 71.2027 207.407 71.184 207.498 71.184C207.594 71.184 207.695 71.2214 207.802 71.296C207.909 71.3707 208.037 71.4534 208.186 71.544C208.341 71.6347 208.527 71.7174 208.746 71.792C208.965 71.8667 209.237 71.904 209.562 71.904C209.839 71.904 210.082 71.8694 210.29 71.8C210.498 71.7254 210.671 71.6267 210.81 71.504C210.949 71.3814 211.05 71.24 211.114 71.08C211.183 70.92 211.218 70.7494 211.218 70.568C211.218 70.344 211.157 70.16 211.034 70.016C210.917 69.8667 210.759 69.7414 210.562 69.64C210.365 69.5334 210.138 69.4427 209.882 69.368C209.631 69.288 209.373 69.2054 209.106 69.12C208.845 69.0347 208.586 68.9387 208.33 68.832C208.079 68.72 207.855 68.5814 207.658 68.416C207.461 68.2507 207.301 68.048 207.178 67.808C207.061 67.5627 207.002 67.2667 207.002 66.92C207.002 66.6107 207.066 66.3147 207.194 66.032C207.322 65.744 207.509 65.4934 207.754 65.28C207.999 65.0614 208.301 64.888 208.658 64.76C209.015 64.632 209.423 64.568 209.882 64.568C210.415 64.568 210.893 64.6534 211.314 64.824C211.741 64.9894 212.109 65.2187 212.418 65.512L212.098 66.032Z" fill="#ADADAD"/>
<defs>
<clipPath id="clip0_8336_1025">
<rect width="60" height="60" fill="white" transform="translate(20 20)"/>
</clipPath>
<clipPath id="clip1_8336_1025">
<rect width="60" height="60" fill="white" transform="translate(20 20)"/>
</clipPath>
<clipPath id="clip2_8336_1025">
<rect width="60" height="60" fill="white" transform="translate(20 20)"/>
</clipPath>
</defs>
</svg>
