<svg width="321" height="107" viewBox="0 0 321 107" fill="none" xmlns="http://www.w3.org/2000/svg">
<rect width="321" height="107" rx="10" fill="#F4F6FA"/>
<g clip-path="url(#clip0_8336_1049)">
<g clip-path="url(#clip1_8336_1049)">
<g clip-path="url(#clip2_8336_1049)">
<mask id="mask0_8336_1049" style="mask-type:luminance" maskUnits="userSpaceOnUse" x="20" y="20" width="60" height="60">
<path d="M79.8377 20H20.6484V79.1892H79.8377V20Z" fill="white"/>
</mask>
<g mask="url(#mask0_8336_1049)">
<path d="M32.4277 34.1428V50C35.4277 48.9999 42.7992 48.8 48.2849 56C49.5706 58.7143 51.6277 65 49.5706 68.4285L55.5706 71.8571V46.1428L32.4277 34.1428Z" fill="#FDC040"/>
<path d="M79.2379 32.8015L56.1857 20.1433C55.8394 19.9532 55.4194 19.9532 55.0731 20.1433L46.3843 24.9142C46.201 24.9626 46.0298 25.0547 45.888 25.187L32.0213 32.8015C31.6516 33.0042 31.4217 33.3926 31.4217 33.8148V49.1243C29.0825 49.8558 26.9389 51.1459 25.1565 52.9288C20.5107 57.5741 19.3262 64.6594 22.209 70.5593C22.489 71.1328 23.1813 71.3708 23.7548 71.0903C24.3287 70.8099 24.5663 70.1177 24.2863 69.5441C21.8369 64.5311 22.8435 58.5112 26.7912 54.5635C29.26 52.0947 32.542 50.735 36.0332 50.735C39.5243 50.735 42.8064 52.0947 45.2752 54.5635C47.7435 57.0318 49.1032 60.3139 49.1032 63.8051C49.1032 67.2962 47.7435 70.5783 45.2747 73.047C41.3271 76.9947 35.307 78.0013 30.2941 75.5519C29.7206 75.2715 29.0283 75.5095 28.7483 76.0829C28.4679 76.657 28.7055 77.3492 29.2794 77.6291C31.4284 78.6796 33.7342 79.1898 36.0232 79.1898C40.0166 79.1894 43.9566 77.6351 46.9099 74.6818C48.2642 73.3275 49.3344 71.765 50.0917 70.0666L55.0731 72.8018C55.2465 72.8971 55.438 72.9445 55.6294 72.9445C55.8208 72.9445 56.0128 72.8971 56.1857 72.8018L79.2379 60.1441C79.6078 59.9409 79.8376 59.5525 79.8376 59.1307V51.0967C79.8376 50.4582 79.3201 49.9407 78.6815 49.9407C78.043 49.9407 77.5255 50.4582 77.5255 51.0967V58.4466L56.7891 69.8332V47.1549L63.6328 43.3968V49.3541C63.6328 49.7633 63.8486 50.1416 64.2004 50.3494C64.3819 50.4564 64.5851 50.5101 64.7888 50.5101C64.9803 50.5101 65.1722 50.4627 65.346 50.3669L70.2858 47.648C70.6552 47.4448 70.8842 47.0569 70.8842 46.6356V39.4149L77.5255 35.7683V41.8488C77.5255 42.4874 78.043 43.0049 78.6815 43.0049C79.3201 43.0049 79.8376 42.4874 79.8376 41.8488V33.8148C79.8376 33.393 79.6078 33.0042 79.2379 32.8015ZM55.6294 22.4753L76.2796 33.8148L69.7656 37.3918L49.1154 26.0522L55.6294 22.4753ZM55.6294 45.154L34.9792 33.8148L41.7321 30.1065L62.3828 41.4456L55.6294 45.154ZM64.7842 40.127L44.134 28.7879L46.7134 27.3713L67.3641 38.7104L64.7842 40.127ZM46.9099 52.9288C44.0044 50.0233 40.1416 48.4234 36.0332 48.4234C35.256 48.4234 34.4884 48.4807 33.7337 48.5932V35.7683L54.4774 47.159V69.8372L50.877 67.8602C51.2315 66.5551 51.4149 65.1941 51.4149 63.8051C51.4149 59.6966 49.8149 55.8338 46.9099 52.9288ZM68.5726 45.9523L65.9448 47.3987V42.1275L68.5726 40.6847V45.9523Z" fill="#3BB77E"/>
<path d="M78.6814 45.3103C78.3776 45.3103 78.079 45.4341 77.8641 45.649C77.6492 45.8639 77.5254 46.162 77.5254 46.4663C77.5254 46.7703 77.6492 47.0683 77.8641 47.2833C78.079 47.4987 78.3776 47.6219 78.6814 47.6219C78.9854 47.6219 79.2838 47.4987 79.4988 47.2833C79.7138 47.0683 79.8375 46.7703 79.8375 46.4663C79.8375 46.162 79.7138 45.8639 79.4988 45.649C79.2838 45.4341 78.9854 45.3103 78.6814 45.3103Z" fill="#3BB77E"/>
<path d="M32.1451 64.9604C32.4409 64.9604 32.7371 64.8475 32.9624 64.6222C33.414 64.1705 33.414 63.4385 32.9624 62.987L32.1618 62.1859H38.9941C40.6514 62.1859 41.9998 63.5343 41.9998 65.1916C41.9998 66.8488 40.6514 68.1973 38.9941 68.1973H34.9457C34.3072 68.1973 33.7897 68.7148 33.7897 69.3533C33.7897 69.9914 34.3072 70.5089 34.9457 70.5089H38.9941C41.9263 70.5089 44.3119 68.1237 44.3119 65.1916C44.3119 62.2594 41.9263 59.8743 38.9941 59.8743H32.1618L32.9624 59.0731C33.414 58.6216 33.414 57.8896 32.9624 57.438C32.5112 56.9868 31.7792 56.9868 31.3277 57.438L28.5532 60.2125C28.1021 60.664 28.1021 61.396 28.5532 61.8477L31.3277 64.6216C31.5535 64.8475 31.8493 64.9604 32.1451 64.9604Z" fill="#3BB77E"/>
<path d="M25.9751 75.0216C25.6464 75.0216 25.3199 74.8816 25.0918 74.6102L25.0896 74.6075C24.6786 74.1189 24.7419 73.39 25.2305 72.9791C25.7191 72.5677 26.4484 72.631 26.8593 73.1195C27.2698 73.6086 27.2079 74.3388 26.7193 74.7497C26.5021 74.9322 26.2379 75.0216 25.9751 75.0216Z" fill="#3BB77E"/>
</g>
</g>
</g>
</g>
<path d="M102.376 32.61H108.604C108.856 32.61 109.066 32.694 109.234 32.862C109.414 33.03 109.504 33.24 109.504 33.492C109.504 33.744 109.414 33.948 109.234 34.104C109.066 34.26 108.856 34.338 108.604 34.338H103.168L103.348 34.032V38.064L103.186 37.884H107.794C108.046 37.884 108.256 37.968 108.424 38.136C108.604 38.304 108.694 38.52 108.694 38.784C108.694 39.036 108.604 39.24 108.424 39.396C108.256 39.552 108.046 39.63 107.794 39.63H103.222L103.348 39.468V43.626L103.222 43.482H108.604C108.856 43.482 109.066 43.572 109.234 43.752C109.414 43.92 109.504 44.118 109.504 44.346C109.504 44.598 109.414 44.808 109.234 44.976C109.066 45.132 108.856 45.21 108.604 45.21H102.376C102.124 45.21 101.908 45.126 101.728 44.958C101.548 44.778 101.458 44.556 101.458 44.292V33.528C101.458 33.264 101.548 33.048 101.728 32.88C101.908 32.7 102.124 32.61 102.376 32.61ZM119.301 35.598C119.565 35.598 119.781 35.688 119.949 35.868C120.117 36.036 120.201 36.252 120.201 36.516V44.292C120.201 44.556 120.117 44.778 119.949 44.958C119.781 45.126 119.565 45.21 119.301 45.21C119.049 45.21 118.833 45.126 118.653 44.958C118.485 44.778 118.401 44.556 118.401 44.292V42.996L118.779 43.05C118.779 43.266 118.689 43.506 118.509 43.77C118.341 44.034 118.107 44.292 117.807 44.544C117.507 44.784 117.153 44.988 116.745 45.156C116.337 45.312 115.899 45.39 115.431 45.39C114.603 45.39 113.859 45.18 113.199 44.76C112.539 44.328 112.017 43.74 111.633 42.996C111.249 42.252 111.057 41.406 111.057 40.458C111.057 39.486 111.249 38.634 111.633 37.902C112.017 37.158 112.533 36.576 113.181 36.156C113.841 35.736 114.573 35.526 115.377 35.526C115.893 35.526 116.367 35.61 116.799 35.778C117.243 35.946 117.627 36.162 117.951 36.426C118.275 36.69 118.521 36.972 118.689 37.272C118.869 37.56 118.959 37.836 118.959 38.1L118.401 38.154V36.516C118.401 36.264 118.485 36.048 118.653 35.868C118.833 35.688 119.049 35.598 119.301 35.598ZM115.629 43.734C116.193 43.734 116.691 43.59 117.123 43.302C117.555 43.014 117.891 42.624 118.131 42.132C118.371 41.628 118.491 41.07 118.491 40.458C118.491 39.834 118.371 39.276 118.131 38.784C117.891 38.292 117.555 37.902 117.123 37.614C116.691 37.326 116.193 37.182 115.629 37.182C115.077 37.182 114.585 37.326 114.153 37.614C113.733 37.902 113.397 38.292 113.145 38.784C112.905 39.276 112.785 39.834 112.785 40.458C112.785 41.07 112.905 41.628 113.145 42.132C113.397 42.624 113.733 43.014 114.153 43.302C114.585 43.59 115.077 43.734 115.629 43.734ZM122.165 43.734C122.057 43.566 122.009 43.374 122.021 43.158C122.033 42.93 122.159 42.738 122.399 42.582C122.567 42.474 122.741 42.432 122.921 42.456C123.113 42.468 123.293 42.558 123.461 42.726C123.797 43.098 124.169 43.392 124.577 43.608C124.997 43.824 125.501 43.932 126.089 43.932C126.329 43.92 126.575 43.884 126.827 43.824C127.079 43.752 127.295 43.632 127.475 43.464C127.655 43.284 127.745 43.026 127.745 42.69C127.745 42.39 127.649 42.15 127.457 41.97C127.265 41.79 127.013 41.646 126.701 41.538C126.389 41.418 126.053 41.31 125.693 41.214C125.309 41.106 124.919 40.986 124.523 40.854C124.139 40.722 123.791 40.554 123.479 40.35C123.167 40.134 122.909 39.858 122.705 39.522C122.513 39.186 122.417 38.772 122.417 38.28C122.417 37.716 122.573 37.23 122.885 36.822C123.209 36.414 123.623 36.096 124.127 35.868C124.643 35.64 125.201 35.526 125.801 35.526C126.149 35.526 126.515 35.574 126.899 35.67C127.283 35.754 127.655 35.892 128.015 36.084C128.375 36.276 128.687 36.528 128.951 36.84C129.071 36.996 129.137 37.182 129.149 37.398C129.173 37.614 129.077 37.806 128.861 37.974C128.717 38.094 128.543 38.148 128.339 38.136C128.135 38.124 127.967 38.058 127.835 37.938C127.607 37.65 127.313 37.428 126.953 37.272C126.593 37.104 126.185 37.02 125.729 37.02C125.501 37.02 125.261 37.056 125.009 37.128C124.769 37.188 124.565 37.302 124.397 37.47C124.229 37.638 124.145 37.884 124.145 38.208C124.145 38.508 124.241 38.748 124.433 38.928C124.637 39.108 124.901 39.258 125.225 39.378C125.549 39.498 125.903 39.606 126.287 39.702C126.659 39.798 127.025 39.912 127.385 40.044C127.757 40.176 128.087 40.35 128.375 40.566C128.675 40.77 128.915 41.04 129.095 41.376C129.287 41.7 129.383 42.114 129.383 42.618C129.383 43.206 129.209 43.71 128.861 44.13C128.525 44.538 128.093 44.85 127.565 45.066C127.049 45.282 126.503 45.39 125.927 45.39C125.243 45.39 124.559 45.27 123.875 45.03C123.203 44.778 122.633 44.346 122.165 43.734ZM138.357 35.67C138.621 35.67 138.837 35.76 139.005 35.94C139.173 36.108 139.257 36.324 139.257 36.588V44.328C139.257 45.384 139.053 46.242 138.645 46.902C138.249 47.562 137.709 48.042 137.025 48.342C136.353 48.654 135.591 48.81 134.739 48.81C134.307 48.81 133.875 48.768 133.443 48.684C133.011 48.612 132.657 48.504 132.381 48.36C132.093 48.228 131.889 48.066 131.769 47.874C131.649 47.682 131.631 47.472 131.715 47.244C131.799 46.956 131.943 46.758 132.147 46.65C132.351 46.554 132.561 46.548 132.777 46.632C132.981 46.716 133.251 46.824 133.587 46.956C133.923 47.088 134.307 47.154 134.739 47.154C135.327 47.154 135.825 47.058 136.233 46.866C136.641 46.674 136.947 46.374 137.151 45.966C137.367 45.558 137.475 45.03 137.475 44.382V43.14L137.763 43.572C137.571 43.968 137.319 44.298 137.007 44.562C136.695 44.826 136.323 45.03 135.891 45.174C135.471 45.318 135.003 45.39 134.487 45.39C133.827 45.39 133.257 45.246 132.777 44.958C132.309 44.658 131.949 44.25 131.697 43.734C131.445 43.206 131.319 42.606 131.319 41.934V36.588C131.319 36.324 131.403 36.108 131.571 35.94C131.739 35.76 131.955 35.67 132.219 35.67C132.471 35.67 132.681 35.76 132.849 35.94C133.029 36.108 133.119 36.324 133.119 36.588V41.448C133.119 42.24 133.293 42.822 133.641 43.194C133.989 43.554 134.505 43.734 135.189 43.734C135.645 43.734 136.041 43.638 136.377 43.446C136.713 43.254 136.977 42.99 137.169 42.654C137.361 42.306 137.457 41.904 137.457 41.448V36.588C137.457 36.324 137.541 36.108 137.709 35.94C137.889 35.76 138.105 35.67 138.357 35.67ZM147.687 45.21C147.423 45.21 147.207 45.126 147.039 44.958C146.871 44.778 146.787 44.556 146.787 44.292V36.66C146.787 36.396 146.871 36.18 147.039 36.012C147.207 35.832 147.423 35.742 147.687 35.742C147.939 35.742 148.149 35.832 148.317 36.012C148.497 36.18 148.587 36.396 148.587 36.66V38.676L148.407 37.902C148.503 37.566 148.647 37.254 148.839 36.966C149.043 36.678 149.283 36.426 149.559 36.21C149.835 35.994 150.141 35.826 150.477 35.706C150.825 35.586 151.185 35.526 151.557 35.526C151.869 35.526 152.139 35.61 152.367 35.778C152.595 35.946 152.709 36.156 152.709 36.408C152.709 36.732 152.625 36.972 152.457 37.128C152.289 37.272 152.103 37.344 151.899 37.344C151.719 37.344 151.545 37.308 151.377 37.236C151.209 37.152 151.011 37.11 150.783 37.11C150.531 37.11 150.273 37.176 150.009 37.308C149.745 37.44 149.505 37.638 149.289 37.902C149.073 38.154 148.899 38.454 148.767 38.802C148.647 39.15 148.587 39.54 148.587 39.972V44.292C148.587 44.556 148.497 44.778 148.317 44.958C148.149 45.126 147.939 45.21 147.687 45.21ZM158.316 45.39C157.32 45.39 156.456 45.186 155.724 44.778C154.992 44.358 154.422 43.788 154.014 43.068C153.618 42.336 153.42 41.502 153.42 40.566C153.42 39.51 153.63 38.61 154.05 37.866C154.482 37.11 155.04 36.534 155.724 36.138C156.408 35.73 157.134 35.526 157.902 35.526C158.49 35.526 159.048 35.646 159.576 35.886C160.104 36.114 160.572 36.438 160.98 36.858C161.4 37.266 161.73 37.752 161.97 38.316C162.21 38.868 162.336 39.474 162.348 40.134C162.336 40.374 162.24 40.572 162.06 40.728C161.88 40.884 161.67 40.962 161.43 40.962H154.428L153.996 39.432H160.764L160.422 39.756V39.306C160.398 38.886 160.26 38.52 160.008 38.208C159.756 37.884 159.444 37.638 159.072 37.47C158.7 37.29 158.31 37.2 157.902 37.2C157.542 37.2 157.194 37.26 156.858 37.38C156.534 37.488 156.24 37.668 155.976 37.92C155.724 38.172 155.52 38.508 155.364 38.928C155.22 39.336 155.148 39.846 155.148 40.458C155.148 41.118 155.286 41.694 155.562 42.186C155.838 42.678 156.21 43.062 156.678 43.338C157.146 43.602 157.662 43.734 158.226 43.734C158.67 43.734 159.036 43.692 159.324 43.608C159.612 43.512 159.852 43.398 160.044 43.266C160.236 43.134 160.404 43.008 160.548 42.888C160.728 42.78 160.908 42.726 161.088 42.726C161.304 42.726 161.484 42.804 161.628 42.96C161.772 43.104 161.844 43.278 161.844 43.482C161.844 43.746 161.712 43.986 161.448 44.202C161.124 44.514 160.674 44.79 160.098 45.03C159.534 45.27 158.94 45.39 158.316 45.39ZM164.257 35.85H168.487C168.727 35.85 168.925 35.934 169.081 36.102C169.249 36.258 169.333 36.456 169.333 36.696C169.333 36.924 169.249 37.116 169.081 37.272C168.925 37.428 168.727 37.506 168.487 37.506H164.257C164.017 37.506 163.813 37.428 163.645 37.272C163.489 37.104 163.411 36.906 163.411 36.678C163.411 36.438 163.489 36.24 163.645 36.084C163.813 35.928 164.017 35.85 164.257 35.85ZM166.147 33.51C166.411 33.51 166.627 33.6 166.795 33.78C166.963 33.948 167.047 34.164 167.047 34.428V42.78C167.047 42.996 167.083 43.17 167.155 43.302C167.227 43.434 167.323 43.524 167.443 43.572C167.575 43.62 167.707 43.644 167.839 43.644C167.971 43.644 168.085 43.62 168.181 43.572C168.289 43.524 168.415 43.5 168.559 43.5C168.703 43.5 168.835 43.566 168.955 43.698C169.075 43.83 169.135 44.01 169.135 44.238C169.135 44.526 168.979 44.76 168.667 44.94C168.355 45.12 168.019 45.21 167.659 45.21C167.455 45.21 167.215 45.192 166.939 45.156C166.663 45.12 166.393 45.03 166.129 44.886C165.877 44.742 165.667 44.514 165.499 44.202C165.331 43.878 165.247 43.428 165.247 42.852V34.428C165.247 34.164 165.331 33.948 165.499 33.78C165.679 33.6 165.895 33.51 166.147 33.51ZM178.382 35.742C178.634 35.742 178.844 35.832 179.012 36.012C179.192 36.18 179.282 36.396 179.282 36.66V41.394C179.282 42.642 178.934 43.62 178.238 44.328C177.542 45.024 176.558 45.372 175.286 45.372C174.026 45.372 173.048 45.024 172.352 44.328C171.668 43.62 171.326 42.642 171.326 41.394V36.66C171.326 36.396 171.41 36.18 171.578 36.012C171.746 35.832 171.962 35.742 172.226 35.742C172.478 35.742 172.688 35.832 172.856 36.012C173.036 36.18 173.126 36.396 173.126 36.66V41.394C173.126 42.174 173.306 42.756 173.666 43.14C174.038 43.524 174.578 43.716 175.286 43.716C176.006 43.716 176.552 43.524 176.924 43.14C177.296 42.756 177.482 42.174 177.482 41.394V36.66C177.482 36.396 177.566 36.18 177.734 36.012C177.902 35.832 178.118 35.742 178.382 35.742ZM182.685 45.21C182.421 45.21 182.205 45.126 182.037 44.958C181.869 44.778 181.785 44.556 181.785 44.292V36.66C181.785 36.396 181.869 36.18 182.037 36.012C182.205 35.832 182.421 35.742 182.685 35.742C182.937 35.742 183.147 35.832 183.315 36.012C183.495 36.18 183.585 36.396 183.585 36.66V38.676L183.405 37.902C183.501 37.566 183.645 37.254 183.837 36.966C184.041 36.678 184.281 36.426 184.557 36.21C184.833 35.994 185.139 35.826 185.475 35.706C185.823 35.586 186.183 35.526 186.555 35.526C186.867 35.526 187.137 35.61 187.365 35.778C187.593 35.946 187.707 36.156 187.707 36.408C187.707 36.732 187.623 36.972 187.455 37.128C187.287 37.272 187.101 37.344 186.897 37.344C186.717 37.344 186.543 37.308 186.375 37.236C186.207 37.152 186.009 37.11 185.781 37.11C185.529 37.11 185.271 37.176 185.007 37.308C184.743 37.44 184.503 37.638 184.287 37.902C184.071 38.154 183.897 38.454 183.765 38.802C183.645 39.15 183.585 39.54 183.585 39.972V44.292C183.585 44.556 183.495 44.778 183.315 44.958C183.147 45.126 182.937 45.21 182.685 45.21ZM194.187 35.526C195.039 35.526 195.699 35.706 196.167 36.066C196.635 36.414 196.959 36.888 197.139 37.488C197.331 38.076 197.427 38.736 197.427 39.468V44.292C197.427 44.556 197.337 44.778 197.157 44.958C196.989 45.126 196.779 45.21 196.527 45.21C196.263 45.21 196.047 45.126 195.879 44.958C195.711 44.778 195.627 44.556 195.627 44.292V39.486C195.627 39.054 195.567 38.67 195.447 38.334C195.327 37.986 195.117 37.71 194.817 37.506C194.529 37.29 194.121 37.182 193.593 37.182C193.101 37.182 192.669 37.29 192.297 37.506C191.925 37.71 191.631 37.986 191.415 38.334C191.211 38.67 191.109 39.054 191.109 39.486V44.292C191.109 44.556 191.019 44.778 190.839 44.958C190.671 45.126 190.461 45.21 190.209 45.21C189.945 45.21 189.729 45.126 189.561 44.958C189.393 44.778 189.309 44.556 189.309 44.292V36.66C189.309 36.396 189.393 36.18 189.561 36.012C189.729 35.832 189.945 35.742 190.209 35.742C190.461 35.742 190.671 35.832 190.839 36.012C191.019 36.18 191.109 36.396 191.109 36.66V37.668L190.785 37.848C190.869 37.584 191.013 37.32 191.217 37.056C191.433 36.78 191.691 36.528 191.991 36.3C192.291 36.06 192.627 35.874 192.999 35.742C193.371 35.598 193.767 35.526 194.187 35.526ZM199.368 43.734C199.26 43.566 199.212 43.374 199.224 43.158C199.236 42.93 199.362 42.738 199.602 42.582C199.77 42.474 199.944 42.432 200.124 42.456C200.316 42.468 200.496 42.558 200.664 42.726C201 43.098 201.372 43.392 201.78 43.608C202.2 43.824 202.704 43.932 203.292 43.932C203.532 43.92 203.778 43.884 204.03 43.824C204.282 43.752 204.498 43.632 204.678 43.464C204.858 43.284 204.948 43.026 204.948 42.69C204.948 42.39 204.852 42.15 204.66 41.97C204.468 41.79 204.216 41.646 203.904 41.538C203.592 41.418 203.256 41.31 202.896 41.214C202.512 41.106 202.122 40.986 201.726 40.854C201.342 40.722 200.994 40.554 200.682 40.35C200.37 40.134 200.112 39.858 199.908 39.522C199.716 39.186 199.62 38.772 199.62 38.28C199.62 37.716 199.776 37.23 200.088 36.822C200.412 36.414 200.826 36.096 201.33 35.868C201.846 35.64 202.404 35.526 203.004 35.526C203.352 35.526 203.718 35.574 204.102 35.67C204.486 35.754 204.858 35.892 205.218 36.084C205.578 36.276 205.89 36.528 206.154 36.84C206.274 36.996 206.34 37.182 206.352 37.398C206.376 37.614 206.28 37.806 206.064 37.974C205.92 38.094 205.746 38.148 205.542 38.136C205.338 38.124 205.17 38.058 205.038 37.938C204.81 37.65 204.516 37.428 204.156 37.272C203.796 37.104 203.388 37.02 202.932 37.02C202.704 37.02 202.464 37.056 202.212 37.128C201.972 37.188 201.768 37.302 201.6 37.47C201.432 37.638 201.348 37.884 201.348 38.208C201.348 38.508 201.444 38.748 201.636 38.928C201.84 39.108 202.104 39.258 202.428 39.378C202.752 39.498 203.106 39.606 203.49 39.702C203.862 39.798 204.228 39.912 204.588 40.044C204.96 40.176 205.29 40.35 205.578 40.566C205.878 40.77 206.118 41.04 206.298 41.376C206.49 41.7 206.586 42.114 206.586 42.618C206.586 43.206 206.412 43.71 206.064 44.13C205.728 44.538 205.296 44.85 204.768 45.066C204.252 45.282 203.706 45.39 203.13 45.39C202.446 45.39 201.762 45.27 201.078 45.03C200.406 44.778 199.836 44.346 199.368 43.734Z" fill="#242424"/>
<path d="M116.32 61.336L112.744 72.8H111.352L108.448 64.056C108.421 63.9707 108.395 63.88 108.368 63.784C108.347 63.688 108.323 63.5867 108.296 63.48C108.269 63.5867 108.243 63.688 108.216 63.784C108.189 63.88 108.163 63.9707 108.136 64.056L105.216 72.8H103.824L100.248 61.336H101.536C101.675 61.336 101.789 61.3707 101.88 61.44C101.976 61.5094 102.037 61.5974 102.064 61.704L104.432 69.672C104.469 69.816 104.504 69.9707 104.536 70.136C104.573 70.3014 104.608 70.4774 104.64 70.664C104.677 70.4774 104.715 70.3014 104.752 70.136C104.795 69.9654 104.84 69.8107 104.888 69.672L107.584 61.704C107.616 61.6134 107.677 61.5307 107.768 61.456C107.864 61.376 107.979 61.336 108.112 61.336H108.56C108.699 61.336 108.811 61.3707 108.896 61.44C108.981 61.5094 109.045 61.5974 109.088 61.704L111.776 69.672C111.824 69.8107 111.867 69.96 111.904 70.12C111.947 70.28 111.987 70.448 112.024 70.624C112.051 70.448 112.08 70.28 112.112 70.12C112.144 69.96 112.179 69.8107 112.216 69.672L114.592 61.704C114.619 61.608 114.677 61.5227 114.768 61.448C114.864 61.3734 114.979 61.336 115.112 61.336H116.32ZM119.132 64.696V72.8H117.708V64.696H119.132ZM119.436 62.152C119.436 62.2907 119.407 62.4214 119.348 62.544C119.295 62.6614 119.22 62.768 119.124 62.864C119.033 62.9547 118.924 63.0267 118.796 63.08C118.673 63.1334 118.543 63.16 118.404 63.16C118.265 63.16 118.135 63.1334 118.012 63.08C117.895 63.0267 117.791 62.9547 117.7 62.864C117.609 62.768 117.537 62.6614 117.484 62.544C117.431 62.4214 117.404 62.2907 117.404 62.152C117.404 62.0134 117.431 61.8827 117.484 61.76C117.537 61.632 117.609 61.5227 117.7 61.432C117.791 61.336 117.895 61.2614 118.012 61.208C118.135 61.1547 118.265 61.128 118.404 61.128C118.543 61.128 118.673 61.1547 118.796 61.208C118.924 61.2614 119.033 61.336 119.124 61.432C119.22 61.5227 119.295 61.632 119.348 61.76C119.407 61.8827 119.436 62.0134 119.436 62.152ZM123.96 72.928C123.32 72.928 122.826 72.7494 122.48 72.392C122.138 72.0347 121.968 71.52 121.968 70.848V65.888H120.992C120.906 65.888 120.834 65.864 120.776 65.816C120.717 65.7627 120.688 65.6827 120.688 65.576V65.008L122.016 64.84L122.344 62.336C122.36 62.256 122.394 62.192 122.448 62.144C122.506 62.0907 122.581 62.064 122.672 62.064H123.392V64.856H125.736V65.888H123.392V70.752C123.392 71.0934 123.474 71.3467 123.64 71.512C123.805 71.6774 124.018 71.76 124.28 71.76C124.429 71.76 124.557 71.7414 124.664 71.704C124.776 71.6614 124.872 71.616 124.952 71.568C125.032 71.52 125.098 71.4774 125.152 71.44C125.21 71.3974 125.261 71.376 125.304 71.376C125.378 71.376 125.445 71.4214 125.504 71.512L125.92 72.192C125.674 72.4214 125.378 72.6027 125.032 72.736C124.685 72.864 124.328 72.928 123.96 72.928ZM128.638 65.776C128.985 65.408 129.369 65.1147 129.79 64.896C130.211 64.6774 130.697 64.568 131.246 64.568C131.689 64.568 132.078 64.6427 132.414 64.792C132.755 64.936 133.038 65.144 133.262 65.416C133.491 65.6827 133.665 66.0054 133.782 66.384C133.899 66.7627 133.958 67.1814 133.958 67.64V72.8H132.526V67.64C132.526 67.0267 132.385 66.552 132.102 66.216C131.825 65.8747 131.401 65.704 130.83 65.704C130.409 65.704 130.014 65.8054 129.646 66.008C129.283 66.2107 128.947 66.4854 128.638 66.832V72.8H127.206V61.016H128.638V65.776ZM137.632 64.696V72.8H136.208V64.696H137.632ZM137.936 62.152C137.936 62.2907 137.907 62.4214 137.848 62.544C137.795 62.6614 137.72 62.768 137.624 62.864C137.533 62.9547 137.424 63.0267 137.296 63.08C137.173 63.1334 137.043 63.16 136.904 63.16C136.765 63.16 136.635 63.1334 136.512 63.08C136.395 63.0267 136.291 62.9547 136.2 62.864C136.109 62.768 136.037 62.6614 135.984 62.544C135.931 62.4214 135.904 62.2907 135.904 62.152C135.904 62.0134 135.931 61.8827 135.984 61.76C136.037 61.632 136.109 61.5227 136.2 61.432C136.291 61.336 136.395 61.2614 136.512 61.208C136.635 61.1547 136.765 61.128 136.904 61.128C137.043 61.128 137.173 61.1547 137.296 61.208C137.424 61.2614 137.533 61.336 137.624 61.432C137.72 61.5227 137.795 61.632 137.848 61.76C137.907 61.8827 137.936 62.0134 137.936 62.152ZM141.316 65.872C141.492 65.6747 141.678 65.496 141.876 65.336C142.073 65.176 142.281 65.04 142.5 64.928C142.724 64.8107 142.958 64.7227 143.204 64.664C143.454 64.6 143.724 64.568 144.012 64.568C144.454 64.568 144.844 64.6427 145.18 64.792C145.521 64.936 145.804 65.144 146.028 65.416C146.257 65.6827 146.43 66.0054 146.548 66.384C146.665 66.7627 146.724 67.1814 146.724 67.64V72.8H145.292V67.64C145.292 67.0267 145.15 66.552 144.868 66.216C144.59 65.8747 144.166 65.704 143.596 65.704C143.174 65.704 142.78 65.8054 142.412 66.008C142.049 66.2107 141.713 66.4854 141.404 66.832V72.8H139.972V64.696H140.828C141.03 64.696 141.156 64.7947 141.204 64.992L141.316 65.872ZM152.899 64.44C152.974 63.9174 153.118 63.456 153.331 63.056C153.545 62.6507 153.814 62.312 154.139 62.04C154.47 61.768 154.846 61.5627 155.267 61.424C155.694 61.28 156.153 61.208 156.643 61.208C157.129 61.208 157.577 61.2774 157.987 61.416C158.398 61.5547 158.75 61.752 159.043 62.008C159.342 62.264 159.574 62.5734 159.739 62.936C159.905 63.2987 159.987 63.7014 159.987 64.144C159.987 64.5067 159.939 64.832 159.843 65.12C159.753 65.4027 159.619 65.6507 159.443 65.864C159.273 66.0774 159.065 66.2587 158.819 66.408C158.574 66.5574 158.299 66.68 157.995 66.776C158.742 66.968 159.302 67.2987 159.675 67.768C160.054 68.232 160.243 68.8134 160.243 69.512C160.243 70.04 160.142 70.5147 159.939 70.936C159.742 71.3574 159.47 71.7174 159.123 72.016C158.777 72.3094 158.371 72.536 157.907 72.696C157.449 72.8507 156.955 72.928 156.427 72.928C155.819 72.928 155.299 72.8534 154.867 72.704C154.435 72.5494 154.07 72.3387 153.771 72.072C153.473 71.8054 153.227 71.4907 153.035 71.128C152.843 70.76 152.681 70.3627 152.547 69.936L153.163 69.68C153.323 69.6107 153.478 69.592 153.627 69.624C153.782 69.656 153.894 69.744 153.963 69.888C154.033 70.0374 154.118 70.216 154.219 70.424C154.326 70.632 154.47 70.832 154.651 71.024C154.833 71.216 155.062 71.3787 155.339 71.512C155.622 71.6454 155.979 71.712 156.411 71.712C156.811 71.712 157.161 71.648 157.459 71.52C157.763 71.3867 158.014 71.216 158.211 71.008C158.414 70.8 158.566 70.568 158.667 70.312C158.769 70.056 158.819 69.8027 158.819 69.552C158.819 69.2427 158.779 68.96 158.699 68.704C158.619 68.448 158.47 68.2267 158.251 68.04C158.033 67.8534 157.731 67.7067 157.347 67.6C156.969 67.4934 156.481 67.44 155.883 67.44V66.408C156.374 66.4027 156.79 66.3494 157.131 66.248C157.478 66.1467 157.758 66.008 157.971 65.832C158.19 65.656 158.347 65.4454 158.443 65.2C158.545 64.9547 158.595 64.6827 158.595 64.384C158.595 64.0534 158.542 63.7654 158.435 63.52C158.334 63.2747 158.193 63.072 158.011 62.912C157.83 62.752 157.614 62.632 157.363 62.552C157.118 62.472 156.851 62.432 156.563 62.432C156.275 62.432 156.006 62.4747 155.755 62.56C155.51 62.6454 155.291 62.7654 155.099 62.92C154.913 63.0694 154.755 63.248 154.627 63.456C154.499 63.664 154.409 63.8934 154.355 64.144C154.286 64.3307 154.198 64.456 154.091 64.52C153.99 64.5787 153.841 64.5947 153.643 64.568L152.899 64.44ZM169.941 67.072C169.941 68.0747 169.831 68.944 169.613 69.68C169.399 70.4107 169.106 71.016 168.733 71.496C168.359 71.976 167.917 72.3334 167.405 72.568C166.898 72.8027 166.354 72.92 165.773 72.92C165.186 72.92 164.639 72.8027 164.133 72.568C163.631 72.3334 163.194 71.976 162.821 71.496C162.447 71.016 162.154 70.4107 161.941 69.68C161.727 68.944 161.621 68.0747 161.621 67.072C161.621 66.0694 161.727 65.2 161.941 64.464C162.154 63.728 162.447 63.12 162.821 62.64C163.194 62.1547 163.631 61.7947 164.133 61.56C164.639 61.3254 165.186 61.208 165.773 61.208C166.354 61.208 166.898 61.3254 167.405 61.56C167.917 61.7947 168.359 62.1547 168.733 62.64C169.106 63.12 169.399 63.728 169.613 64.464C169.831 65.2 169.941 66.0694 169.941 67.072ZM168.461 67.072C168.461 66.1974 168.386 65.464 168.237 64.872C168.093 64.2747 167.895 63.7947 167.645 63.432C167.399 63.0694 167.114 62.8107 166.789 62.656C166.463 62.496 166.125 62.416 165.773 62.416C165.421 62.416 165.082 62.496 164.757 62.656C164.431 62.8107 164.146 63.0694 163.901 63.432C163.655 63.7947 163.458 64.2747 163.309 64.872C163.165 65.464 163.093 66.1974 163.093 67.072C163.093 67.9467 163.165 68.68 163.309 69.272C163.458 69.864 163.655 70.3414 163.901 70.704C164.146 71.0667 164.431 71.328 164.757 71.488C165.082 71.6427 165.421 71.72 165.773 71.72C166.125 71.72 166.463 71.6427 166.789 71.488C167.114 71.328 167.399 71.0667 167.645 70.704C167.895 70.3414 168.093 69.864 168.237 69.272C168.386 68.68 168.461 67.9467 168.461 67.072ZM180.924 66.624C180.657 66.2667 180.369 66.0187 180.06 65.88C179.75 65.736 179.404 65.664 179.02 65.664C178.268 65.664 177.689 65.9334 177.284 66.472C176.878 67.0107 176.676 67.7787 176.676 68.776C176.676 69.304 176.721 69.7574 176.812 70.136C176.902 70.5094 177.036 70.8187 177.212 71.064C177.388 71.304 177.604 71.48 177.86 71.592C178.116 71.704 178.406 71.76 178.732 71.76C179.201 71.76 179.609 71.6534 179.956 71.44C180.308 71.2267 180.63 70.9254 180.924 70.536V66.624ZM182.348 61.016V72.8H181.5C181.297 72.8 181.169 72.7014 181.116 72.504L180.988 71.52C180.641 71.936 180.246 72.272 179.804 72.528C179.361 72.784 178.849 72.912 178.268 72.912C177.804 72.912 177.382 72.824 177.004 72.648C176.625 72.4667 176.302 72.2027 176.036 71.856C175.769 71.5094 175.564 71.0774 175.42 70.56C175.276 70.0427 175.204 69.448 175.204 68.776C175.204 68.1787 175.284 67.624 175.444 67.112C175.604 66.5947 175.833 66.1467 176.132 65.768C176.43 65.3894 176.796 65.0934 177.228 64.88C177.665 64.6614 178.156 64.552 178.7 64.552C179.196 64.552 179.62 64.6374 179.972 64.808C180.329 64.9734 180.646 65.2054 180.924 65.504V61.016H182.348ZM188.989 69.152C188.333 69.1734 187.773 69.2267 187.309 69.312C186.85 69.392 186.474 69.4987 186.181 69.632C185.893 69.7654 185.682 69.9227 185.549 70.104C185.421 70.2854 185.357 70.488 185.357 70.712C185.357 70.9254 185.391 71.1094 185.461 71.264C185.53 71.4187 185.623 71.5467 185.741 71.648C185.863 71.744 186.005 71.816 186.165 71.864C186.33 71.9067 186.506 71.928 186.693 71.928C186.943 71.928 187.173 71.904 187.381 71.856C187.589 71.8027 187.783 71.728 187.965 71.632C188.151 71.536 188.327 71.4214 188.493 71.288C188.663 71.1547 188.829 71.0027 188.989 70.832V69.152ZM184.389 65.84C184.837 65.408 185.319 65.0854 185.837 64.872C186.354 64.6587 186.927 64.552 187.557 64.552C188.01 64.552 188.413 64.6267 188.765 64.776C189.117 64.9254 189.413 65.1334 189.653 65.4C189.893 65.6667 190.074 65.9894 190.197 66.368C190.319 66.7467 190.381 67.1627 190.381 67.616V72.8H189.749C189.61 72.8 189.503 72.7787 189.429 72.736C189.354 72.688 189.295 72.5974 189.253 72.464L189.093 71.696C188.879 71.8934 188.671 72.0694 188.469 72.224C188.266 72.3734 188.053 72.5014 187.829 72.608C187.605 72.7094 187.365 72.7867 187.109 72.84C186.858 72.8987 186.578 72.928 186.269 72.928C185.954 72.928 185.658 72.8854 185.381 72.8C185.103 72.7094 184.861 72.576 184.653 72.4C184.45 72.224 184.287 72.0027 184.165 71.736C184.047 71.464 183.989 71.144 183.989 70.776C183.989 70.456 184.077 70.1494 184.253 69.856C184.429 69.5574 184.714 69.2934 185.109 69.064C185.503 68.8347 186.018 68.648 186.653 68.504C187.287 68.3547 188.066 68.2694 188.989 68.248V67.616C188.989 66.9867 188.853 66.512 188.581 66.192C188.309 65.8667 187.911 65.704 187.389 65.704C187.037 65.704 186.741 65.7494 186.501 65.84C186.266 65.9254 186.061 66.024 185.885 66.136C185.714 66.2427 185.565 66.3414 185.437 66.432C185.314 66.5174 185.191 66.56 185.069 66.56C184.973 66.56 184.89 66.536 184.821 66.488C184.751 66.4347 184.693 66.3707 184.645 66.296L184.389 65.84ZM199.354 64.696L194.834 75.192C194.786 75.2987 194.725 75.384 194.65 75.448C194.581 75.512 194.472 75.544 194.322 75.544H193.266L194.746 72.328L191.402 64.696H192.634C192.757 64.696 192.853 64.728 192.922 64.792C192.997 64.8507 193.048 64.9174 193.074 64.992L195.242 70.096C195.328 70.32 195.4 70.5547 195.458 70.8C195.533 70.5494 195.613 70.312 195.698 70.088L197.802 64.992C197.834 64.9067 197.888 64.8374 197.962 64.784C198.042 64.7254 198.13 64.696 198.226 64.696H199.354ZM205.192 66.032C205.128 66.1494 205.029 66.208 204.896 66.208C204.816 66.208 204.725 66.1787 204.624 66.12C204.522 66.0614 204.397 65.9974 204.248 65.928C204.104 65.8534 203.93 65.7867 203.728 65.728C203.525 65.664 203.285 65.632 203.008 65.632C202.768 65.632 202.552 65.664 202.36 65.728C202.168 65.7867 202.002 65.8694 201.864 65.976C201.73 66.0827 201.626 66.208 201.552 66.352C201.482 66.4907 201.448 66.6427 201.448 66.808C201.448 67.016 201.506 67.1894 201.624 67.328C201.746 67.4667 201.906 67.5867 202.104 67.688C202.301 67.7894 202.525 67.88 202.776 67.96C203.026 68.0347 203.282 68.1174 203.544 68.208C203.81 68.2934 204.069 68.3894 204.32 68.496C204.57 68.6027 204.794 68.736 204.992 68.896C205.189 69.056 205.346 69.2534 205.464 69.488C205.586 69.7174 205.648 69.9947 205.648 70.32C205.648 70.6934 205.581 71.04 205.448 71.36C205.314 71.6747 205.117 71.9494 204.856 72.184C204.594 72.4134 204.274 72.5947 203.896 72.728C203.517 72.8614 203.08 72.928 202.584 72.928C202.018 72.928 201.506 72.8374 201.048 72.656C200.589 72.4694 200.2 72.232 199.88 71.944L200.216 71.4C200.258 71.3307 200.309 71.2774 200.368 71.24C200.426 71.2027 200.501 71.184 200.592 71.184C200.688 71.184 200.789 71.2214 200.896 71.296C201.002 71.3707 201.13 71.4534 201.28 71.544C201.434 71.6347 201.621 71.7174 201.84 71.792C202.058 71.8667 202.33 71.904 202.656 71.904C202.933 71.904 203.176 71.8694 203.384 71.8C203.592 71.7254 203.765 71.6267 203.904 71.504C204.042 71.3814 204.144 71.24 204.208 71.08C204.277 70.92 204.312 70.7494 204.312 70.568C204.312 70.344 204.25 70.16 204.128 70.016C204.01 69.8667 203.853 69.7414 203.656 69.64C203.458 69.5334 203.232 69.4427 202.976 69.368C202.725 69.288 202.466 69.2054 202.2 69.12C201.938 69.0347 201.68 68.9387 201.424 68.832C201.173 68.72 200.949 68.5814 200.752 68.416C200.554 68.2507 200.394 68.048 200.272 67.808C200.154 67.5627 200.096 67.2667 200.096 66.92C200.096 66.6107 200.16 66.3147 200.288 66.032C200.416 65.744 200.602 65.4934 200.848 65.28C201.093 65.0614 201.394 64.888 201.752 64.76C202.109 64.632 202.517 64.568 202.976 64.568C203.509 64.568 203.986 64.6534 204.408 64.824C204.834 64.9894 205.202 65.2187 205.512 65.512L205.192 66.032Z" fill="#ADADAD"/>
<defs>
<clipPath id="clip0_8336_1049">
<rect width="60" height="60" fill="white" transform="translate(20 20)"/>
</clipPath>
<clipPath id="clip1_8336_1049">
<rect width="60" height="60" fill="white" transform="translate(20 20)"/>
</clipPath>
<clipPath id="clip2_8336_1049">
<rect width="60" height="60" fill="white" transform="translate(20 20)"/>
</clipPath>
</defs>
</svg>
