<svg width="321" height="107" viewBox="0 0 321 107" fill="none" xmlns="http://www.w3.org/2000/svg">
<rect width="321" height="107" rx="10" fill="#F4F6FA"/>
<g clip-path="url(#clip0_8336_1009)">
<g clip-path="url(#clip1_8336_1009)">
<g clip-path="url(#clip2_8336_1009)">
<mask id="mask0_8336_1009" style="mask-type:luminance" maskUnits="userSpaceOnUse" x="20" y="20" width="60" height="60">
<path d="M79.6292 20H20.3242V79.305H79.6292V20Z" fill="white"/>
</mask>
<g mask="url(#mask0_8336_1009)">
<path d="M60.286 77.4287C68.807 77.4287 75.7146 70.5211 75.7146 62.0001C75.7146 53.4791 68.807 46.5715 60.286 46.5715C51.765 46.5715 44.8574 53.4791 44.8574 62.0001C44.8574 70.5211 51.765 77.4287 60.286 77.4287Z" fill="#FDC040"/>
<path d="M63.4066 45.6726V34.4494C63.4066 34.1281 63.2583 33.8313 63.0483 33.5964L50.4654 20.3832C50.2305 20.1362 49.8966 20 49.5632 20H29.6133C25.9302 20 22.9883 23.0034 22.9883 26.6869V64.4109C22.9883 68.0944 25.9302 71.0485 29.6133 71.0485H45.3607C48.3392 75.9926 53.7534 79.305 59.9209 79.305C69.2901 79.305 76.9412 71.691 76.9412 62.3097C76.9539 54.1147 71.07 47.2672 63.4066 45.6726ZM50.7993 24.3387L59.2413 33.2255H53.7657C52.1341 33.2255 50.7993 31.8785 50.7993 30.2469V24.3387ZM29.6133 68.5763C27.3021 68.5763 25.4605 66.7221 25.4605 64.4109V26.6869C25.4605 24.3631 27.3021 22.4722 29.6133 22.4722H48.327V30.2469C48.327 33.2503 50.7621 35.6977 53.7657 35.6977H60.9345V45.3509C60.5638 45.3388 60.267 45.3017 59.9458 45.3017C55.632 45.3017 51.6644 46.9581 48.6732 49.5539H32.9755C32.2954 49.5539 31.7393 50.11 31.7393 50.7895C31.7393 51.4696 32.2954 52.0257 32.9755 52.0257H46.3742C45.4964 53.2618 44.767 54.4979 44.1987 55.8575H32.9755C32.2954 55.8575 31.7393 56.4137 31.7393 57.0937C31.7393 57.7733 32.2954 58.3298 32.9755 58.3298H43.3952C43.0862 59.566 42.9255 60.9378 42.9255 62.3097C42.9255 64.5344 43.3581 66.7348 44.1368 68.5889H29.6133V68.5763ZM59.9336 76.8455C51.9241 76.8455 45.41 70.3313 45.41 62.3219C45.41 54.3125 51.9114 47.7983 59.9336 47.7983C67.9552 47.7983 74.4567 54.3125 74.4567 62.3219C74.4567 70.3313 67.9431 76.8455 59.9336 76.8455Z" fill="#3BB77E"/>
<path d="M32.9763 45.8333H45.4973C46.1773 45.8333 46.7335 45.2768 46.7335 44.5973C46.7335 43.9172 46.1773 43.3611 45.4973 43.3611H32.9763C32.2963 43.3611 31.7402 43.9172 31.7402 44.5973C31.7402 45.2768 32.2963 45.8333 32.9763 45.8333Z" fill="#3BB77E"/>
<path d="M59.5246 54.6955C59.6237 54.72 59.7223 54.7327 59.8214 54.7327C59.9449 54.7327 60.0563 54.72 60.1675 54.6829C61.7991 54.8191 63.0724 56.1787 63.0724 57.8352C63.0724 58.5148 63.6284 59.0708 64.308 59.0708C64.9881 59.0708 65.5441 58.5148 65.5441 57.8352C65.5441 55.1159 63.6162 52.8414 61.0575 52.3098V51.5188C61.0575 50.8387 60.501 50.2827 59.8214 50.2827C59.1413 50.2827 58.5852 50.8387 58.5852 51.5188V52.3595C56.1131 52.9527 54.2715 55.1901 54.2715 57.8352C54.2715 60.9499 56.8053 63.4715 59.9078 63.4715C61.6507 63.4715 63.0724 64.8927 63.0724 66.6355C63.0724 68.3785 61.6629 69.8123 59.9078 69.8123C58.165 69.8123 56.7437 68.3906 56.7437 66.6478C56.7437 65.9682 56.1872 65.4116 55.5077 65.4116C54.8276 65.4116 54.2715 65.9682 54.2715 66.6478C54.2715 69.3055 56.1131 71.5303 58.5852 72.1235V73.3967C58.5852 74.0767 59.1413 74.6329 59.8214 74.6329C60.501 74.6329 61.0575 74.0767 61.0575 73.3967V72.1606C63.6162 71.6289 65.5441 69.3548 65.5441 66.6355C65.5441 63.5209 63.0103 60.9992 59.9078 60.9992C58.165 60.9992 56.7437 59.5777 56.7437 57.8352C56.7437 56.228 57.955 54.8811 59.5246 54.6955Z" fill="#3BB77E"/>
</g>
</g>
</g>
</g>
<path d="M107.308 45.39C106.396 45.39 105.544 45.228 104.752 44.904C103.96 44.568 103.264 44.106 102.664 43.518C102.076 42.918 101.614 42.228 101.278 41.448C100.942 40.668 100.774 39.822 100.774 38.91C100.774 37.998 100.942 37.152 101.278 36.372C101.614 35.592 102.076 34.908 102.664 34.32C103.264 33.72 103.96 33.258 104.752 32.934C105.544 32.598 106.396 32.43 107.308 32.43C107.896 32.43 108.466 32.496 109.018 32.628C109.57 32.76 110.068 32.952 110.512 33.204C110.668 33.288 110.782 33.402 110.854 33.546C110.926 33.678 110.962 33.81 110.962 33.942C110.962 34.194 110.878 34.416 110.71 34.608C110.554 34.788 110.356 34.878 110.116 34.878C110.032 34.878 109.942 34.866 109.846 34.842C109.762 34.818 109.684 34.788 109.612 34.752C109.276 34.584 108.916 34.458 108.532 34.374C108.148 34.278 107.74 34.23 107.308 34.23C106.444 34.23 105.664 34.44 104.968 34.86C104.272 35.268 103.72 35.826 103.312 36.534C102.916 37.242 102.718 38.034 102.718 38.91C102.718 39.774 102.916 40.566 103.312 41.286C103.72 41.994 104.272 42.558 104.968 42.978C105.664 43.386 106.444 43.59 107.308 43.59C107.728 43.59 108.172 43.542 108.64 43.446C109.108 43.338 109.504 43.2 109.828 43.032L109.684 43.518V40.098L109.972 40.35H107.614C107.35 40.35 107.128 40.266 106.948 40.098C106.78 39.93 106.696 39.714 106.696 39.45C106.696 39.186 106.78 38.97 106.948 38.802C107.128 38.634 107.35 38.55 107.614 38.55H110.728C110.98 38.55 111.19 38.64 111.358 38.82C111.538 38.988 111.628 39.204 111.628 39.468V43.464C111.628 43.656 111.58 43.818 111.484 43.95C111.388 44.082 111.28 44.19 111.16 44.274C110.62 44.61 110.02 44.88 109.36 45.084C108.712 45.288 108.028 45.39 107.308 45.39ZM114.693 45.21C114.429 45.21 114.213 45.126 114.045 44.958C113.877 44.778 113.793 44.556 113.793 44.292V36.66C113.793 36.396 113.877 36.18 114.045 36.012C114.213 35.832 114.429 35.742 114.693 35.742C114.945 35.742 115.155 35.832 115.323 36.012C115.503 36.18 115.593 36.396 115.593 36.66V38.676L115.413 37.902C115.509 37.566 115.653 37.254 115.845 36.966C116.049 36.678 116.289 36.426 116.565 36.21C116.841 35.994 117.147 35.826 117.483 35.706C117.831 35.586 118.191 35.526 118.563 35.526C118.875 35.526 119.145 35.61 119.373 35.778C119.601 35.946 119.715 36.156 119.715 36.408C119.715 36.732 119.631 36.972 119.463 37.128C119.295 37.272 119.109 37.344 118.905 37.344C118.725 37.344 118.551 37.308 118.383 37.236C118.215 37.152 118.017 37.11 117.789 37.11C117.537 37.11 117.279 37.176 117.015 37.308C116.751 37.44 116.511 37.638 116.295 37.902C116.079 38.154 115.905 38.454 115.773 38.802C115.653 39.15 115.593 39.54 115.593 39.972V44.292C115.593 44.556 115.503 44.778 115.323 44.958C115.155 45.126 114.945 45.21 114.693 45.21ZM125.322 45.39C124.326 45.39 123.462 45.186 122.73 44.778C121.998 44.358 121.428 43.788 121.02 43.068C120.624 42.336 120.426 41.502 120.426 40.566C120.426 39.51 120.636 38.61 121.056 37.866C121.488 37.11 122.046 36.534 122.73 36.138C123.414 35.73 124.14 35.526 124.908 35.526C125.496 35.526 126.054 35.646 126.582 35.886C127.11 36.114 127.578 36.438 127.986 36.858C128.406 37.266 128.736 37.752 128.976 38.316C129.216 38.868 129.342 39.474 129.354 40.134C129.342 40.374 129.246 40.572 129.066 40.728C128.886 40.884 128.676 40.962 128.436 40.962H121.434L121.002 39.432H127.77L127.428 39.756V39.306C127.404 38.886 127.266 38.52 127.014 38.208C126.762 37.884 126.45 37.638 126.078 37.47C125.706 37.29 125.316 37.2 124.908 37.2C124.548 37.2 124.2 37.26 123.864 37.38C123.54 37.488 123.246 37.668 122.982 37.92C122.73 38.172 122.526 38.508 122.37 38.928C122.226 39.336 122.154 39.846 122.154 40.458C122.154 41.118 122.292 41.694 122.568 42.186C122.844 42.678 123.216 43.062 123.684 43.338C124.152 43.602 124.668 43.734 125.232 43.734C125.676 43.734 126.042 43.692 126.33 43.608C126.618 43.512 126.858 43.398 127.05 43.266C127.242 43.134 127.41 43.008 127.554 42.888C127.734 42.78 127.914 42.726 128.094 42.726C128.31 42.726 128.49 42.804 128.634 42.96C128.778 43.104 128.85 43.278 128.85 43.482C128.85 43.746 128.718 43.986 128.454 44.202C128.13 44.514 127.68 44.79 127.104 45.03C126.54 45.27 125.946 45.39 125.322 45.39ZM139.217 35.598C139.481 35.598 139.697 35.688 139.865 35.868C140.033 36.036 140.117 36.252 140.117 36.516V44.292C140.117 44.556 140.033 44.778 139.865 44.958C139.697 45.126 139.481 45.21 139.217 45.21C138.965 45.21 138.749 45.126 138.569 44.958C138.401 44.778 138.317 44.556 138.317 44.292V42.996L138.695 43.05C138.695 43.266 138.605 43.506 138.425 43.77C138.257 44.034 138.023 44.292 137.723 44.544C137.423 44.784 137.069 44.988 136.661 45.156C136.253 45.312 135.815 45.39 135.347 45.39C134.519 45.39 133.775 45.18 133.115 44.76C132.455 44.328 131.933 43.74 131.549 42.996C131.165 42.252 130.973 41.406 130.973 40.458C130.973 39.486 131.165 38.634 131.549 37.902C131.933 37.158 132.449 36.576 133.097 36.156C133.757 35.736 134.489 35.526 135.293 35.526C135.809 35.526 136.283 35.61 136.715 35.778C137.159 35.946 137.543 36.162 137.867 36.426C138.191 36.69 138.437 36.972 138.605 37.272C138.785 37.56 138.875 37.836 138.875 38.1L138.317 38.154V36.516C138.317 36.264 138.401 36.048 138.569 35.868C138.749 35.688 138.965 35.598 139.217 35.598ZM135.545 43.734C136.109 43.734 136.607 43.59 137.039 43.302C137.471 43.014 137.807 42.624 138.047 42.132C138.287 41.628 138.407 41.07 138.407 40.458C138.407 39.834 138.287 39.276 138.047 38.784C137.807 38.292 137.471 37.902 137.039 37.614C136.607 37.326 136.109 37.182 135.545 37.182C134.993 37.182 134.501 37.326 134.069 37.614C133.649 37.902 133.313 38.292 133.061 38.784C132.821 39.276 132.701 39.834 132.701 40.458C132.701 41.07 132.821 41.628 133.061 42.132C133.313 42.624 133.649 43.014 134.069 43.302C134.501 43.59 134.993 43.734 135.545 43.734ZM142.513 35.85H146.743C146.983 35.85 147.181 35.934 147.337 36.102C147.505 36.258 147.589 36.456 147.589 36.696C147.589 36.924 147.505 37.116 147.337 37.272C147.181 37.428 146.983 37.506 146.743 37.506H142.513C142.273 37.506 142.069 37.428 141.901 37.272C141.745 37.104 141.667 36.906 141.667 36.678C141.667 36.438 141.745 36.24 141.901 36.084C142.069 35.928 142.273 35.85 142.513 35.85ZM144.403 33.51C144.667 33.51 144.883 33.6 145.051 33.78C145.219 33.948 145.303 34.164 145.303 34.428V42.78C145.303 42.996 145.339 43.17 145.411 43.302C145.483 43.434 145.579 43.524 145.699 43.572C145.831 43.62 145.963 43.644 146.095 43.644C146.227 43.644 146.341 43.62 146.437 43.572C146.545 43.524 146.671 43.5 146.815 43.5C146.959 43.5 147.091 43.566 147.211 43.698C147.331 43.83 147.391 44.01 147.391 44.238C147.391 44.526 147.235 44.76 146.923 44.94C146.611 45.12 146.275 45.21 145.915 45.21C145.711 45.21 145.471 45.192 145.195 45.156C144.919 45.12 144.649 45.03 144.385 44.886C144.133 44.742 143.923 44.514 143.755 44.202C143.587 43.878 143.503 43.428 143.503 42.852V34.428C143.503 34.164 143.587 33.948 143.755 33.78C143.935 33.6 144.151 33.51 144.403 33.51ZM162.35 31.89C162.614 31.89 162.83 31.974 162.998 32.142C163.166 32.31 163.25 32.532 163.25 32.808V44.292C163.25 44.556 163.166 44.778 162.998 44.958C162.83 45.126 162.614 45.21 162.35 45.21C162.098 45.21 161.882 45.126 161.702 44.958C161.534 44.778 161.45 44.556 161.45 44.292V42.996L161.828 43.014C161.828 43.23 161.738 43.476 161.558 43.752C161.39 44.016 161.156 44.274 160.856 44.526C160.556 44.778 160.202 44.988 159.794 45.156C159.386 45.312 158.948 45.39 158.48 45.39C157.652 45.39 156.908 45.18 156.248 44.76C155.588 44.328 155.066 43.746 154.682 43.014C154.298 42.27 154.106 41.418 154.106 40.458C154.106 39.498 154.298 38.652 154.682 37.92C155.066 37.176 155.582 36.594 156.23 36.174C156.89 35.742 157.622 35.526 158.426 35.526C158.93 35.526 159.398 35.61 159.83 35.778C160.274 35.946 160.658 36.162 160.982 36.426C161.306 36.69 161.558 36.972 161.738 37.272C161.918 37.56 162.008 37.836 162.008 38.1L161.45 38.154V32.808C161.45 32.544 161.534 32.328 161.702 32.16C161.882 31.98 162.098 31.89 162.35 31.89ZM158.678 43.734C159.254 43.734 159.752 43.59 160.172 43.302C160.604 43.014 160.94 42.624 161.18 42.132C161.42 41.64 161.54 41.082 161.54 40.458C161.54 39.834 161.42 39.276 161.18 38.784C160.94 38.292 160.604 37.902 160.172 37.614C159.74 37.326 159.242 37.182 158.678 37.182C158.126 37.182 157.634 37.326 157.202 37.614C156.782 37.902 156.446 38.292 156.194 38.784C155.954 39.276 155.834 39.834 155.834 40.458C155.834 41.082 155.954 41.64 156.194 42.132C156.446 42.624 156.782 43.014 157.202 43.302C157.634 43.59 158.126 43.734 158.678 43.734ZM173.53 35.598C173.794 35.598 174.01 35.688 174.178 35.868C174.346 36.036 174.43 36.252 174.43 36.516V44.292C174.43 44.556 174.346 44.778 174.178 44.958C174.01 45.126 173.794 45.21 173.53 45.21C173.278 45.21 173.062 45.126 172.882 44.958C172.714 44.778 172.63 44.556 172.63 44.292V42.996L173.008 43.05C173.008 43.266 172.918 43.506 172.738 43.77C172.57 44.034 172.336 44.292 172.036 44.544C171.736 44.784 171.382 44.988 170.974 45.156C170.566 45.312 170.128 45.39 169.66 45.39C168.832 45.39 168.088 45.18 167.428 44.76C166.768 44.328 166.246 43.74 165.862 42.996C165.478 42.252 165.286 41.406 165.286 40.458C165.286 39.486 165.478 38.634 165.862 37.902C166.246 37.158 166.762 36.576 167.41 36.156C168.07 35.736 168.802 35.526 169.606 35.526C170.122 35.526 170.596 35.61 171.028 35.778C171.472 35.946 171.856 36.162 172.18 36.426C172.504 36.69 172.75 36.972 172.918 37.272C173.098 37.56 173.188 37.836 173.188 38.1L172.63 38.154V36.516C172.63 36.264 172.714 36.048 172.882 35.868C173.062 35.688 173.278 35.598 173.53 35.598ZM169.858 43.734C170.422 43.734 170.92 43.59 171.352 43.302C171.784 43.014 172.12 42.624 172.36 42.132C172.6 41.628 172.72 41.07 172.72 40.458C172.72 39.834 172.6 39.276 172.36 38.784C172.12 38.292 171.784 37.902 171.352 37.614C170.92 37.326 170.422 37.182 169.858 37.182C169.306 37.182 168.814 37.326 168.382 37.614C167.962 37.902 167.626 38.292 167.374 38.784C167.134 39.276 167.014 39.834 167.014 40.458C167.014 41.07 167.134 41.628 167.374 42.132C167.626 42.624 167.962 43.014 168.382 43.302C168.814 43.59 169.306 43.734 169.858 43.734ZM178.643 44.292C178.643 44.556 178.559 44.778 178.391 44.958C178.223 45.126 178.007 45.21 177.743 45.21C177.491 45.21 177.275 45.126 177.095 44.958C176.927 44.778 176.843 44.556 176.843 44.292V36.588C176.843 36.324 176.927 36.108 177.095 35.94C177.275 35.76 177.491 35.67 177.743 35.67C178.007 35.67 178.223 35.76 178.391 35.94C178.559 36.108 178.643 36.324 178.643 36.588V44.292ZM177.725 34.482C177.377 34.482 177.125 34.422 176.969 34.302C176.813 34.17 176.735 33.954 176.735 33.654V33.366C176.735 33.066 176.819 32.856 176.987 32.736C177.155 32.616 177.407 32.556 177.743 32.556C178.103 32.556 178.361 32.622 178.517 32.754C178.673 32.874 178.751 33.078 178.751 33.366V33.654C178.751 33.966 178.667 34.182 178.499 34.302C178.343 34.422 178.085 34.482 177.725 34.482ZM183.009 44.292C183.009 44.556 182.919 44.778 182.739 44.958C182.571 45.126 182.361 45.21 182.109 45.21C181.857 45.21 181.641 45.126 181.461 44.958C181.293 44.778 181.209 44.556 181.209 44.292V32.808C181.209 32.544 181.299 32.328 181.479 32.16C181.659 31.98 181.875 31.89 182.127 31.89C182.391 31.89 182.601 31.98 182.757 32.16C182.925 32.328 183.009 32.544 183.009 32.808V44.292ZM192.462 35.67C192.726 35.67 192.942 35.76 193.11 35.94C193.278 36.108 193.362 36.324 193.362 36.588V44.328C193.362 45.384 193.158 46.242 192.75 46.902C192.354 47.562 191.814 48.042 191.13 48.342C190.458 48.654 189.696 48.81 188.844 48.81C188.412 48.81 187.98 48.768 187.548 48.684C187.116 48.612 186.762 48.504 186.486 48.36C186.198 48.228 185.994 48.066 185.874 47.874C185.754 47.682 185.736 47.472 185.82 47.244C185.904 46.956 186.048 46.758 186.252 46.65C186.456 46.554 186.666 46.548 186.882 46.632C187.086 46.716 187.356 46.824 187.692 46.956C188.028 47.088 188.412 47.154 188.844 47.154C189.432 47.154 189.93 47.058 190.338 46.866C190.746 46.674 191.052 46.374 191.256 45.966C191.472 45.558 191.58 45.03 191.58 44.382V43.14L191.868 43.572C191.676 43.968 191.424 44.298 191.112 44.562C190.8 44.826 190.428 45.03 189.996 45.174C189.576 45.318 189.108 45.39 188.592 45.39C187.932 45.39 187.362 45.246 186.882 44.958C186.414 44.658 186.054 44.25 185.802 43.734C185.55 43.206 185.424 42.606 185.424 41.934V36.588C185.424 36.324 185.508 36.108 185.676 35.94C185.844 35.76 186.06 35.67 186.324 35.67C186.576 35.67 186.786 35.76 186.954 35.94C187.134 36.108 187.224 36.324 187.224 36.588V41.448C187.224 42.24 187.398 42.822 187.746 43.194C188.094 43.554 188.61 43.734 189.294 43.734C189.75 43.734 190.146 43.638 190.482 43.446C190.818 43.254 191.082 42.99 191.274 42.654C191.466 42.306 191.562 41.904 191.562 41.448V36.588C191.562 36.324 191.646 36.108 191.814 35.94C191.994 35.76 192.21 35.67 192.462 35.67ZM208.651 31.89C208.915 31.89 209.131 31.974 209.299 32.142C209.467 32.31 209.551 32.532 209.551 32.808V44.292C209.551 44.556 209.467 44.778 209.299 44.958C209.131 45.126 208.915 45.21 208.651 45.21C208.399 45.21 208.183 45.126 208.003 44.958C207.835 44.778 207.751 44.556 207.751 44.292V42.996L208.129 43.014C208.129 43.23 208.039 43.476 207.859 43.752C207.691 44.016 207.457 44.274 207.157 44.526C206.857 44.778 206.503 44.988 206.095 45.156C205.687 45.312 205.249 45.39 204.781 45.39C203.953 45.39 203.209 45.18 202.549 44.76C201.889 44.328 201.367 43.746 200.983 43.014C200.599 42.27 200.407 41.418 200.407 40.458C200.407 39.498 200.599 38.652 200.983 37.92C201.367 37.176 201.883 36.594 202.531 36.174C203.191 35.742 203.923 35.526 204.727 35.526C205.231 35.526 205.699 35.61 206.131 35.778C206.575 35.946 206.959 36.162 207.283 36.426C207.607 36.69 207.859 36.972 208.039 37.272C208.219 37.56 208.309 37.836 208.309 38.1L207.751 38.154V32.808C207.751 32.544 207.835 32.328 208.003 32.16C208.183 31.98 208.399 31.89 208.651 31.89ZM204.979 43.734C205.555 43.734 206.053 43.59 206.473 43.302C206.905 43.014 207.241 42.624 207.481 42.132C207.721 41.64 207.841 41.082 207.841 40.458C207.841 39.834 207.721 39.276 207.481 38.784C207.241 38.292 206.905 37.902 206.473 37.614C206.041 37.326 205.543 37.182 204.979 37.182C204.427 37.182 203.935 37.326 203.503 37.614C203.083 37.902 202.747 38.292 202.495 38.784C202.255 39.276 202.135 39.834 202.135 40.458C202.135 41.082 202.255 41.64 202.495 42.132C202.747 42.624 203.083 43.014 203.503 43.302C203.935 43.59 204.427 43.734 204.979 43.734ZM216.483 45.39C215.487 45.39 214.623 45.186 213.891 44.778C213.159 44.358 212.589 43.788 212.181 43.068C211.785 42.336 211.587 41.502 211.587 40.566C211.587 39.51 211.797 38.61 212.217 37.866C212.649 37.11 213.207 36.534 213.891 36.138C214.575 35.73 215.301 35.526 216.069 35.526C216.657 35.526 217.215 35.646 217.743 35.886C218.271 36.114 218.739 36.438 219.147 36.858C219.567 37.266 219.897 37.752 220.137 38.316C220.377 38.868 220.503 39.474 220.515 40.134C220.503 40.374 220.407 40.572 220.227 40.728C220.047 40.884 219.837 40.962 219.597 40.962H212.595L212.163 39.432H218.931L218.589 39.756V39.306C218.565 38.886 218.427 38.52 218.175 38.208C217.923 37.884 217.611 37.638 217.239 37.47C216.867 37.29 216.477 37.2 216.069 37.2C215.709 37.2 215.361 37.26 215.025 37.38C214.701 37.488 214.407 37.668 214.143 37.92C213.891 38.172 213.687 38.508 213.531 38.928C213.387 39.336 213.315 39.846 213.315 40.458C213.315 41.118 213.453 41.694 213.729 42.186C214.005 42.678 214.377 43.062 214.845 43.338C215.313 43.602 215.829 43.734 216.393 43.734C216.837 43.734 217.203 43.692 217.491 43.608C217.779 43.512 218.019 43.398 218.211 43.266C218.403 43.134 218.571 43.008 218.715 42.888C218.895 42.78 219.075 42.726 219.255 42.726C219.471 42.726 219.651 42.804 219.795 42.96C219.939 43.104 220.011 43.278 220.011 43.482C220.011 43.746 219.879 43.986 219.615 44.202C219.291 44.514 218.841 44.79 218.265 45.03C217.701 45.27 217.107 45.39 216.483 45.39ZM230.377 35.598C230.641 35.598 230.857 35.688 231.025 35.868C231.193 36.036 231.277 36.252 231.277 36.516V44.292C231.277 44.556 231.193 44.778 231.025 44.958C230.857 45.126 230.641 45.21 230.377 45.21C230.125 45.21 229.909 45.126 229.729 44.958C229.561 44.778 229.477 44.556 229.477 44.292V42.996L229.855 43.05C229.855 43.266 229.765 43.506 229.585 43.77C229.417 44.034 229.183 44.292 228.883 44.544C228.583 44.784 228.229 44.988 227.821 45.156C227.413 45.312 226.975 45.39 226.507 45.39C225.679 45.39 224.935 45.18 224.275 44.76C223.615 44.328 223.093 43.74 222.709 42.996C222.325 42.252 222.133 41.406 222.133 40.458C222.133 39.486 222.325 38.634 222.709 37.902C223.093 37.158 223.609 36.576 224.257 36.156C224.917 35.736 225.649 35.526 226.453 35.526C226.969 35.526 227.443 35.61 227.875 35.778C228.319 35.946 228.703 36.162 229.027 36.426C229.351 36.69 229.597 36.972 229.765 37.272C229.945 37.56 230.035 37.836 230.035 38.1L229.477 38.154V36.516C229.477 36.264 229.561 36.048 229.729 35.868C229.909 35.688 230.125 35.598 230.377 35.598ZM226.705 43.734C227.269 43.734 227.767 43.59 228.199 43.302C228.631 43.014 228.967 42.624 229.207 42.132C229.447 41.628 229.567 41.07 229.567 40.458C229.567 39.834 229.447 39.276 229.207 38.784C228.967 38.292 228.631 37.902 228.199 37.614C227.767 37.326 227.269 37.182 226.705 37.182C226.153 37.182 225.661 37.326 225.229 37.614C224.809 37.902 224.473 38.292 224.221 38.784C223.981 39.276 223.861 39.834 223.861 40.458C223.861 41.07 223.981 41.628 224.221 42.132C224.473 42.624 224.809 43.014 225.229 43.302C225.661 43.59 226.153 43.734 226.705 43.734ZM235.743 44.292C235.743 44.556 235.653 44.778 235.473 44.958C235.305 45.126 235.095 45.21 234.843 45.21C234.591 45.21 234.375 45.126 234.195 44.958C234.027 44.778 233.943 44.556 233.943 44.292V32.808C233.943 32.544 234.033 32.328 234.213 32.16C234.393 31.98 234.609 31.89 234.861 31.89C235.125 31.89 235.335 31.98 235.491 32.16C235.659 32.328 235.743 32.544 235.743 32.808V44.292Z" fill="#242424"/>
<path d="M116.32 61.336L112.744 72.8H111.352L108.448 64.056C108.421 63.9707 108.395 63.88 108.368 63.784C108.347 63.688 108.323 63.5867 108.296 63.48C108.269 63.5867 108.243 63.688 108.216 63.784C108.189 63.88 108.163 63.9707 108.136 64.056L105.216 72.8H103.824L100.248 61.336H101.536C101.675 61.336 101.789 61.3707 101.88 61.44C101.976 61.5094 102.037 61.5974 102.064 61.704L104.432 69.672C104.469 69.816 104.504 69.9707 104.536 70.136C104.573 70.3014 104.608 70.4774 104.64 70.664C104.677 70.4774 104.715 70.3014 104.752 70.136C104.795 69.9654 104.84 69.8107 104.888 69.672L107.584 61.704C107.616 61.6134 107.677 61.5307 107.768 61.456C107.864 61.376 107.979 61.336 108.112 61.336H108.56C108.699 61.336 108.811 61.3707 108.896 61.44C108.981 61.5094 109.045 61.5974 109.088 61.704L111.776 69.672C111.824 69.8107 111.867 69.96 111.904 70.12C111.947 70.28 111.987 70.448 112.024 70.624C112.051 70.448 112.08 70.28 112.112 70.12C112.144 69.96 112.179 69.8107 112.216 69.672L114.592 61.704C114.619 61.608 114.677 61.5227 114.768 61.448C114.864 61.3734 114.979 61.336 115.112 61.336H116.32ZM119.044 65.776C119.391 65.408 119.775 65.1147 120.196 64.896C120.618 64.6774 121.103 64.568 121.652 64.568C122.095 64.568 122.484 64.6427 122.82 64.792C123.162 64.936 123.444 65.144 123.668 65.416C123.898 65.6827 124.071 66.0054 124.188 66.384C124.306 66.7627 124.364 67.1814 124.364 67.64V72.8H122.932V67.64C122.932 67.0267 122.791 66.552 122.508 66.216C122.231 65.8747 121.807 65.704 121.236 65.704C120.815 65.704 120.42 65.8054 120.052 66.008C119.69 66.2107 119.354 66.4854 119.044 66.832V72.8H117.612V61.016H119.044V65.776ZM131.958 67.864C131.958 67.5334 131.91 67.232 131.814 66.96C131.724 66.6827 131.588 66.4454 131.406 66.248C131.23 66.0454 131.014 65.8907 130.758 65.784C130.502 65.672 130.212 65.616 129.886 65.616C129.204 65.616 128.662 65.816 128.262 66.216C127.868 66.6107 127.622 67.16 127.526 67.864H131.958ZM133.11 71.664C132.934 71.8774 132.724 72.064 132.478 72.224C132.233 72.3787 131.969 72.5067 131.686 72.608C131.409 72.7094 131.121 72.784 130.822 72.832C130.524 72.8854 130.228 72.912 129.934 72.912C129.374 72.912 128.857 72.8187 128.382 72.632C127.913 72.44 127.505 72.1627 127.158 71.8C126.817 71.432 126.55 70.9787 126.358 70.44C126.166 69.9014 126.07 69.2827 126.07 68.584C126.07 68.0187 126.156 67.4907 126.326 67C126.502 66.5094 126.753 66.0854 127.078 65.728C127.404 65.3654 127.801 65.0827 128.27 64.88C128.74 64.672 129.268 64.568 129.854 64.568C130.34 64.568 130.788 64.6507 131.198 64.816C131.614 64.976 131.972 65.2107 132.27 65.52C132.574 65.824 132.812 66.2027 132.982 66.656C133.153 67.104 133.238 67.616 133.238 68.192C133.238 68.416 133.214 68.5654 133.166 68.64C133.118 68.7147 133.028 68.752 132.894 68.752H127.478C127.494 69.264 127.564 69.7094 127.686 70.088C127.814 70.4667 127.99 70.784 128.214 71.04C128.438 71.2907 128.705 71.48 129.014 71.608C129.324 71.7307 129.67 71.792 130.054 71.792C130.412 71.792 130.718 71.752 130.974 71.672C131.236 71.5867 131.46 71.496 131.646 71.4C131.833 71.304 131.988 71.216 132.11 71.136C132.238 71.0507 132.348 71.008 132.438 71.008C132.556 71.008 132.646 71.0534 132.71 71.144L133.11 71.664ZM136.331 65.872C136.507 65.6747 136.694 65.496 136.891 65.336C137.089 65.176 137.297 65.04 137.515 64.928C137.739 64.8107 137.974 64.7227 138.219 64.664C138.47 64.6 138.739 64.568 139.027 64.568C139.47 64.568 139.859 64.6427 140.195 64.792C140.537 64.936 140.819 65.144 141.043 65.416C141.273 65.6827 141.446 66.0054 141.563 66.384C141.681 66.7627 141.739 67.1814 141.739 67.64V72.8H140.307V67.64C140.307 67.0267 140.166 66.552 139.883 66.216C139.606 65.8747 139.182 65.704 138.611 65.704C138.19 65.704 137.795 65.8054 137.427 66.008C137.065 66.2107 136.729 66.4854 136.419 66.832V72.8H134.987V64.696H135.843C136.046 64.696 136.171 64.7947 136.219 64.992L136.331 65.872ZM154.589 64.696L150.069 75.192C150.021 75.2987 149.959 75.384 149.885 75.448C149.815 75.512 149.706 75.544 149.557 75.544H148.501L149.981 72.328L146.637 64.696H147.869C147.991 64.696 148.087 64.728 148.157 64.792C148.231 64.8507 148.282 64.9174 148.309 64.992L150.477 70.096C150.562 70.32 150.634 70.5547 150.693 70.8C150.767 70.5494 150.847 70.312 150.933 70.088L153.037 64.992C153.069 64.9067 153.122 64.8374 153.197 64.784C153.277 64.7254 153.365 64.696 153.461 64.696H154.589ZM159.044 64.568C159.636 64.568 160.169 64.6667 160.644 64.864C161.119 65.0614 161.524 65.3414 161.86 65.704C162.196 66.0667 162.452 66.5067 162.628 67.024C162.809 67.536 162.9 68.1094 162.9 68.744C162.9 69.384 162.809 69.96 162.628 70.472C162.452 70.984 162.196 71.4214 161.86 71.784C161.524 72.1467 161.119 72.4267 160.644 72.624C160.169 72.816 159.636 72.912 159.044 72.912C158.447 72.912 157.908 72.816 157.428 72.624C156.953 72.4267 156.548 72.1467 156.212 71.784C155.876 71.4214 155.617 70.984 155.436 70.472C155.26 69.96 155.172 69.384 155.172 68.744C155.172 68.1094 155.26 67.536 155.436 67.024C155.617 66.5067 155.876 66.0667 156.212 65.704C156.548 65.3414 156.953 65.0614 157.428 64.864C157.908 64.6667 158.447 64.568 159.044 64.568ZM159.044 71.8C159.844 71.8 160.441 71.5334 160.836 71C161.231 70.4614 161.428 69.712 161.428 68.752C161.428 67.7867 161.231 67.0347 160.836 66.496C160.441 65.9574 159.844 65.688 159.044 65.688C158.639 65.688 158.284 65.7574 157.98 65.896C157.681 66.0347 157.431 66.2347 157.228 66.496C157.031 66.7574 156.881 67.08 156.78 67.464C156.684 67.8427 156.636 68.272 156.636 68.752C156.636 69.712 156.833 70.4614 157.228 71C157.628 71.5334 158.233 71.8 159.044 71.8ZM171.37 64.696V72.8H170.522C170.319 72.8 170.191 72.7014 170.138 72.504L170.026 71.632C169.674 72.0214 169.279 72.336 168.842 72.576C168.405 72.8107 167.903 72.928 167.338 72.928C166.895 72.928 166.503 72.856 166.162 72.712C165.826 72.5627 165.543 72.3547 165.314 72.088C165.085 71.8214 164.911 71.4987 164.794 71.12C164.682 70.7414 164.626 70.3227 164.626 69.864V64.696H166.05V69.864C166.05 70.4774 166.189 70.952 166.466 71.288C166.749 71.624 167.178 71.792 167.754 71.792C168.175 71.792 168.567 71.6934 168.93 71.496C169.298 71.2934 169.637 71.016 169.946 70.664V64.696H171.37ZM182.442 66.032C182.378 66.1494 182.279 66.208 182.146 66.208C182.066 66.208 181.975 66.1787 181.874 66.12C181.772 66.0614 181.647 65.9974 181.498 65.928C181.354 65.8534 181.18 65.7867 180.978 65.728C180.775 65.664 180.535 65.632 180.258 65.632C180.018 65.632 179.802 65.664 179.61 65.728C179.418 65.7867 179.252 65.8694 179.114 65.976C178.98 66.0827 178.876 66.208 178.802 66.352C178.732 66.4907 178.698 66.6427 178.698 66.808C178.698 67.016 178.756 67.1894 178.874 67.328C178.996 67.4667 179.156 67.5867 179.354 67.688C179.551 67.7894 179.775 67.88 180.026 67.96C180.276 68.0347 180.532 68.1174 180.794 68.208C181.06 68.2934 181.319 68.3894 181.57 68.496C181.82 68.6027 182.044 68.736 182.242 68.896C182.439 69.056 182.596 69.2534 182.714 69.488C182.836 69.7174 182.898 69.9947 182.898 70.32C182.898 70.6934 182.831 71.04 182.698 71.36C182.564 71.6747 182.367 71.9494 182.106 72.184C181.844 72.4134 181.524 72.5947 181.146 72.728C180.767 72.8614 180.33 72.928 179.834 72.928C179.268 72.928 178.756 72.8374 178.298 72.656C177.839 72.4694 177.45 72.232 177.13 71.944L177.466 71.4C177.508 71.3307 177.559 71.2774 177.618 71.24C177.676 71.2027 177.751 71.184 177.842 71.184C177.938 71.184 178.039 71.2214 178.146 71.296C178.252 71.3707 178.38 71.4534 178.53 71.544C178.684 71.6347 178.871 71.7174 179.09 71.792C179.308 71.8667 179.58 71.904 179.906 71.904C180.183 71.904 180.426 71.8694 180.634 71.8C180.842 71.7254 181.015 71.6267 181.154 71.504C181.292 71.3814 181.394 71.24 181.458 71.08C181.527 70.92 181.562 70.7494 181.562 70.568C181.562 70.344 181.5 70.16 181.378 70.016C181.26 69.8667 181.103 69.7414 180.906 69.64C180.708 69.5334 180.482 69.4427 180.226 69.368C179.975 69.288 179.716 69.2054 179.45 69.12C179.188 69.0347 178.93 68.9387 178.674 68.832C178.423 68.72 178.199 68.5814 178.002 68.416C177.804 68.2507 177.644 68.048 177.522 67.808C177.404 67.5627 177.346 67.2667 177.346 66.92C177.346 66.6107 177.41 66.3147 177.538 66.032C177.666 65.744 177.852 65.4934 178.098 65.28C178.343 65.0614 178.644 64.888 179.002 64.76C179.359 64.632 179.767 64.568 180.226 64.568C180.759 64.568 181.236 64.6534 181.658 64.824C182.084 64.9894 182.452 65.2187 182.762 65.512L182.442 66.032ZM186.148 64.696V72.8H184.724V64.696H186.148ZM186.452 62.152C186.452 62.2907 186.422 62.4214 186.364 62.544C186.31 62.6614 186.236 62.768 186.14 62.864C186.049 62.9547 185.94 63.0267 185.812 63.08C185.689 63.1334 185.558 63.16 185.42 63.16C185.281 63.16 185.15 63.1334 185.028 63.08C184.91 63.0267 184.806 62.9547 184.716 62.864C184.625 62.768 184.553 62.6614 184.5 62.544C184.446 62.4214 184.42 62.2907 184.42 62.152C184.42 62.0134 184.446 61.8827 184.5 61.76C184.553 61.632 184.625 61.5227 184.716 61.432C184.806 61.336 184.91 61.2614 185.028 61.208C185.15 61.1547 185.281 61.128 185.42 61.128C185.558 61.128 185.689 61.1547 185.812 61.208C185.94 61.2614 186.049 61.336 186.14 61.432C186.236 61.5227 186.31 61.632 186.364 61.76C186.422 61.8827 186.452 62.0134 186.452 62.152ZM191.311 68.84C191.599 68.84 191.853 68.8 192.071 68.72C192.29 68.64 192.474 68.528 192.623 68.384C192.773 68.24 192.885 68.0694 192.959 67.872C193.034 67.6694 193.071 67.448 193.071 67.208C193.071 66.712 192.919 66.3174 192.615 66.024C192.317 65.7307 191.882 65.584 191.311 65.584C190.735 65.584 190.295 65.7307 189.991 66.024C189.693 66.3174 189.543 66.712 189.543 67.208C189.543 67.448 189.581 67.6694 189.655 67.872C189.735 68.0694 189.85 68.24 189.999 68.384C190.149 68.528 190.333 68.64 190.551 68.72C190.77 68.8 191.023 68.84 191.311 68.84ZM193.879 73.24C193.879 73.0427 193.823 72.8827 193.711 72.76C193.599 72.6374 193.447 72.5414 193.255 72.472C193.069 72.4027 192.85 72.3547 192.599 72.328C192.349 72.296 192.082 72.272 191.799 72.256C191.522 72.24 191.239 72.224 190.951 72.208C190.663 72.192 190.386 72.1654 190.119 72.128C189.821 72.2667 189.575 72.4427 189.383 72.656C189.197 72.864 189.103 73.1094 189.103 73.392C189.103 73.5734 189.149 73.7414 189.239 73.896C189.335 74.056 189.479 74.192 189.671 74.304C189.863 74.4214 190.103 74.512 190.391 74.576C190.685 74.6454 191.029 74.68 191.423 74.68C191.807 74.68 192.151 74.6454 192.455 74.576C192.759 74.5067 193.015 74.408 193.223 74.28C193.437 74.152 193.599 74 193.711 73.824C193.823 73.648 193.879 73.4534 193.879 73.24ZM195.327 65.016V65.544C195.327 65.72 195.215 65.832 194.991 65.88L194.071 66C194.253 66.352 194.343 66.7414 194.343 67.168C194.343 67.5627 194.266 67.9227 194.111 68.248C193.962 68.568 193.754 68.8427 193.487 69.072C193.221 69.3014 192.901 69.4774 192.527 69.6C192.154 69.7227 191.749 69.784 191.311 69.784C190.933 69.784 190.575 69.7387 190.239 69.648C190.069 69.7547 189.938 69.8694 189.847 69.992C189.757 70.1094 189.711 70.2294 189.711 70.352C189.711 70.544 189.789 70.6907 189.943 70.792C190.103 70.888 190.311 70.9574 190.567 71C190.823 71.0427 191.114 71.0694 191.439 71.08C191.77 71.0907 192.106 71.1094 192.447 71.136C192.794 71.1574 193.13 71.1974 193.455 71.256C193.786 71.3147 194.079 71.4107 194.335 71.544C194.591 71.6774 194.797 71.8614 194.951 72.096C195.111 72.3307 195.191 72.6347 195.191 73.008C195.191 73.3547 195.103 73.6907 194.927 74.016C194.757 74.3414 194.509 74.6294 194.183 74.88C193.858 75.136 193.458 75.3387 192.983 75.488C192.514 75.6427 191.983 75.72 191.391 75.72C190.799 75.72 190.282 75.6614 189.839 75.544C189.397 75.4267 189.029 75.2694 188.735 75.072C188.442 74.8747 188.221 74.6454 188.071 74.384C187.927 74.128 187.855 73.8587 187.855 73.576C187.855 73.176 187.981 72.8374 188.231 72.56C188.482 72.2827 188.826 72.0614 189.263 71.896C189.023 71.7894 188.831 71.648 188.687 71.472C188.549 71.2907 188.479 71.048 188.479 70.744C188.479 70.6267 188.501 70.5067 188.543 70.384C188.586 70.256 188.65 70.1307 188.735 70.008C188.826 69.88 188.935 69.76 189.063 69.648C189.191 69.536 189.341 69.4374 189.511 69.352C189.111 69.128 188.799 68.832 188.575 68.464C188.351 68.0907 188.239 67.6587 188.239 67.168C188.239 66.7734 188.314 66.416 188.463 66.096C188.618 65.7707 188.831 65.496 189.103 65.272C189.375 65.0427 189.698 64.8667 190.071 64.744C190.45 64.6214 190.863 64.56 191.311 64.56C191.663 64.56 191.991 64.6 192.295 64.68C192.599 64.7547 192.877 64.8667 193.127 65.016H195.327ZM198.144 65.872C198.32 65.6747 198.507 65.496 198.704 65.336C198.901 65.176 199.109 65.04 199.328 64.928C199.552 64.8107 199.787 64.7227 200.032 64.664C200.283 64.6 200.552 64.568 200.84 64.568C201.283 64.568 201.672 64.6427 202.008 64.792C202.349 64.936 202.632 65.144 202.856 65.416C203.085 65.6827 203.259 66.0054 203.376 66.384C203.493 66.7627 203.552 67.1814 203.552 67.64V72.8H202.12V67.64C202.12 67.0267 201.979 66.552 201.696 66.216C201.419 65.8747 200.995 65.704 200.424 65.704C200.003 65.704 199.608 65.8054 199.24 66.008C198.877 66.2107 198.541 66.4854 198.232 66.832V72.8H196.8V64.696H197.656C197.859 64.696 197.984 64.7947 198.032 64.992L198.144 65.872ZM216.48 64.696V72.8H215.632C215.429 72.8 215.301 72.7014 215.248 72.504L215.136 71.632C214.784 72.0214 214.389 72.336 213.952 72.576C213.514 72.8107 213.013 72.928 212.448 72.928C212.005 72.928 211.613 72.856 211.272 72.712C210.936 72.5627 210.653 72.3547 210.424 72.088C210.194 71.8214 210.021 71.4987 209.904 71.12C209.792 70.7414 209.736 70.3227 209.736 69.864V64.696H211.16V69.864C211.16 70.4774 211.298 70.952 211.576 71.288C211.858 71.624 212.288 71.792 212.864 71.792C213.285 71.792 213.677 71.6934 214.04 71.496C214.408 71.2934 214.746 71.016 215.056 70.664V64.696H216.48ZM220.169 70.848C220.431 71.2 220.716 71.448 221.025 71.592C221.335 71.736 221.681 71.808 222.065 71.808C222.823 71.808 223.404 71.5387 223.809 71C224.215 70.4614 224.417 69.6934 224.417 68.696C224.417 68.168 224.369 67.7147 224.273 67.336C224.183 66.9574 224.049 66.648 223.873 66.408C223.697 66.1627 223.481 65.984 223.225 65.872C222.969 65.76 222.679 65.704 222.353 65.704C221.889 65.704 221.481 65.8107 221.129 66.024C220.783 66.2374 220.463 66.5387 220.169 66.928V70.848ZM220.097 65.952C220.439 65.5307 220.833 65.192 221.281 64.936C221.729 64.68 222.241 64.552 222.817 64.552C223.287 64.552 223.711 64.6427 224.089 64.824C224.468 65 224.791 65.264 225.057 65.616C225.324 65.9627 225.529 66.3947 225.673 66.912C225.817 67.4294 225.889 68.024 225.889 68.696C225.889 69.2934 225.809 69.8507 225.649 70.368C225.489 70.88 225.257 71.3254 224.953 71.704C224.655 72.0774 224.287 72.3734 223.849 72.592C223.417 72.8054 222.929 72.912 222.385 72.912C221.889 72.912 221.463 72.8294 221.105 72.664C220.753 72.4934 220.441 72.2587 220.169 71.96V75.544H218.737V64.696H219.593C219.796 64.696 219.921 64.7947 219.969 64.992L220.097 65.952Z" fill="#ADADAD"/>
<defs>
<clipPath id="clip0_8336_1009">
<rect width="60" height="60" fill="white" transform="translate(20 20)"/>
</clipPath>
<clipPath id="clip1_8336_1009">
<rect width="60" height="60" fill="white" transform="translate(20 20)"/>
</clipPath>
<clipPath id="clip2_8336_1009">
<rect width="60" height="60" fill="white" transform="translate(20 20)"/>
</clipPath>
</defs>
</svg>
