<svg width="16" height="19" viewBox="0 0 16 19" fill="none" xmlns="http://www.w3.org/2000/svg">
<path d="M7.52941 15.82L11.6622 11.6704C12.4207 10.9231 12.9339 10.0419 13.2016 9.02678C13.4581 8.03401 13.4581 7.04125 13.2016 6.04848C12.9339 5.0334 12.4235 4.1494 11.6706 3.39645C10.9176 2.64351 10.0336 2.13319 9.01856 1.86547C8.02579 1.60892 7.03303 1.60892 6.04026 1.86547C5.02519 2.13319 4.14118 2.64351 3.38824 3.39645C2.63529 4.1494 2.12497 5.0334 1.85725 6.04848C1.6007 7.04125 1.6007 8.03401 1.85725 9.02678C2.12497 10.0419 2.63808 10.9231 3.3966 11.6704L7.52941 15.82ZM7.52941 18.1792L2.20863 12.8584C1.23817 11.8991 0.585621 10.7613 0.25098 9.44508C-0.0836601 8.17345 -0.0836601 6.90181 0.25098 5.63018C0.585621 4.31393 1.23538 3.17336 2.20026 2.20848C3.16514 1.2436 4.30571 0.588263 5.62196 0.242468C6.89359 -0.0810184 8.16523 -0.0810184 9.43686 0.242468C10.7531 0.588263 11.8937 1.2436 12.8586 2.20848C13.8234 3.17336 14.4732 4.31393 14.8078 5.63018C15.1425 6.90181 15.1425 8.17345 14.8078 9.44508C14.4732 10.7613 13.8207 11.8991 12.8502 12.8584L7.52941 18.1792ZM7.52941 9.21083C7.83059 9.21083 8.10946 9.13554 8.36601 8.98495C8.62257 8.83436 8.82614 8.63079 8.97673 8.37423C9.12732 8.11767 9.20261 7.83881 9.20261 7.53763C9.20261 7.23645 9.12732 6.95759 8.97673 6.70103C8.82614 6.44447 8.62257 6.2409 8.36601 6.09031C8.10946 5.93972 7.83059 5.86443 7.52941 5.86443C7.22824 5.86443 6.94937 5.93972 6.69281 6.09031C6.43625 6.2409 6.23268 6.44447 6.08209 6.70103C5.9315 6.95759 5.85621 7.23645 5.85621 7.53763C5.85621 7.83881 5.9315 8.11767 6.08209 8.37423C6.23268 8.63079 6.43625 8.83436 6.69281 8.98495C6.94937 9.13554 7.22824 9.21083 7.52941 9.21083ZM7.52941 10.884C6.92706 10.884 6.36932 10.7334 5.85621 10.4323C5.34309 10.1311 4.93595 9.72395 4.63477 9.21083C4.33359 8.69772 4.18301 8.13719 4.18301 7.52926C4.18301 6.92133 4.33359 6.3636 4.63477 5.85606C4.93595 5.34852 5.34309 4.94417 5.85621 4.64299C6.36932 4.34181 6.92706 4.19123 7.52941 4.19123C8.13176 4.19123 8.6895 4.34181 9.20261 4.64299C9.71573 4.94417 10.1229 5.34852 10.4241 5.85606C10.7252 6.3636 10.8758 6.92133 10.8758 7.52926C10.8758 8.13719 10.7252 8.69772 10.4241 9.21083C10.1229 9.72395 9.71573 10.1311 9.20261 10.4323C8.6895 10.7334 8.13176 10.884 7.52941 10.884Z" fill="#F53E32"/>
</svg>
