<svg width="21" height="20" viewBox="0 0 21 20" fill="none" xmlns="http://www.w3.org/2000/svg">
<g clip-path="url(#clip0_12329_16669)">
<path d="M9.16667 8.33333H5.83333V11.6667H9.16667V8.33333ZM10.8333 8.33333V11.6667H13.3333V8.33333H10.8333ZM9.16667 15.8333V13.3333H5.83333V15.8333H9.16667ZM10.8333 15.8333H13.3333V13.3333H10.8333V15.8333ZM9.16667 4.16667H5.83333V6.66667H9.16667V4.16667ZM10.8333 4.16667V6.66667H13.3333V4.16667H10.8333ZM4.16667 8.33333H1.66667V11.6667H4.16667V8.33333ZM4.16667 15.8333V13.3333H1.66667V15.8333H4.16667ZM4.16667 4.16667H1.66667V6.66667H4.16667V4.16667ZM0.833333 2.5H14.1667C14.4 2.5 14.5972 2.58055 14.7583 2.74167C14.9194 2.90278 15 3.1 15 3.33333V16.6667C15 16.9 14.9194 17.0972 14.7583 17.2583C14.5972 17.4194 14.4 17.5 14.1667 17.5H0.833333C0.6 17.5 0.402778 17.4194 0.241667 17.2583C0.0805556 17.0972 0 16.9 0 16.6667V3.33333C0 3.1 0.0805556 2.90278 0.241667 2.74167C0.402778 2.58055 0.6 2.5 0.833333 2.5Z" fill="white"/>
</g>
<defs>
<clipPath id="clip0_12329_16669">
<rect width="20.48" height="20" fill="white" transform="matrix(1 0 0 -1 0 20)"/>
</clipPath>
</defs>
</svg>
