<svg width="61" height="46" viewBox="0 0 61 46" fill="none" xmlns="http://www.w3.org/2000/svg">
<g opacity="0.5">
<path d="M7 17.25C7 15.1544 7.52389 13.2122 8.57167 11.4233C9.59389 9.71111 10.9611 8.34389 12.6733 7.32167C14.4622 6.27389 16.4044 5.75 18.5 5.75H33.8333C35.9033 5.75 37.8328 6.27389 39.6217 7.32167C41.3594 8.34389 42.7394 9.72389 43.7617 11.4617C44.8094 13.2506 45.3333 15.18 45.3333 17.25V40.25H18.5C16.43 40.25 14.5006 39.7261 12.7117 38.6783C10.9739 37.6561 9.59389 36.2761 8.57167 34.5383C7.52389 32.7494 7 30.82 7 28.75V17.25ZM41.5 36.4167V17.25C41.5 15.87 41.155 14.5922 40.465 13.4167C39.775 12.2411 38.8422 11.3083 37.6667 10.6183C36.4911 9.92833 35.2133 9.58333 33.8333 9.58333H18.5C17.12 9.58333 15.8422 9.92833 14.6667 10.6183C13.4911 11.3083 12.5583 12.2347 11.8683 13.3975C11.1783 14.5603 10.8333 15.8444 10.8333 17.25V28.75C10.8333 30.13 11.1783 31.4078 11.8683 32.5833C12.5583 33.7589 13.4911 34.6917 14.6667 35.3817C15.8422 36.0717 17.12 36.4167 18.5 36.4167H41.5ZM30 21.0833H33.8333V24.9167H30V21.0833ZM18.5 21.0833H22.3333V24.9167H18.5V21.0833Z" fill="#F53E32"/>
</g>
</svg>
