<svg width="18" height="17" viewBox="0 0 18 17" fill="none" xmlns="http://www.w3.org/2000/svg">
<g clip-path="url(#clip0_8342_24747)">
<path d="M4.25 7.08333H7.4375L7.08333 8.5H4.25V14.875H2.83333V8.5H0V7.08333H2.83333V5.75167C2.83333 5.15667 2.86167 4.69389 2.91833 4.36333C2.975 4.08944 3.06944 3.825 3.20167 3.57C3.45667 3.10722 3.81556 2.75306 4.27833 2.5075C4.52389 2.36583 4.78833 2.27139 5.07167 2.22417C5.40222 2.15806 5.865 2.125 6.46 2.125C6.82833 2.125 7.14944 2.15806 7.42333 2.22417V3.54167H6.46C6.00667 3.54167 5.67847 3.55583 5.47542 3.58417C5.27236 3.6125 5.09528 3.66917 4.94417 3.75417C4.72694 3.8675 4.56167 4.02806 4.44833 4.23583C4.37278 4.38694 4.32083 4.56403 4.2925 4.76708C4.26417 4.97014 4.24528 5.29833 4.23583 5.75167V7.08333H4.25Z" fill="black"/>
</g>
<defs>
<clipPath id="clip0_8342_24747">
<rect width="17.48" height="17" fill="white" transform="matrix(1 0 0 -1 0 17)"/>
</clipPath>
</defs>
</svg>
