<svg width="321" height="107" viewBox="0 0 321 107" fill="none" xmlns="http://www.w3.org/2000/svg">
<rect width="321" height="107" rx="10" fill="#F4F6FA"/>
<g clip-path="url(#clip0_8336_989)">
<g clip-path="url(#clip1_8336_989)">
<g clip-path="url(#clip2_8336_989)">
<mask id="mask0_8336_989" style="mask-type:luminance" maskUnits="userSpaceOnUse" x="20" y="20" width="60" height="60">
<path d="M79.4671 20H20.1621V79.305H79.4671V20Z" fill="white"/>
</mask>
<g mask="url(#mask0_8336_989)">
<path d="M58.1426 48.2857L61.1426 43.5714L65.4283 41.4286C65.9997 41.2857 67.2283 41.0857 67.5711 41.4286C67.914 41.7714 72.8569 48.4286 75.2854 51.7143L77.4283 55.5714C76.9997 56.4286 76.0569 58.2286 75.714 58.5714C75.3711 58.9143 72.1425 60.4286 70.5711 61.1429C69.714 61.2857 67.914 61.5714 67.5711 61.5714C67.2283 61.5714 63.1425 56.1429 61.1426 53.4286L58.8926 49.5714L58.1426 48.2857Z" fill="#FDC040"/>
<path d="M67.5723 61.5715C67.2294 61.5715 63.1437 56.143 61.1437 53.4287L58.8937 49.5715H57.2866H53.0008C52.5723 49.5715 50.4294 50.4287 49.5723 50.8572L47.0008 52.143C46.1437 52.5715 45.2866 53.4287 44.858 53.8572C44.4294 54.2858 43.5723 55.5715 43.5723 56.0001C43.5723 56.4287 43.5723 57.2858 44.0008 57.7144C44.4294 58.143 45.2866 58.5715 45.7151 58.5715H48.2866C48.9723 58.5715 50.858 57.7144 51.7151 57.2858C52.0008 57.4287 52.658 57.8001 53.0008 58.143C53.3437 58.4858 56.2865 60.5715 57.7151 61.5715L61.1437 65.0001C61.7152 65.2858 62.9437 65.7715 63.2866 65.4287C63.6294 65.0858 64.858 64.143 65.4294 63.7144L66.7151 62.8572L67.5723 61.5715Z" fill="#FDC040"/>
<path d="M33.2852 66.2856C33.2852 66.9714 34.428 68.2856 34.9994 68.8571L37.9994 71.4285L39.7137 72.7142L41.428 74.4285C41.9995 74.7142 43.1423 75.3714 43.1423 75.7142C43.1423 76.0571 44.8566 76.4285 45.7137 76.5714C46.1423 76.2857 47.0852 75.6285 47.428 75.2856C47.8566 74.8571 47.8566 74.8571 47.8566 73.9999C47.8566 73.1428 47.8566 72.2856 47.428 71.4285C46.9994 70.5714 46.9994 68.8571 46.5709 68.4285C46.1423 67.9999 44.428 67.1428 44.428 66.7142C44.428 66.2856 43.1423 64.5714 42.7137 64.1428C42.2852 63.7142 41.428 61.9999 40.9994 61.5714C40.5709 61.1428 39.2852 60.2856 38.428 60.7142C37.5709 61.1428 34.9994 63.2856 34.5709 63.7142C34.228 64.0571 33.5708 65.5714 33.2852 66.2856Z" fill="#FDC040"/>
<path d="M41.4294 24.2856C44.0008 27.8571 51.3723 34.8285 60.2866 34.1428L58.5723 39.2856L56.0008 41.4285L47.858 43.9999L41.4294 41.8571L37.5723 34.9999L38.0008 29.4285L40.1437 25.5714L41.4294 24.2856Z" fill="#FDC040"/>
<path d="M48.8569 35.4071C48.4044 35.4071 47.8496 35.3409 47.4697 34.9175C47.3376 34.7688 47.2219 34.6299 47.1097 34.5141C46.2047 33.5617 44.6458 34.8845 45.5904 36.1211L45.8183 36.4154C45.9669 36.6008 46.2345 36.8156 46.6175 37.0604C46.9908 37.2983 47.4069 37.4703 47.8693 37.5728V39.2065C47.8693 39.7686 48.3282 40.2316 48.8899 40.2316C49.4547 40.2316 49.9335 39.7686 49.9335 39.2065V37.5629C50.6734 37.3912 51.3075 37.0306 51.826 36.4851C52.3476 35.9393 52.6086 35.2152 52.6086 34.3124C52.6086 33.6974 52.4899 33.1849 52.252 32.7714C52.0142 32.3614 51.7235 32.0738 51.3767 31.9116C51.0267 31.7495 50.6469 31.6073 50.2274 31.4851C49.8113 31.3628 49.4315 31.2767 49.0814 31.2239C48.7347 31.1741 48.444 31.0683 48.2062 30.9131C47.9683 30.7541 47.8495 30.5492 47.8495 30.2945C47.8495 29.0777 49.633 29.2265 50.4189 29.8878C51.5782 30.8633 52.876 29.0777 51.5319 28.0692L51.3766 27.9302C51.2709 27.8477 51.086 27.7451 50.8185 27.6161C50.5542 27.4872 50.2569 27.3912 49.9334 27.3217V26.3331V25.9033C49.9334 25.341 49.4742 24.8782 48.9095 24.8782C48.348 24.8782 47.8858 25.3409 47.8858 25.9033V27.3053C47.1326 27.4541 46.5084 27.8279 46.0759 28.38C45.64 28.9422 45.4186 29.564 45.4186 30.2581C45.4186 30.956 45.5806 31.5281 45.9041 31.9811C46.2278 32.4339 46.6209 32.7515 47.0866 32.9367C47.5489 33.1219 48.0112 33.2708 48.4736 33.3797C48.9392 33.4924 49.3324 33.6145 49.6558 33.7568C49.9796 33.8957 50.1414 34.0908 50.1414 34.3454C50.1415 35.0531 49.7122 35.4071 48.8569 35.4071Z" fill="#3BB77E"/>
<path d="M78.2429 53.4574L68.7254 41.2665C68.0843 40.4432 67.1123 39.9709 66.0589 39.9709C65.3153 39.9709 64.6114 40.207 64.0207 40.6552L57.792 45.4033C57.079 45.9466 56.6235 46.7352 56.5094 47.6236C56.4923 47.756 56.4843 47.888 56.4829 48.0194C54.1083 47.8395 51.6557 48.0204 49.2739 49.5685L49.1671 49.6379L43.1418 48.7165C43.1541 48.5078 43.1475 48.2967 43.1199 48.0848C43.0051 47.1985 42.5504 46.4118 41.8388 45.8693L35.6085 41.1255C34.1488 40.0093 32.0383 40.2805 30.9033 41.7316L28.6344 44.6383C28.2373 45.1468 28.3279 45.8809 28.8364 46.2777C29.345 46.6747 30.079 46.5841 30.476 46.0757L32.7441 43.17C33.0875 42.7309 33.7493 42.6445 34.1913 42.9827L40.423 47.7275C40.6341 47.8884 40.7691 48.1219 40.8032 48.3853C40.8373 48.6491 40.7661 48.9102 40.6035 49.119L31.0841 61.3118C30.7431 61.7498 30.0804 61.8354 29.6391 61.5007L23.4101 56.7522C23.1979 56.5905 23.0623 56.3561 23.0283 56.0924C22.9946 55.8298 23.0658 55.5705 23.2297 55.3611L24.8481 53.2879C25.2451 52.7793 25.1546 52.0453 24.646 51.6485C24.1375 51.2513 23.4035 51.342 23.0064 51.8505L21.389 53.9226C20.838 54.627 20.5973 55.5032 20.7113 56.39C20.8253 57.2783 21.281 58.0669 21.9938 58.6101L28.2248 63.3603C28.8312 63.8203 29.5479 64.0428 30.2598 64.0427C30.6716 64.0427 31.0813 63.967 31.4676 63.8211L32.274 64.9255C31.8357 65.7251 31.7673 66.6856 32.1196 67.6125C32.6231 68.9379 33.8112 69.8365 35.0966 69.8792C35.1364 70.0681 35.1916 70.2567 35.2671 70.4436C35.7852 71.7273 36.9682 72.6011 38.2395 72.6586C38.2453 72.6919 38.2497 72.7254 38.2565 72.7588C38.4984 73.9342 39.4001 74.938 40.5537 75.3162C40.8475 75.4125 41.1438 75.462 41.4372 75.4707C41.5496 75.9439 41.7844 76.4011 42.1455 76.8023C42.7083 77.4279 43.53 77.8282 44.4314 77.828C45.086 77.828 45.7827 77.6156 46.4523 77.1261L47.775 78.3625C48.4487 78.9913 49.2969 79.3051 50.1369 79.3051C50.9889 79.3051 51.8324 78.9821 52.4765 78.3373C52.8606 77.9529 53.1582 77.4955 53.3507 77.014C53.6789 77.1138 53.9996 77.161 54.3072 77.161C55.1735 77.1609 55.938 76.7951 56.4857 76.2309C56.9339 75.7693 57.2547 75.1549 57.3966 74.4998C57.444 74.5022 57.4914 74.5042 57.539 74.5046C57.5507 74.5048 57.5621 74.5048 57.5738 74.5048C58.4952 74.5048 59.3792 74.1479 60.0035 73.5227C60.4409 73.0849 60.7418 72.5459 60.8854 71.9575C61.1083 72.0009 61.3321 72.0236 61.5554 72.0236C61.8365 72.0236 62.117 71.9887 62.3932 71.9179C63.5196 71.6293 64.3894 70.749 64.6631 69.6205C64.9157 68.5791 64.6555 67.4821 63.947 66.485C65.7814 65.0091 66.5235 64.2821 67.3615 62.9227C67.9339 63.3438 68.6307 63.5757 69.3672 63.5757C70.1129 63.5757 70.8182 63.3379 71.4045 62.8896L77.6373 58.144C78.3483 57.602 78.8031 56.8154 78.918 55.929C79.0329 55.0417 78.7935 54.1643 78.2429 53.4574ZM35.7076 67.3035C35.5287 67.4652 35.3552 67.5472 35.1918 67.5472C34.8563 67.5472 34.4662 67.2116 34.3034 66.783C34.1555 66.3937 34.2244 66.0684 34.5089 65.8158L34.5127 65.8125L34.5162 65.8094L38.4514 62.3116C38.7807 62.0196 39.1119 61.8652 39.4097 61.8652C39.8455 61.8652 40.1713 62.1961 40.2896 62.5038C40.4161 62.8323 40.34 63.1255 40.0647 63.3745L39.3788 63.9931L39.377 63.9947C39.3735 63.9976 39.3704 64.0006 39.3669 64.0036C39.3424 64.0259 39.3171 64.0488 39.292 64.0714L35.7076 67.3035ZM38.8885 70.0954C38.7111 70.2521 38.5421 70.328 38.3721 70.328C38.0175 70.328 37.6053 69.9949 37.4336 69.5691C37.2442 69.1003 37.4689 68.8838 37.5399 68.8152C37.5855 68.7715 37.6403 68.7189 37.6974 68.6578L37.6984 68.6569L37.7105 68.6462C37.9352 68.4455 39.9139 66.6577 40.8593 65.8034L40.9298 65.7399C41.2502 65.4587 41.5747 65.3101 41.8688 65.3101C42.3326 65.3101 42.6778 65.665 42.8024 65.9947C42.9262 66.3224 42.8519 66.6093 42.5825 66.8466L42.3402 67.0597C42.3384 67.0613 42.3366 67.0626 42.3349 67.0642L42.3332 67.0659L38.8885 70.0954ZM42.3701 72.6166C42.354 72.6311 42.3388 72.6463 42.3232 72.661L42.0491 72.9083C41.8055 73.1284 41.5616 73.1884 41.2813 73.0964C40.9269 72.9802 40.6175 72.6403 40.545 72.2881C40.4819 71.982 40.6045 71.6983 40.9156 71.424L41.3054 71.0834C41.3152 71.0749 41.3237 71.0654 41.3332 71.0566L43.8863 68.8113C44.4981 68.2705 45.1041 68.2163 45.5073 68.6671C45.5641 68.7307 46.045 69.3024 45.4579 69.8328L43.8899 71.2477C43.8731 71.2625 43.8561 71.2758 43.8394 71.2909C43.8335 71.2964 43.8286 71.3027 43.8228 71.308L42.388 72.6026C42.3823 72.6076 42.3758 72.6115 42.3701 72.6166ZM43.8824 75.2397C43.7593 75.1031 43.5218 74.7488 43.9113 74.3746L45.4755 72.9632C45.5939 72.862 45.708 72.7817 45.8148 72.7266C45.8196 72.724 45.8247 72.7214 45.8295 72.7189C46.46 72.3822 46.8016 72.7747 46.8915 72.903C47.007 73.0679 47.1478 73.3919 46.7937 73.71L45.7221 74.6732C45.718 74.6768 45.7141 74.6805 45.7101 74.6841L45.2455 75.1016C44.482 75.7869 44.0091 75.3808 43.8824 75.2397ZM62.3927 69.0698C62.3209 69.3657 62.1098 69.579 61.8134 69.655C61.322 69.7807 60.7 69.5079 60.1305 68.9236C60.0879 68.8764 60.0441 68.8298 59.9983 68.7848L55.5891 64.4263C55.1301 63.9729 54.3906 63.9771 53.9372 64.4359C53.4837 64.8947 53.4879 65.6343 53.9466 66.0877L58.3487 70.4391C58.3561 70.4469 58.3635 70.4545 58.3707 70.4624C58.5466 70.6432 58.6444 70.8848 58.6455 71.1464C58.6466 71.4227 58.5418 71.6803 58.3505 71.8718C58.1618 72.0609 57.8795 72.1688 57.5745 72.1688C57.5702 72.1688 57.566 72.1688 57.5617 72.1686C57.2916 72.1661 57.0451 72.0756 56.8716 71.9177C56.7985 71.8232 56.7189 71.7316 56.6314 71.6437L53.4081 68.4164C52.9521 67.9602 52.2125 67.9597 51.7561 68.4154C51.2997 68.8712 51.2992 69.6108 51.755 70.0672L54.8119 73.1279C54.8487 73.1818 54.8896 73.2337 54.9366 73.2824L55.0667 73.4165C55.2343 73.7356 55.1304 74.2732 54.8096 74.6038C54.3145 75.1136 53.6177 74.6642 53.1213 74.198L51.7409 72.8984C51.2712 72.4562 50.5318 72.4786 50.0897 72.9482C49.6475 73.418 49.6698 74.1573 50.1395 74.5995L51.194 75.5921C51.1966 75.5945 51.1987 75.5971 51.2013 75.5995C51.2253 75.622 51.2616 75.656 51.2634 75.7738C51.2679 76.0476 51.0872 76.4229 50.8239 76.6865C50.4395 77.0711 49.8005 77.0574 49.3697 76.6553L48.2138 75.5749L48.355 75.4478C49.5013 74.4185 49.6863 72.8211 48.8049 71.5629C48.5181 71.1535 48.1589 70.8354 47.756 70.6147C48.324 69.4945 48.1652 68.1343 47.2484 67.1096C46.7313 66.5314 46.0007 66.1365 45.1852 66.0491C45.1619 65.756 45.0978 65.4607 44.9878 65.1695C44.5911 64.1189 43.709 63.3456 42.6709 63.0778C42.7141 62.6124 42.6498 62.1319 42.4701 61.6645C41.9784 60.3873 40.7487 59.529 39.4098 59.529C38.5318 59.529 37.6645 59.8868 36.9005 60.5645L33.9182 63.2154L33.2626 62.3176L42.1545 50.9287L46.2198 51.5505L45.6048 51.9495C42.3105 54.0868 42.0694 56.5724 42.9423 58.1861C43.6409 59.4777 45.0351 60.216 46.5151 60.216C47.1243 60.2159 47.7484 60.0907 48.3441 59.8275C48.3599 59.8204 48.3755 59.8132 48.3909 59.8056L51.4706 58.2786L53.2484 59.8974C53.2502 59.8989 53.252 59.9001 53.2536 59.9017C53.2553 59.9032 53.2568 59.9048 53.2585 59.9065L61.4757 67.2145C62.1798 67.8405 62.5227 68.5341 62.3927 69.0698ZM62.2945 64.8164L54.8161 58.1654L52.4531 56.014C52.0973 55.6898 51.5789 55.6171 51.1479 55.8311L47.3782 57.7003C46.3541 58.1407 45.3467 57.7216 44.9969 57.0749C44.5162 56.1863 45.2362 54.9733 46.8761 53.9095L50.5462 51.5279C52.5362 50.2343 54.6237 50.1345 57.4792 50.4659L65.7477 61.0605C64.8752 62.6275 64.4118 63.1249 62.2945 64.8164ZM76.6011 55.6286C76.5671 55.8917 76.432 56.1252 76.2214 56.2857L69.9873 61.0323C69.7634 61.2037 69.5266 61.2396 69.3675 61.2396C69.0398 61.2395 68.7389 61.0952 68.543 60.8446L59.027 48.6517C58.8638 48.443 58.7926 48.1837 58.8264 47.9213C58.8603 47.6575 58.9958 47.4229 59.2082 47.2611L65.435 42.5144C65.6609 42.3432 65.8988 42.3072 66.0587 42.3072C66.3867 42.3072 66.6868 42.4509 66.883 42.7028L76.4006 54.8938C76.5641 55.104 76.6354 55.3648 76.6011 55.6286Z" fill="#3BB77E"/>
<path d="M42.9602 43.7293C44.7941 44.7189 46.8658 45.2419 48.9512 45.2419C55.9035 45.2419 61.5598 39.5794 61.5598 32.6192C61.5598 27.7615 58.7238 23.2819 54.3358 21.2071C52.6455 20.4061 50.8338 20 48.9512 20C42.0004 20 36.3457 25.661 36.3457 32.6192C36.3457 37.2601 38.8795 41.5169 42.9602 43.7293ZM48.9512 22.3361C50.485 22.3361 51.9602 22.6665 53.3363 23.3184C56.9126 25.0094 59.2235 28.6603 59.2235 32.6192C59.2235 38.2913 54.6154 42.9059 48.9513 42.9059C47.2518 42.9059 45.5638 42.4796 44.0717 41.6746C40.7471 39.8719 38.6818 36.4021 38.6818 32.6192C38.6818 26.9491 43.2886 22.3361 48.9512 22.3361Z" fill="#3BB77E"/>
<path d="M26.0118 49.8743C26.2269 50.046 26.4841 50.1294 26.7397 50.1294C27.0828 50.1294 27.4227 49.9789 27.6533 49.6897L27.6665 49.6732C28.0689 49.169 27.9863 48.434 27.4821 48.0317C26.9779 47.6295 26.2429 47.7117 25.8406 48.2161L25.8274 48.2328C25.425 48.7369 25.5076 49.4719 26.0118 49.8743Z" fill="#3BB77E"/>
</g>
</g>
</g>
</g>
<path d="M102.412 45.21C102.124 45.21 101.89 45.126 101.71 44.958C101.542 44.778 101.458 44.556 101.458 44.292V33.528C101.458 33.264 101.548 33.048 101.728 32.88C101.908 32.7 102.124 32.61 102.376 32.61H108.46C108.724 32.61 108.94 32.694 109.108 32.862C109.288 33.03 109.378 33.24 109.378 33.492C109.378 33.72 109.288 33.918 109.108 34.086C108.94 34.254 108.724 34.338 108.46 34.338H103.204L103.33 34.158V38.172L103.222 37.956H107.65C107.914 37.956 108.13 38.04 108.298 38.208C108.478 38.376 108.568 38.586 108.568 38.838C108.568 39.066 108.478 39.264 108.298 39.432C108.13 39.6 107.914 39.684 107.65 39.684H103.186L103.33 39.54V44.292C103.33 44.556 103.24 44.778 103.06 44.958C102.88 45.126 102.664 45.21 102.412 45.21ZM112.144 45.21C111.88 45.21 111.664 45.126 111.496 44.958C111.328 44.778 111.244 44.556 111.244 44.292V36.66C111.244 36.396 111.328 36.18 111.496 36.012C111.664 35.832 111.88 35.742 112.144 35.742C112.396 35.742 112.606 35.832 112.774 36.012C112.954 36.18 113.044 36.396 113.044 36.66V38.676L112.864 37.902C112.96 37.566 113.104 37.254 113.296 36.966C113.5 36.678 113.74 36.426 114.016 36.21C114.292 35.994 114.598 35.826 114.934 35.706C115.282 35.586 115.642 35.526 116.014 35.526C116.326 35.526 116.596 35.61 116.824 35.778C117.052 35.946 117.166 36.156 117.166 36.408C117.166 36.732 117.082 36.972 116.914 37.128C116.746 37.272 116.56 37.344 116.356 37.344C116.176 37.344 116.002 37.308 115.834 37.236C115.666 37.152 115.468 37.11 115.24 37.11C114.988 37.11 114.73 37.176 114.466 37.308C114.202 37.44 113.962 37.638 113.746 37.902C113.53 38.154 113.356 38.454 113.224 38.802C113.104 39.15 113.044 39.54 113.044 39.972V44.292C113.044 44.556 112.954 44.778 112.774 44.958C112.606 45.126 112.396 45.21 112.144 45.21ZM122.774 45.39C121.778 45.39 120.914 45.186 120.182 44.778C119.45 44.358 118.88 43.788 118.472 43.068C118.076 42.336 117.878 41.502 117.878 40.566C117.878 39.51 118.088 38.61 118.508 37.866C118.94 37.11 119.498 36.534 120.182 36.138C120.866 35.73 121.592 35.526 122.36 35.526C122.948 35.526 123.506 35.646 124.034 35.886C124.562 36.114 125.03 36.438 125.438 36.858C125.858 37.266 126.188 37.752 126.428 38.316C126.668 38.868 126.794 39.474 126.806 40.134C126.794 40.374 126.698 40.572 126.518 40.728C126.338 40.884 126.128 40.962 125.888 40.962H118.886L118.454 39.432H125.222L124.88 39.756V39.306C124.856 38.886 124.718 38.52 124.466 38.208C124.214 37.884 123.902 37.638 123.53 37.47C123.158 37.29 122.768 37.2 122.36 37.2C122 37.2 121.652 37.26 121.316 37.38C120.992 37.488 120.698 37.668 120.434 37.92C120.182 38.172 119.978 38.508 119.822 38.928C119.678 39.336 119.606 39.846 119.606 40.458C119.606 41.118 119.744 41.694 120.02 42.186C120.296 42.678 120.668 43.062 121.136 43.338C121.604 43.602 122.12 43.734 122.684 43.734C123.128 43.734 123.494 43.692 123.782 43.608C124.07 43.512 124.31 43.398 124.502 43.266C124.694 43.134 124.862 43.008 125.006 42.888C125.186 42.78 125.366 42.726 125.546 42.726C125.762 42.726 125.942 42.804 126.086 42.96C126.23 43.104 126.302 43.278 126.302 43.482C126.302 43.746 126.17 43.986 125.906 44.202C125.582 44.514 125.132 44.79 124.556 45.03C123.992 45.27 123.398 45.39 122.774 45.39ZM133.25 45.39C132.254 45.39 131.39 45.186 130.658 44.778C129.926 44.358 129.356 43.788 128.948 43.068C128.552 42.336 128.354 41.502 128.354 40.566C128.354 39.51 128.564 38.61 128.984 37.866C129.416 37.11 129.974 36.534 130.658 36.138C131.342 35.73 132.068 35.526 132.836 35.526C133.424 35.526 133.982 35.646 134.51 35.886C135.038 36.114 135.506 36.438 135.914 36.858C136.334 37.266 136.664 37.752 136.904 38.316C137.144 38.868 137.27 39.474 137.282 40.134C137.27 40.374 137.174 40.572 136.994 40.728C136.814 40.884 136.604 40.962 136.364 40.962H129.362L128.93 39.432H135.698L135.356 39.756V39.306C135.332 38.886 135.194 38.52 134.942 38.208C134.69 37.884 134.378 37.638 134.006 37.47C133.634 37.29 133.244 37.2 132.836 37.2C132.476 37.2 132.128 37.26 131.792 37.38C131.468 37.488 131.174 37.668 130.91 37.92C130.658 38.172 130.454 38.508 130.298 38.928C130.154 39.336 130.082 39.846 130.082 40.458C130.082 41.118 130.22 41.694 130.496 42.186C130.772 42.678 131.144 43.062 131.612 43.338C132.08 43.602 132.596 43.734 133.16 43.734C133.604 43.734 133.97 43.692 134.258 43.608C134.546 43.512 134.786 43.398 134.978 43.266C135.17 43.134 135.338 43.008 135.482 42.888C135.662 42.78 135.842 42.726 136.022 42.726C136.238 42.726 136.418 42.804 136.562 42.96C136.706 43.104 136.778 43.278 136.778 43.482C136.778 43.746 136.646 43.986 136.382 44.202C136.058 44.514 135.608 44.79 135.032 45.03C134.468 45.27 133.874 45.39 133.25 45.39ZM152.084 31.89C152.348 31.89 152.564 31.974 152.732 32.142C152.9 32.31 152.984 32.532 152.984 32.808V44.292C152.984 44.556 152.9 44.778 152.732 44.958C152.564 45.126 152.348 45.21 152.084 45.21C151.832 45.21 151.616 45.126 151.436 44.958C151.268 44.778 151.184 44.556 151.184 44.292V42.996L151.562 43.014C151.562 43.23 151.472 43.476 151.292 43.752C151.124 44.016 150.89 44.274 150.59 44.526C150.29 44.778 149.936 44.988 149.528 45.156C149.12 45.312 148.682 45.39 148.214 45.39C147.386 45.39 146.642 45.18 145.982 44.76C145.322 44.328 144.8 43.746 144.416 43.014C144.032 42.27 143.84 41.418 143.84 40.458C143.84 39.498 144.032 38.652 144.416 37.92C144.8 37.176 145.316 36.594 145.964 36.174C146.624 35.742 147.356 35.526 148.16 35.526C148.664 35.526 149.132 35.61 149.564 35.778C150.008 35.946 150.392 36.162 150.716 36.426C151.04 36.69 151.292 36.972 151.472 37.272C151.652 37.56 151.742 37.836 151.742 38.1L151.184 38.154V32.808C151.184 32.544 151.268 32.328 151.436 32.16C151.616 31.98 151.832 31.89 152.084 31.89ZM148.412 43.734C148.988 43.734 149.486 43.59 149.906 43.302C150.338 43.014 150.674 42.624 150.914 42.132C151.154 41.64 151.274 41.082 151.274 40.458C151.274 39.834 151.154 39.276 150.914 38.784C150.674 38.292 150.338 37.902 149.906 37.614C149.474 37.326 148.976 37.182 148.412 37.182C147.86 37.182 147.368 37.326 146.936 37.614C146.516 37.902 146.18 38.292 145.928 38.784C145.688 39.276 145.568 39.834 145.568 40.458C145.568 41.082 145.688 41.64 145.928 42.132C146.18 42.624 146.516 43.014 146.936 43.302C147.368 43.59 147.86 43.734 148.412 43.734ZM159.916 45.39C158.92 45.39 158.056 45.186 157.324 44.778C156.592 44.358 156.022 43.788 155.614 43.068C155.218 42.336 155.02 41.502 155.02 40.566C155.02 39.51 155.23 38.61 155.65 37.866C156.082 37.11 156.64 36.534 157.324 36.138C158.008 35.73 158.734 35.526 159.502 35.526C160.09 35.526 160.648 35.646 161.176 35.886C161.704 36.114 162.172 36.438 162.58 36.858C163 37.266 163.33 37.752 163.57 38.316C163.81 38.868 163.936 39.474 163.948 40.134C163.936 40.374 163.84 40.572 163.66 40.728C163.48 40.884 163.27 40.962 163.03 40.962H156.028L155.596 39.432H162.364L162.022 39.756V39.306C161.998 38.886 161.86 38.52 161.608 38.208C161.356 37.884 161.044 37.638 160.672 37.47C160.3 37.29 159.91 37.2 159.502 37.2C159.142 37.2 158.794 37.26 158.458 37.38C158.134 37.488 157.84 37.668 157.576 37.92C157.324 38.172 157.12 38.508 156.964 38.928C156.82 39.336 156.748 39.846 156.748 40.458C156.748 41.118 156.886 41.694 157.162 42.186C157.438 42.678 157.81 43.062 158.278 43.338C158.746 43.602 159.262 43.734 159.826 43.734C160.27 43.734 160.636 43.692 160.924 43.608C161.212 43.512 161.452 43.398 161.644 43.266C161.836 43.134 162.004 43.008 162.148 42.888C162.328 42.78 162.508 42.726 162.688 42.726C162.904 42.726 163.084 42.804 163.228 42.96C163.372 43.104 163.444 43.278 163.444 43.482C163.444 43.746 163.312 43.986 163.048 44.202C162.724 44.514 162.274 44.79 161.698 45.03C161.134 45.27 160.54 45.39 159.916 45.39ZM167.927 44.292C167.927 44.556 167.837 44.778 167.657 44.958C167.489 45.126 167.279 45.21 167.027 45.21C166.775 45.21 166.559 45.126 166.379 44.958C166.211 44.778 166.127 44.556 166.127 44.292V32.808C166.127 32.544 166.217 32.328 166.397 32.16C166.577 31.98 166.793 31.89 167.045 31.89C167.309 31.89 167.519 31.98 167.675 32.16C167.843 32.328 167.927 32.544 167.927 32.808V44.292ZM172.298 44.292C172.298 44.556 172.214 44.778 172.046 44.958C171.878 45.126 171.662 45.21 171.398 45.21C171.146 45.21 170.93 45.126 170.75 44.958C170.582 44.778 170.498 44.556 170.498 44.292V36.588C170.498 36.324 170.582 36.108 170.75 35.94C170.93 35.76 171.146 35.67 171.398 35.67C171.662 35.67 171.878 35.76 172.046 35.94C172.214 36.108 172.298 36.324 172.298 36.588V44.292ZM171.38 34.482C171.032 34.482 170.78 34.422 170.624 34.302C170.468 34.17 170.39 33.954 170.39 33.654V33.366C170.39 33.066 170.474 32.856 170.642 32.736C170.81 32.616 171.062 32.556 171.398 32.556C171.758 32.556 172.016 32.622 172.172 32.754C172.328 32.874 172.406 33.078 172.406 33.366V33.654C172.406 33.966 172.322 34.182 172.154 34.302C171.998 34.422 171.74 34.482 171.38 34.482ZM174.935 35.652C175.115 35.652 175.283 35.7 175.439 35.796C175.607 35.892 175.727 36.036 175.799 36.228L178.625 42.762L178.283 42.924L181.145 36.246C181.313 35.85 181.583 35.658 181.955 35.67C182.195 35.67 182.393 35.748 182.549 35.904C182.717 36.048 182.801 36.24 182.801 36.48C182.801 36.552 182.789 36.63 182.765 36.714C182.741 36.786 182.711 36.858 182.675 36.93L179.255 44.634C179.099 44.994 178.841 45.186 178.481 45.21C178.301 45.234 178.121 45.198 177.941 45.102C177.773 44.994 177.641 44.838 177.545 44.634L174.143 36.93C174.119 36.882 174.095 36.822 174.071 36.75C174.047 36.666 174.035 36.57 174.035 36.462C174.035 36.282 174.113 36.102 174.269 35.922C174.437 35.742 174.659 35.652 174.935 35.652ZM188.955 45.39C187.959 45.39 187.095 45.186 186.363 44.778C185.631 44.358 185.061 43.788 184.653 43.068C184.257 42.336 184.059 41.502 184.059 40.566C184.059 39.51 184.269 38.61 184.689 37.866C185.121 37.11 185.679 36.534 186.363 36.138C187.047 35.73 187.773 35.526 188.541 35.526C189.129 35.526 189.687 35.646 190.215 35.886C190.743 36.114 191.211 36.438 191.619 36.858C192.039 37.266 192.369 37.752 192.609 38.316C192.849 38.868 192.975 39.474 192.987 40.134C192.975 40.374 192.879 40.572 192.699 40.728C192.519 40.884 192.309 40.962 192.069 40.962H185.067L184.635 39.432H191.403L191.061 39.756V39.306C191.037 38.886 190.899 38.52 190.647 38.208C190.395 37.884 190.083 37.638 189.711 37.47C189.339 37.29 188.949 37.2 188.541 37.2C188.181 37.2 187.833 37.26 187.497 37.38C187.173 37.488 186.879 37.668 186.615 37.92C186.363 38.172 186.159 38.508 186.003 38.928C185.859 39.336 185.787 39.846 185.787 40.458C185.787 41.118 185.925 41.694 186.201 42.186C186.477 42.678 186.849 43.062 187.317 43.338C187.785 43.602 188.301 43.734 188.865 43.734C189.309 43.734 189.675 43.692 189.963 43.608C190.251 43.512 190.491 43.398 190.683 43.266C190.875 43.134 191.043 43.008 191.187 42.888C191.367 42.78 191.547 42.726 191.727 42.726C191.943 42.726 192.123 42.804 192.267 42.96C192.411 43.104 192.483 43.278 192.483 43.482C192.483 43.746 192.351 43.986 192.087 44.202C191.763 44.514 191.313 44.79 190.737 45.03C190.173 45.27 189.579 45.39 188.955 45.39ZM195.922 45.21C195.658 45.21 195.442 45.126 195.274 44.958C195.106 44.778 195.022 44.556 195.022 44.292V36.66C195.022 36.396 195.106 36.18 195.274 36.012C195.442 35.832 195.658 35.742 195.922 35.742C196.174 35.742 196.384 35.832 196.552 36.012C196.732 36.18 196.822 36.396 196.822 36.66V38.676L196.642 37.902C196.738 37.566 196.882 37.254 197.074 36.966C197.278 36.678 197.518 36.426 197.794 36.21C198.07 35.994 198.376 35.826 198.712 35.706C199.06 35.586 199.42 35.526 199.792 35.526C200.104 35.526 200.374 35.61 200.602 35.778C200.83 35.946 200.944 36.156 200.944 36.408C200.944 36.732 200.86 36.972 200.692 37.128C200.524 37.272 200.338 37.344 200.134 37.344C199.954 37.344 199.78 37.308 199.612 37.236C199.444 37.152 199.246 37.11 199.018 37.11C198.766 37.11 198.508 37.176 198.244 37.308C197.98 37.44 197.74 37.638 197.524 37.902C197.308 38.154 197.134 38.454 197.002 38.802C196.882 39.15 196.822 39.54 196.822 39.972V44.292C196.822 44.556 196.732 44.778 196.552 44.958C196.384 45.126 196.174 45.21 195.922 45.21ZM209.583 35.67C209.847 35.67 210.063 35.76 210.231 35.94C210.399 36.108 210.483 36.324 210.483 36.588V44.328C210.483 45.384 210.279 46.242 209.871 46.902C209.475 47.562 208.935 48.042 208.251 48.342C207.579 48.654 206.817 48.81 205.965 48.81C205.533 48.81 205.101 48.768 204.669 48.684C204.237 48.612 203.883 48.504 203.607 48.36C203.319 48.228 203.115 48.066 202.995 47.874C202.875 47.682 202.857 47.472 202.941 47.244C203.025 46.956 203.169 46.758 203.373 46.65C203.577 46.554 203.787 46.548 204.003 46.632C204.207 46.716 204.477 46.824 204.813 46.956C205.149 47.088 205.533 47.154 205.965 47.154C206.553 47.154 207.051 47.058 207.459 46.866C207.867 46.674 208.173 46.374 208.377 45.966C208.593 45.558 208.701 45.03 208.701 44.382V43.14L208.989 43.572C208.797 43.968 208.545 44.298 208.233 44.562C207.921 44.826 207.549 45.03 207.117 45.174C206.697 45.318 206.229 45.39 205.713 45.39C205.053 45.39 204.483 45.246 204.003 44.958C203.535 44.658 203.175 44.25 202.923 43.734C202.671 43.206 202.545 42.606 202.545 41.934V36.588C202.545 36.324 202.629 36.108 202.797 35.94C202.965 35.76 203.181 35.67 203.445 35.67C203.697 35.67 203.907 35.76 204.075 35.94C204.255 36.108 204.345 36.324 204.345 36.588V41.448C204.345 42.24 204.519 42.822 204.867 43.194C205.215 43.554 205.731 43.734 206.415 43.734C206.871 43.734 207.267 43.638 207.603 43.446C207.939 43.254 208.203 42.99 208.395 42.654C208.587 42.306 208.683 41.904 208.683 41.448V36.588C208.683 36.324 208.767 36.108 208.935 35.94C209.115 35.76 209.331 35.67 209.583 35.67Z" fill="#242424"/>
<path d="M107.896 71.448C108.051 71.448 108.173 71.4934 108.264 71.584C108.355 71.6747 108.4 71.792 108.4 71.936V72.8H100.752V72.312C100.752 72.2107 100.773 72.1067 100.816 72C100.859 71.8934 100.925 71.7947 101.016 71.704L104.688 68.016C104.992 67.7067 105.269 67.4107 105.52 67.128C105.771 66.84 105.984 66.552 106.16 66.264C106.336 65.976 106.472 65.6854 106.568 65.392C106.664 65.0934 106.712 64.776 106.712 64.44C106.712 64.104 106.659 63.8107 106.552 63.56C106.445 63.304 106.299 63.0934 106.112 62.928C105.931 62.7627 105.715 62.64 105.464 62.56C105.213 62.4747 104.944 62.432 104.656 62.432C104.363 62.432 104.093 62.4747 103.848 62.56C103.603 62.6454 103.384 62.7654 103.192 62.92C103.005 63.0694 102.848 63.248 102.72 63.456C102.592 63.664 102.501 63.8934 102.448 64.144C102.384 64.3307 102.296 64.456 102.184 64.52C102.077 64.5787 101.925 64.5947 101.728 64.568L100.984 64.44C101.059 63.9174 101.203 63.456 101.416 63.056C101.635 62.6507 101.907 62.312 102.232 62.04C102.563 61.768 102.939 61.5627 103.36 61.424C103.781 61.28 104.237 61.208 104.728 61.208C105.213 61.208 105.667 61.28 106.088 61.424C106.509 61.568 106.875 61.7787 107.184 62.056C107.493 62.328 107.736 62.6614 107.912 63.056C108.088 63.4507 108.176 63.8987 108.176 64.4C108.176 64.8267 108.112 65.224 107.984 65.592C107.856 65.9547 107.683 66.3014 107.464 66.632C107.245 66.9627 106.992 67.2854 106.704 67.6C106.421 67.9147 106.12 68.232 105.8 68.552L102.776 71.64C102.989 71.5814 103.205 71.536 103.424 71.504C103.643 71.4667 103.853 71.448 104.056 71.448H107.896ZM115.121 68.664V63.936C115.121 63.7974 115.127 63.6454 115.137 63.48C115.148 63.3147 115.164 63.1467 115.185 62.976L111.009 68.664H115.121ZM118.105 68.664V69.48C118.105 69.5654 118.079 69.6374 118.025 69.696C117.977 69.7547 117.9 69.784 117.793 69.784H116.369V72.8H115.121V69.784H110.033C109.927 69.784 109.833 69.7547 109.753 69.696C109.679 69.632 109.631 69.5547 109.609 69.464L109.465 68.736L115.041 61.336H116.369V68.664H118.105ZM120.475 72.968C120.405 73.1547 120.296 73.2934 120.147 73.384C120.003 73.4747 119.853 73.52 119.699 73.52H119.099L123.907 61.544C123.971 61.3734 124.067 61.2427 124.195 61.152C124.328 61.0614 124.48 61.016 124.651 61.016H125.259L120.475 72.968ZM134.445 61.336V61.976C134.445 62.1574 134.424 62.3067 134.381 62.424C134.344 62.5414 134.306 62.64 134.269 62.72L129.517 72.296C129.448 72.4347 129.352 72.5547 129.229 72.656C129.106 72.752 128.944 72.8 128.741 72.8H127.717L132.533 63.344C132.602 63.2107 132.674 63.088 132.749 62.976C132.824 62.864 132.904 62.7574 132.989 62.656H127.005C126.914 62.656 126.834 62.6214 126.765 62.552C126.696 62.4774 126.661 62.3947 126.661 62.304V61.336H134.445ZM144.692 69.152C144.036 69.1734 143.476 69.2267 143.012 69.312C142.553 69.392 142.177 69.4987 141.884 69.632C141.596 69.7654 141.385 69.9227 141.252 70.104C141.124 70.2854 141.06 70.488 141.06 70.712C141.06 70.9254 141.095 71.1094 141.164 71.264C141.233 71.4187 141.327 71.5467 141.444 71.648C141.567 71.744 141.708 71.816 141.868 71.864C142.033 71.9067 142.209 71.928 142.396 71.928C142.647 71.928 142.876 71.904 143.084 71.856C143.292 71.8027 143.487 71.728 143.668 71.632C143.855 71.536 144.031 71.4214 144.196 71.288C144.367 71.1547 144.532 71.0027 144.692 70.832V69.152ZM140.092 65.84C140.54 65.408 141.023 65.0854 141.54 64.872C142.057 64.6587 142.631 64.552 143.26 64.552C143.713 64.552 144.116 64.6267 144.468 64.776C144.82 64.9254 145.116 65.1334 145.356 65.4C145.596 65.6667 145.777 65.9894 145.9 66.368C146.023 66.7467 146.084 67.1627 146.084 67.616V72.8H145.452C145.313 72.8 145.207 72.7787 145.132 72.736C145.057 72.688 144.999 72.5974 144.956 72.464L144.796 71.696C144.583 71.8934 144.375 72.0694 144.172 72.224C143.969 72.3734 143.756 72.5014 143.532 72.608C143.308 72.7094 143.068 72.7867 142.812 72.84C142.561 72.8987 142.281 72.928 141.972 72.928C141.657 72.928 141.361 72.8854 141.084 72.8C140.807 72.7094 140.564 72.576 140.356 72.4C140.153 72.224 139.991 72.0027 139.868 71.736C139.751 71.464 139.692 71.144 139.692 70.776C139.692 70.456 139.78 70.1494 139.956 69.856C140.132 69.5574 140.417 69.2934 140.812 69.064C141.207 68.8347 141.721 68.648 142.356 68.504C142.991 68.3547 143.769 68.2694 144.692 68.248V67.616C144.692 66.9867 144.556 66.512 144.284 66.192C144.012 65.8667 143.615 65.704 143.092 65.704C142.74 65.704 142.444 65.7494 142.204 65.84C141.969 65.9254 141.764 66.024 141.588 66.136C141.417 66.2427 141.268 66.3414 141.14 66.432C141.017 66.5174 140.895 66.56 140.772 66.56C140.676 66.56 140.593 66.536 140.524 66.488C140.455 66.4347 140.396 66.3707 140.348 66.296L140.092 65.84ZM148.253 72.8V64.696H149.109C149.312 64.696 149.437 64.7947 149.485 64.992L149.589 65.824C149.888 65.456 150.224 65.1547 150.597 64.92C150.97 64.6854 151.402 64.568 151.893 64.568C152.437 64.568 152.877 64.72 153.213 65.024C153.554 65.328 153.8 65.7387 153.949 66.256C154.066 65.9627 154.216 65.7094 154.397 65.496C154.584 65.2827 154.792 65.1067 155.021 64.968C155.25 64.8294 155.493 64.728 155.749 64.664C156.01 64.6 156.274 64.568 156.541 64.568C156.968 64.568 157.346 64.6374 157.677 64.776C158.013 64.9094 158.296 65.1067 158.525 65.368C158.76 65.6294 158.938 65.952 159.061 66.336C159.184 66.7147 159.245 67.1494 159.245 67.64V72.8H157.813V67.64C157.813 67.0054 157.674 66.5254 157.397 66.2C157.12 65.8694 156.72 65.704 156.197 65.704C155.962 65.704 155.738 65.7467 155.525 65.832C155.317 65.912 155.133 66.032 154.973 66.192C154.813 66.352 154.685 66.5547 154.589 66.8C154.498 67.04 154.453 67.32 154.453 67.64V72.8H153.021V67.64C153.021 66.9894 152.89 66.504 152.629 66.184C152.368 65.864 151.986 65.704 151.485 65.704C151.133 65.704 150.808 65.8 150.509 65.992C150.21 66.1787 149.936 66.4347 149.685 66.76V72.8H148.253ZM165.801 69.152C165.145 69.1734 164.585 69.2267 164.121 69.312C163.663 69.392 163.287 69.4987 162.993 69.632C162.705 69.7654 162.495 69.9227 162.361 70.104C162.233 70.2854 162.169 70.488 162.169 70.712C162.169 70.9254 162.204 71.1094 162.273 71.264C162.343 71.4187 162.436 71.5467 162.553 71.648C162.676 71.744 162.817 71.816 162.977 71.864C163.143 71.9067 163.319 71.928 163.505 71.928C163.756 71.928 163.985 71.904 164.193 71.856C164.401 71.8027 164.596 71.728 164.777 71.632C164.964 71.536 165.14 71.4214 165.305 71.288C165.476 71.1547 165.641 71.0027 165.801 70.832V69.152ZM161.201 65.84C161.649 65.408 162.132 65.0854 162.649 64.872C163.167 64.6587 163.74 64.552 164.369 64.552C164.823 64.552 165.225 64.6267 165.577 64.776C165.929 64.9254 166.225 65.1334 166.465 65.4C166.705 65.6667 166.887 65.9894 167.009 66.368C167.132 66.7467 167.193 67.1627 167.193 67.616V72.8H166.561C166.423 72.8 166.316 72.7787 166.241 72.736C166.167 72.688 166.108 72.5974 166.065 72.464L165.905 71.696C165.692 71.8934 165.484 72.0694 165.281 72.224C165.079 72.3734 164.865 72.5014 164.641 72.608C164.417 72.7094 164.177 72.7867 163.921 72.84C163.671 72.8987 163.391 72.928 163.081 72.928C162.767 72.928 162.471 72.8854 162.193 72.8C161.916 72.7094 161.673 72.576 161.465 72.4C161.263 72.224 161.1 72.0027 160.977 71.736C160.86 71.464 160.801 71.144 160.801 70.776C160.801 70.456 160.889 70.1494 161.065 69.856C161.241 69.5574 161.527 69.2934 161.921 69.064C162.316 68.8347 162.831 68.648 163.465 68.504C164.1 68.3547 164.879 68.2694 165.801 68.248V67.616C165.801 66.9867 165.665 66.512 165.393 66.192C165.121 65.8667 164.724 65.704 164.201 65.704C163.849 65.704 163.553 65.7494 163.313 65.84C163.079 65.9254 162.873 66.024 162.697 66.136C162.527 66.2427 162.377 66.3414 162.249 66.432C162.127 66.5174 162.004 66.56 161.881 66.56C161.785 66.56 161.703 66.536 161.633 66.488C161.564 66.4347 161.505 66.3707 161.457 66.296L161.201 65.84ZM174.954 65.304C174.954 65.4054 174.936 65.504 174.898 65.6C174.866 65.696 174.821 65.7787 174.762 65.848L170.37 71.688H174.802V72.8H168.698V72.208C168.698 72.1387 168.714 72.0587 168.746 71.968C168.778 71.872 168.826 71.7814 168.89 71.696L173.306 65.816H168.946V64.696H174.954V65.304ZM178.101 64.696V72.8H176.677V64.696H178.101ZM178.405 62.152C178.405 62.2907 178.375 62.4214 178.317 62.544C178.263 62.6614 178.189 62.768 178.093 62.864C178.002 62.9547 177.893 63.0267 177.765 63.08C177.642 63.1334 177.511 63.16 177.373 63.16C177.234 63.16 177.103 63.1334 176.981 63.08C176.863 63.0267 176.759 62.9547 176.669 62.864C176.578 62.768 176.506 62.6614 176.453 62.544C176.399 62.4214 176.373 62.2907 176.373 62.152C176.373 62.0134 176.399 61.8827 176.453 61.76C176.506 61.632 176.578 61.5227 176.669 61.432C176.759 61.336 176.863 61.2614 176.981 61.208C177.103 61.1547 177.234 61.128 177.373 61.128C177.511 61.128 177.642 61.1547 177.765 61.208C177.893 61.2614 178.002 61.336 178.093 61.432C178.189 61.5227 178.263 61.632 178.317 61.76C178.375 61.8827 178.405 62.0134 178.405 62.152ZM181.785 65.872C181.961 65.6747 182.147 65.496 182.345 65.336C182.542 65.176 182.75 65.04 182.969 64.928C183.193 64.8107 183.427 64.7227 183.673 64.664C183.923 64.6 184.193 64.568 184.481 64.568C184.923 64.568 185.313 64.6427 185.649 64.792C185.99 64.936 186.273 65.144 186.497 65.416C186.726 65.6827 186.899 66.0054 187.017 66.384C187.134 66.7627 187.193 67.1814 187.193 67.64V72.8H185.761V67.64C185.761 67.0267 185.619 66.552 185.337 66.216C185.059 65.8747 184.635 65.704 184.065 65.704C183.643 65.704 183.249 65.8054 182.881 66.008C182.518 66.2107 182.182 66.4854 181.873 66.832V72.8H180.441V64.696H181.297C181.499 64.696 181.625 64.7947 181.673 64.992L181.785 65.872ZM192.186 68.84C192.474 68.84 192.728 68.8 192.946 68.72C193.165 68.64 193.349 68.528 193.498 68.384C193.648 68.24 193.76 68.0694 193.834 67.872C193.909 67.6694 193.946 67.448 193.946 67.208C193.946 66.712 193.794 66.3174 193.49 66.024C193.192 65.7307 192.757 65.584 192.186 65.584C191.61 65.584 191.17 65.7307 190.866 66.024C190.568 66.3174 190.418 66.712 190.418 67.208C190.418 67.448 190.456 67.6694 190.53 67.872C190.61 68.0694 190.725 68.24 190.874 68.384C191.024 68.528 191.208 68.64 191.426 68.72C191.645 68.8 191.898 68.84 192.186 68.84ZM194.754 73.24C194.754 73.0427 194.698 72.8827 194.586 72.76C194.474 72.6374 194.322 72.5414 194.13 72.472C193.944 72.4027 193.725 72.3547 193.474 72.328C193.224 72.296 192.957 72.272 192.674 72.256C192.397 72.24 192.114 72.224 191.826 72.208C191.538 72.192 191.261 72.1654 190.994 72.128C190.696 72.2667 190.45 72.4427 190.258 72.656C190.072 72.864 189.978 73.1094 189.978 73.392C189.978 73.5734 190.024 73.7414 190.114 73.896C190.21 74.056 190.354 74.192 190.546 74.304C190.738 74.4214 190.978 74.512 191.266 74.576C191.56 74.6454 191.904 74.68 192.298 74.68C192.682 74.68 193.026 74.6454 193.33 74.576C193.634 74.5067 193.89 74.408 194.098 74.28C194.312 74.152 194.474 74 194.586 73.824C194.698 73.648 194.754 73.4534 194.754 73.24ZM196.202 65.016V65.544C196.202 65.72 196.09 65.832 195.866 65.88L194.946 66C195.128 66.352 195.218 66.7414 195.218 67.168C195.218 67.5627 195.141 67.9227 194.986 68.248C194.837 68.568 194.629 68.8427 194.362 69.072C194.096 69.3014 193.776 69.4774 193.402 69.6C193.029 69.7227 192.624 69.784 192.186 69.784C191.808 69.784 191.45 69.7387 191.114 69.648C190.944 69.7547 190.813 69.8694 190.722 69.992C190.632 70.1094 190.586 70.2294 190.586 70.352C190.586 70.544 190.664 70.6907 190.818 70.792C190.978 70.888 191.186 70.9574 191.442 71C191.698 71.0427 191.989 71.0694 192.314 71.08C192.645 71.0907 192.981 71.1094 193.322 71.136C193.669 71.1574 194.005 71.1974 194.33 71.256C194.661 71.3147 194.954 71.4107 195.21 71.544C195.466 71.6774 195.672 71.8614 195.826 72.096C195.986 72.3307 196.066 72.6347 196.066 73.008C196.066 73.3547 195.978 73.6907 195.802 74.016C195.632 74.3414 195.384 74.6294 195.058 74.88C194.733 75.136 194.333 75.3387 193.858 75.488C193.389 75.6427 192.858 75.72 192.266 75.72C191.674 75.72 191.157 75.6614 190.714 75.544C190.272 75.4267 189.904 75.2694 189.61 75.072C189.317 74.8747 189.096 74.6454 188.946 74.384C188.802 74.128 188.73 73.8587 188.73 73.576C188.73 73.176 188.856 72.8374 189.106 72.56C189.357 72.2827 189.701 72.0614 190.138 71.896C189.898 71.7894 189.706 71.648 189.562 71.472C189.424 71.2907 189.354 71.048 189.354 70.744C189.354 70.6267 189.376 70.5067 189.418 70.384C189.461 70.256 189.525 70.1307 189.61 70.008C189.701 69.88 189.81 69.76 189.938 69.648C190.066 69.536 190.216 69.4374 190.386 69.352C189.986 69.128 189.674 68.832 189.45 68.464C189.226 68.0907 189.114 67.6587 189.114 67.168C189.114 66.7734 189.189 66.416 189.338 66.096C189.493 65.7707 189.706 65.496 189.978 65.272C190.25 65.0427 190.573 64.8667 190.946 64.744C191.325 64.6214 191.738 64.56 192.186 64.56C192.538 64.56 192.866 64.6 193.17 64.68C193.474 64.7547 193.752 64.8667 194.002 65.016H196.202ZM206.489 66.032C206.425 66.1494 206.326 66.208 206.193 66.208C206.113 66.208 206.022 66.1787 205.921 66.12C205.819 66.0614 205.694 65.9974 205.545 65.928C205.401 65.8534 205.227 65.7867 205.025 65.728C204.822 65.664 204.582 65.632 204.305 65.632C204.065 65.632 203.849 65.664 203.657 65.728C203.465 65.7867 203.299 65.8694 203.161 65.976C203.027 66.0827 202.923 66.208 202.849 66.352C202.779 66.4907 202.745 66.6427 202.745 66.808C202.745 67.016 202.803 67.1894 202.921 67.328C203.043 67.4667 203.203 67.5867 203.401 67.688C203.598 67.7894 203.822 67.88 204.073 67.96C204.323 68.0347 204.579 68.1174 204.841 68.208C205.107 68.2934 205.366 68.3894 205.617 68.496C205.867 68.6027 206.091 68.736 206.289 68.896C206.486 69.056 206.643 69.2534 206.761 69.488C206.883 69.7174 206.945 69.9947 206.945 70.32C206.945 70.6934 206.878 71.04 206.745 71.36C206.611 71.6747 206.414 71.9494 206.153 72.184C205.891 72.4134 205.571 72.5947 205.193 72.728C204.814 72.8614 204.377 72.928 203.881 72.928C203.315 72.928 202.803 72.8374 202.345 72.656C201.886 72.4694 201.497 72.232 201.177 71.944L201.513 71.4C201.555 71.3307 201.606 71.2774 201.665 71.24C201.723 71.2027 201.798 71.184 201.889 71.184C201.985 71.184 202.086 71.2214 202.193 71.296C202.299 71.3707 202.427 71.4534 202.577 71.544C202.731 71.6347 202.918 71.7174 203.137 71.792C203.355 71.8667 203.627 71.904 203.953 71.904C204.23 71.904 204.473 71.8694 204.681 71.8C204.889 71.7254 205.062 71.6267 205.201 71.504C205.339 71.3814 205.441 71.24 205.505 71.08C205.574 70.92 205.609 70.7494 205.609 70.568C205.609 70.344 205.547 70.16 205.425 70.016C205.307 69.8667 205.15 69.7414 204.953 69.64C204.755 69.5334 204.529 69.4427 204.273 69.368C204.022 69.288 203.763 69.2054 203.497 69.12C203.235 69.0347 202.977 68.9387 202.721 68.832C202.47 68.72 202.246 68.5814 202.049 68.416C201.851 68.2507 201.691 68.048 201.569 67.808C201.451 67.5627 201.393 67.2667 201.393 66.92C201.393 66.6107 201.457 66.3147 201.585 66.032C201.713 65.744 201.899 65.4934 202.145 65.28C202.39 65.0614 202.691 64.888 203.049 64.76C203.406 64.632 203.814 64.568 204.273 64.568C204.806 64.568 205.283 64.6534 205.705 64.824C206.131 64.9894 206.499 65.2187 206.809 65.512L206.489 66.032ZM214.115 67.864C214.115 67.5334 214.067 67.232 213.971 66.96C213.88 66.6827 213.744 66.4454 213.563 66.248C213.387 66.0454 213.171 65.8907 212.915 65.784C212.659 65.672 212.368 65.616 212.043 65.616C211.36 65.616 210.819 65.816 210.419 66.216C210.024 66.6107 209.779 67.16 209.683 67.864H214.115ZM215.267 71.664C215.091 71.8774 214.88 72.064 214.635 72.224C214.389 72.3787 214.125 72.5067 213.843 72.608C213.565 72.7094 213.277 72.784 212.979 72.832C212.68 72.8854 212.384 72.912 212.091 72.912C211.531 72.912 211.013 72.8187 210.539 72.632C210.069 72.44 209.661 72.1627 209.315 71.8C208.973 71.432 208.707 70.9787 208.515 70.44C208.323 69.9014 208.227 69.2827 208.227 68.584C208.227 68.0187 208.312 67.4907 208.483 67C208.659 66.5094 208.909 66.0854 209.235 65.728C209.56 65.3654 209.957 65.0827 210.427 64.88C210.896 64.672 211.424 64.568 212.011 64.568C212.496 64.568 212.944 64.6507 213.355 64.816C213.771 64.976 214.128 65.2107 214.427 65.52C214.731 65.824 214.968 66.2027 215.139 66.656C215.309 67.104 215.395 67.616 215.395 68.192C215.395 68.416 215.371 68.5654 215.323 68.64C215.275 68.7147 215.184 68.752 215.051 68.752H209.635C209.651 69.264 209.72 69.7094 209.843 70.088C209.971 70.4667 210.147 70.784 210.371 71.04C210.595 71.2907 210.861 71.48 211.171 71.608C211.48 71.7307 211.827 71.792 212.211 71.792C212.568 71.792 212.875 71.752 213.131 71.672C213.392 71.5867 213.616 71.496 213.803 71.4C213.989 71.304 214.144 71.216 214.267 71.136C214.395 71.0507 214.504 71.008 214.595 71.008C214.712 71.008 214.803 71.0534 214.867 71.144L215.267 71.664ZM218.496 66.32C218.752 65.7654 219.066 65.3334 219.44 65.024C219.813 64.7094 220.269 64.552 220.808 64.552C220.978 64.552 221.141 64.5707 221.296 64.608C221.456 64.6454 221.597 64.704 221.72 64.784L221.616 65.848C221.584 65.9814 221.504 66.048 221.376 66.048C221.301 66.048 221.192 66.032 221.048 66C220.904 65.968 220.741 65.952 220.56 65.952C220.304 65.952 220.074 65.9894 219.872 66.064C219.674 66.1387 219.496 66.2507 219.336 66.4C219.181 66.544 219.04 66.7254 218.912 66.944C218.789 67.1574 218.677 67.4027 218.576 67.68V72.8H217.144V64.696H217.96C218.114 64.696 218.221 64.7254 218.28 64.784C218.338 64.8427 218.378 64.944 218.4 65.088L218.496 66.32ZM229.916 64.696L226.612 72.8H225.332L222.028 64.696H223.188C223.305 64.696 223.401 64.7254 223.476 64.784C223.55 64.8427 223.601 64.912 223.628 64.992L225.684 70.208C225.748 70.4054 225.804 70.5974 225.852 70.784C225.9 70.9707 225.945 71.1574 225.988 71.344C226.03 71.1574 226.076 70.9707 226.124 70.784C226.172 70.5974 226.23 70.4054 226.3 70.208L228.38 64.992C228.412 64.9067 228.465 64.8374 228.54 64.784C228.614 64.7254 228.702 64.696 228.804 64.696H229.916ZM232.726 64.696V72.8H231.302V64.696H232.726ZM233.03 62.152C233.03 62.2907 233 62.4214 232.942 62.544C232.888 62.6614 232.814 62.768 232.718 62.864C232.627 62.9547 232.518 63.0267 232.39 63.08C232.267 63.1334 232.136 63.16 231.998 63.16C231.859 63.16 231.728 63.1334 231.606 63.08C231.488 63.0267 231.384 62.9547 231.294 62.864C231.203 62.768 231.131 62.6614 231.078 62.544C231.024 62.4214 230.998 62.2907 230.998 62.152C230.998 62.0134 231.024 61.8827 231.078 61.76C231.131 61.632 231.203 61.5227 231.294 61.432C231.384 61.336 231.488 61.2614 231.606 61.208C231.728 61.1547 231.859 61.128 231.998 61.128C232.136 61.128 232.267 61.1547 232.39 61.208C232.518 61.2614 232.627 61.336 232.718 61.432C232.814 61.5227 232.888 61.632 232.942 61.76C233 61.8827 233.03 62.0134 233.03 62.152ZM240.706 66.136C240.663 66.1947 240.62 66.24 240.578 66.272C240.535 66.304 240.476 66.32 240.402 66.32C240.322 66.32 240.234 66.288 240.138 66.224C240.042 66.1547 239.922 66.08 239.778 66C239.639 65.92 239.466 65.848 239.258 65.784C239.055 65.7147 238.804 65.68 238.506 65.68C238.106 65.68 237.754 65.752 237.45 65.896C237.146 66.0347 236.89 66.2374 236.682 66.504C236.479 66.7707 236.324 67.0934 236.218 67.472C236.116 67.8507 236.066 68.2747 236.066 68.744C236.066 69.2347 236.122 69.672 236.234 70.056C236.346 70.4347 236.503 70.7547 236.706 71.016C236.914 71.272 237.162 71.4694 237.45 71.608C237.743 71.7414 238.071 71.808 238.434 71.808C238.78 71.808 239.066 71.768 239.29 71.688C239.514 71.6027 239.698 71.5094 239.842 71.408C239.991 71.3067 240.114 71.216 240.21 71.136C240.311 71.0507 240.41 71.008 240.506 71.008C240.623 71.008 240.714 71.0534 240.778 71.144L241.178 71.664C241.002 71.8827 240.802 72.0694 240.578 72.224C240.354 72.3787 240.111 72.5094 239.85 72.616C239.594 72.7174 239.324 72.792 239.042 72.84C238.759 72.888 238.471 72.912 238.178 72.912C237.671 72.912 237.199 72.8187 236.762 72.632C236.33 72.4454 235.954 72.176 235.634 71.824C235.314 71.4667 235.063 71.0294 234.882 70.512C234.7 69.9947 234.61 69.4054 234.61 68.744C234.61 68.1414 234.692 67.584 234.858 67.072C235.028 66.56 235.274 66.12 235.594 65.752C235.919 65.3787 236.316 65.088 236.786 64.88C237.26 64.672 237.804 64.568 238.418 64.568C238.988 64.568 239.49 64.6614 239.922 64.848C240.359 65.0294 240.746 65.288 241.082 65.624L240.706 66.136ZM247.99 67.864C247.99 67.5334 247.942 67.232 247.846 66.96C247.755 66.6827 247.619 66.4454 247.438 66.248C247.262 66.0454 247.046 65.8907 246.79 65.784C246.534 65.672 246.243 65.616 245.918 65.616C245.235 65.616 244.694 65.816 244.294 66.216C243.899 66.6107 243.654 67.16 243.558 67.864H247.99ZM249.142 71.664C248.966 71.8774 248.755 72.064 248.51 72.224C248.264 72.3787 248 72.5067 247.718 72.608C247.44 72.7094 247.152 72.784 246.854 72.832C246.555 72.8854 246.259 72.912 245.966 72.912C245.406 72.912 244.888 72.8187 244.414 72.632C243.944 72.44 243.536 72.1627 243.19 71.8C242.848 71.432 242.582 70.9787 242.39 70.44C242.198 69.9014 242.102 69.2827 242.102 68.584C242.102 68.0187 242.187 67.4907 242.358 67C242.534 66.5094 242.784 66.0854 243.11 65.728C243.435 65.3654 243.832 65.0827 244.302 64.88C244.771 64.672 245.299 64.568 245.886 64.568C246.371 64.568 246.819 64.6507 247.23 64.816C247.646 64.976 248.003 65.2107 248.302 65.52C248.606 65.824 248.843 66.2027 249.014 66.656C249.184 67.104 249.27 67.616 249.27 68.192C249.27 68.416 249.246 68.5654 249.198 68.64C249.15 68.7147 249.059 68.752 248.926 68.752H243.51C243.526 69.264 243.595 69.7094 243.718 70.088C243.846 70.4667 244.022 70.784 244.246 71.04C244.47 71.2907 244.736 71.48 245.046 71.608C245.355 71.7307 245.702 71.792 246.086 71.792C246.443 71.792 246.75 71.752 247.006 71.672C247.267 71.5867 247.491 71.496 247.678 71.4C247.864 71.304 248.019 71.216 248.142 71.136C248.27 71.0507 248.379 71.008 248.47 71.008C248.587 71.008 248.678 71.0534 248.742 71.144L249.142 71.664ZM255.739 66.032C255.675 66.1494 255.576 66.208 255.443 66.208C255.363 66.208 255.272 66.1787 255.171 66.12C255.069 66.0614 254.944 65.9974 254.795 65.928C254.651 65.8534 254.477 65.7867 254.275 65.728C254.072 65.664 253.832 65.632 253.555 65.632C253.315 65.632 253.099 65.664 252.907 65.728C252.715 65.7867 252.549 65.8694 252.411 65.976C252.277 66.0827 252.173 66.208 252.099 66.352C252.029 66.4907 251.995 66.6427 251.995 66.808C251.995 67.016 252.053 67.1894 252.171 67.328C252.293 67.4667 252.453 67.5867 252.651 67.688C252.848 67.7894 253.072 67.88 253.323 67.96C253.573 68.0347 253.829 68.1174 254.091 68.208C254.357 68.2934 254.616 68.3894 254.867 68.496C255.117 68.6027 255.341 68.736 255.539 68.896C255.736 69.056 255.893 69.2534 256.011 69.488C256.133 69.7174 256.195 69.9947 256.195 70.32C256.195 70.6934 256.128 71.04 255.995 71.36C255.861 71.6747 255.664 71.9494 255.403 72.184C255.141 72.4134 254.821 72.5947 254.443 72.728C254.064 72.8614 253.627 72.928 253.131 72.928C252.565 72.928 252.053 72.8374 251.595 72.656C251.136 72.4694 250.747 72.232 250.427 71.944L250.763 71.4C250.805 71.3307 250.856 71.2774 250.915 71.24C250.973 71.2027 251.048 71.184 251.139 71.184C251.235 71.184 251.336 71.2214 251.443 71.296C251.549 71.3707 251.677 71.4534 251.827 71.544C251.981 71.6347 252.168 71.7174 252.387 71.792C252.605 71.8667 252.877 71.904 253.203 71.904C253.48 71.904 253.723 71.8694 253.931 71.8C254.139 71.7254 254.312 71.6267 254.451 71.504C254.589 71.3814 254.691 71.24 254.755 71.08C254.824 70.92 254.859 70.7494 254.859 70.568C254.859 70.344 254.797 70.16 254.675 70.016C254.557 69.8667 254.4 69.7414 254.203 69.64C254.005 69.5334 253.779 69.4427 253.523 69.368C253.272 69.288 253.013 69.2054 252.747 69.12C252.485 69.0347 252.227 68.9387 251.971 68.832C251.72 68.72 251.496 68.5814 251.299 68.416C251.101 68.2507 250.941 68.048 250.819 67.808C250.701 67.5627 250.643 67.2667 250.643 66.92C250.643 66.6107 250.707 66.3147 250.835 66.032C250.963 65.744 251.149 65.4934 251.395 65.28C251.64 65.0614 251.941 64.888 252.299 64.76C252.656 64.632 253.064 64.568 253.523 64.568C254.056 64.568 254.533 64.6534 254.955 64.824C255.381 64.9894 255.749 65.2187 256.059 65.512L255.739 66.032Z" fill="#ADADAD"/>
<defs>
<clipPath id="clip0_8336_989">
<rect width="60" height="60" fill="white" transform="translate(20 20)"/>
</clipPath>
<clipPath id="clip1_8336_989">
<rect width="60" height="60" fill="white" transform="translate(20 20)"/>
</clipPath>
<clipPath id="clip2_8336_989">
<rect width="60" height="60" fill="white" transform="translate(20 20)"/>
</clipPath>
</defs>
</svg>
