<svg width="18" height="17" viewBox="0 0 18 17" fill="none" xmlns="http://www.w3.org/2000/svg">
<g clip-path="url(#clip0_8342_24756)">
<path d="M7.08333 6.37516C6.69611 6.37516 6.33958 6.46961 6.01375 6.6585C5.68792 6.84738 5.43056 7.10475 5.24167 7.43058C5.05278 7.75641 4.95833 8.11294 4.95833 8.50016C4.95833 8.88738 5.05278 9.24391 5.24167 9.56975C5.43056 9.89558 5.68792 10.1529 6.01375 10.3418C6.33958 10.5307 6.69611 10.6252 7.08333 10.6252C7.47056 10.6252 7.82708 10.5307 8.15292 10.3418C8.47875 10.1529 8.73611 9.89558 8.925 9.56975C9.11389 9.24391 9.20833 8.88738 9.20833 8.50016C9.20833 8.11294 9.11389 7.75641 8.925 7.43058C8.73611 7.10475 8.47875 6.84738 8.15292 6.6585C7.82708 6.46961 7.47056 6.37516 7.08333 6.37516ZM7.08333 4.9585C7.72556 4.9585 8.31819 5.11669 8.86125 5.43308C9.40431 5.74947 9.83403 6.17919 10.1504 6.72225C10.4668 7.2653 10.625 7.85794 10.625 8.50016C10.625 9.14238 10.4668 9.73502 10.1504 10.2781C9.83403 10.8211 9.40431 11.2509 8.86125 11.5672C8.31819 11.8836 7.72556 12.0418 7.08333 12.0418C6.44111 12.0418 5.84847 11.8836 5.30542 11.5672C4.76236 11.2509 4.33264 10.8211 4.01625 10.2781C3.69986 9.73502 3.54167 9.14238 3.54167 8.50016C3.54167 7.85794 3.69986 7.2653 4.01625 6.72225C4.33264 6.17919 4.76236 5.74947 5.30542 5.43308C5.84847 5.11669 6.44111 4.9585 7.08333 4.9585ZM11.6875 4.77433C11.6875 5.01989 11.6001 5.23002 11.4254 5.40475C11.2507 5.57947 11.0429 5.66683 10.8021 5.66683C10.5613 5.66683 10.3535 5.57947 10.1788 5.40475C10.004 5.23002 9.91667 5.02225 9.91667 4.78141C9.91667 4.54058 10.004 4.3328 10.1788 4.15808C10.3535 3.98336 10.5613 3.896 10.8021 3.896C11.0429 3.896 11.2507 3.98336 11.4254 4.15808C11.6001 4.3328 11.6875 4.53822 11.6875 4.77433ZM7.08333 2.8335C6.21444 2.8335 5.62417 2.83586 5.3125 2.84058C5.00083 2.8453 4.64194 2.85711 4.23583 2.876C3.72583 2.89488 3.30083 2.97044 2.96083 3.10266C2.66806 3.216 2.41069 3.38363 2.18875 3.60558C1.96681 3.82752 1.79917 4.08488 1.68583 4.37766C1.55361 4.71766 1.47806 5.14266 1.45917 5.65266C1.44028 6.03988 1.42847 6.38697 1.42375 6.69391C1.41903 7.00086 1.41667 7.60294 1.41667 8.50016C1.41667 9.36905 1.41903 9.95933 1.42375 10.271C1.42847 10.5827 1.44028 10.9416 1.45917 11.3477C1.47806 11.8577 1.55361 12.2827 1.68583 12.6227C1.79917 12.9154 1.96681 13.1728 2.18875 13.3947C2.41069 13.6167 2.66806 13.7796 2.96083 13.8835C3.30083 14.0252 3.72583 14.1054 4.23583 14.1243C4.62306 14.1432 4.97014 14.155 5.27708 14.1597C5.58403 14.1645 6.18611 14.1668 7.08333 14.1668C7.95222 14.1668 8.5425 14.1645 8.85417 14.1597C9.16583 14.155 9.52472 14.1432 9.93083 14.1243C10.4408 14.1054 10.8658 14.0299 11.2058 13.8977C11.4986 13.7843 11.756 13.6167 11.9779 13.3947C12.1999 13.1728 12.3628 12.9154 12.4667 12.6227C12.6083 12.2827 12.6886 11.8577 12.7075 11.3477C12.7264 10.9604 12.7382 10.6134 12.7429 10.3064C12.7476 9.99947 12.75 9.39738 12.75 8.50016C12.75 7.63127 12.7476 7.041 12.7429 6.72933C12.7382 6.41766 12.7264 6.05877 12.7075 5.65266C12.6886 5.14266 12.6131 4.71766 12.4808 4.37766C12.3675 4.08488 12.1999 3.82752 11.9779 3.60558C11.756 3.38363 11.4986 3.216 11.2058 3.10266C10.8658 2.97044 10.4408 2.89488 9.93083 2.876C9.54361 2.85711 9.19653 2.8453 8.88958 2.84058C8.58264 2.83586 7.98056 2.8335 7.08333 2.8335ZM7.08333 1.41683C8.00889 1.41683 8.64167 1.42155 8.98167 1.431C9.265 1.431 9.605 1.44044 10.0017 1.45933C10.6628 1.48766 11.2342 1.59627 11.7158 1.78516C12.1975 1.97405 12.6178 2.24794 12.9767 2.60683C13.3356 2.96572 13.6094 3.386 13.7983 3.86766C13.9872 4.34933 14.0958 4.92072 14.1242 5.58183C14.1431 5.98794 14.1525 6.32794 14.1525 6.60183C14.1619 6.96072 14.1667 7.59822 14.1667 8.51433C14.1667 9.43044 14.1619 10.0585 14.1525 10.3985C14.1525 10.6818 14.1431 11.0218 14.1242 11.4185C14.0958 12.0796 13.9872 12.651 13.7983 13.1327C13.6094 13.6143 13.3356 14.0346 12.9767 14.3935C12.6178 14.7524 12.1975 15.0263 11.7158 15.2152C11.2342 15.4041 10.6628 15.5127 10.0017 15.541C9.59556 15.5599 9.25556 15.5693 8.98167 15.5693C8.62278 15.5788 7.98528 15.5835 7.06917 15.5835C6.15306 15.5835 5.525 15.5788 5.185 15.5693C4.90167 15.5693 4.56167 15.5599 4.165 15.541C3.50389 15.5127 2.9325 15.4041 2.45083 15.2152C1.96917 15.0263 1.54889 14.7524 1.19 14.3935C0.831111 14.0346 0.557222 13.6143 0.368333 13.1327C0.179444 12.651 0.0708333 12.0796 0.0425 11.4185C0.0236111 11.0124 0.0141667 10.6724 0.0141667 10.3985C0.00472222 10.0396 0 9.40211 0 8.486C0 7.56988 0.00472222 6.94183 0.0141667 6.60183C0.0141667 6.3185 0.0236111 5.9785 0.0425 5.58183C0.0708333 4.92072 0.179444 4.34933 0.368333 3.86766C0.557222 3.386 0.831111 2.96572 1.19 2.60683C1.54889 2.24794 1.96917 1.97405 2.45083 1.78516C2.9325 1.59627 3.50389 1.48766 4.165 1.45933C4.57111 1.44044 4.91111 1.431 5.185 1.431C5.54389 1.42155 6.17667 1.41683 7.08333 1.41683Z" fill="black"/>
</g>
<defs>
<clipPath id="clip0_8342_24756">
<rect width="17.48" height="17" fill="white" transform="matrix(1 0 0 -1 0 17)"/>
</clipPath>
</defs>
</svg>
