<svg width="17" height="16" viewBox="0 0 17 16" fill="none" xmlns="http://www.w3.org/2000/svg">
<g clip-path="url(#clip0_12329_16244)">
<path d="M5.68 6.20048C5.99111 5.87159 6.33778 5.6227 6.72 5.45381C7.12889 5.26715 7.56 5.17381 8.01333 5.17381C8.67111 5.16493 9.28222 5.32493 9.84667 5.65382C10.4111 5.9827 10.8578 6.42937 11.1867 6.99381C11.5156 7.55826 11.68 8.16937 11.68 8.82715V13.8271H10.3467V8.82715C10.3467 8.40937 10.24 8.0227 10.0267 7.66715C9.81333 7.31159 9.52889 7.02715 9.17333 6.81382C8.81778 6.60048 8.42889 6.49381 8.00667 6.49381C7.58444 6.49381 7.19556 6.60048 6.84 6.81382C6.48444 7.02715 6.20222 7.31159 5.99333 7.66715C5.78444 8.0227 5.68 8.41382 5.68 8.84048V13.8271H4.34667V5.49381H5.68V6.20048ZM1 4.16048C0.724444 4.16048 0.488889 4.06493 0.293333 3.87381C0.0977778 3.6827 0 3.44715 0 3.16715C0 2.88715 0.0977778 2.64937 0.293333 2.45381C0.488889 2.25826 0.726667 2.16048 1.00667 2.16048C1.28667 2.16048 1.52222 2.25826 1.71333 2.45381C1.90444 2.64937 2 2.88715 2 3.16715C2 3.44715 1.90444 3.6827 1.71333 3.87381C1.52222 4.06493 1.28444 4.16048 1 4.16048ZM0.333333 5.49381H1.66667V13.8271H0.333333V5.49381Z" fill="black"/>
</g>
<defs>
<clipPath id="clip0_12329_16244">
<rect width="16.48" height="16" fill="white" transform="matrix(1 0 0 -1 0 16)"/>
</clipPath>
</defs>
</svg>
