<svg width="22" height="21" viewBox="0 0 22 21" fill="none" xmlns="http://www.w3.org/2000/svg">
<g clip-path="url(#clip0_8342_24744)">
<path d="M0.3325 7.84013C0.110833 7.75846 0 7.66513 0 7.56013C0 7.45513 0.116667 7.36179 0.35 7.28013L17.045 1.71513C17.2783 1.63346 17.4533 1.64804 17.57 1.75888C17.6867 1.86971 17.71 2.04179 17.64 2.27513L12.88 18.9701C12.81 19.2035 12.7167 19.323 12.6 19.3289C12.4833 19.3347 12.3783 19.2268 12.285 19.0051L9.135 11.9351L14.385 4.93513L7.385 10.1851L0.3325 7.84013Z" fill="black"/>
</g>
<defs>
<clipPath id="clip0_8342_24744">
<rect width="21.48" height="21" fill="white" transform="matrix(1 0 0 -1 0 21)"/>
</clipPath>
</defs>
</svg>
