<svg width="14" height="19" viewBox="0 0 14 19" fill="none" xmlns="http://www.w3.org/2000/svg">
<path d="M14 18.375H12.25V16.625C12.25 16.1467 12.1333 15.7062 11.9 15.3038C11.6667 14.9012 11.3488 14.5833 10.9462 14.35C10.5437 14.1167 10.1033 14 9.625 14H4.375C3.89667 14 3.45625 14.1167 3.05375 14.35C2.65125 14.5833 2.33333 14.9012 2.1 15.3038C1.86667 15.7062 1.75 16.1467 1.75 16.625V18.375H0V16.625C0 15.8317 0.195417 15.0996 0.58625 14.4288C0.977083 13.7579 1.50792 13.2271 2.17875 12.8362C2.84958 12.4454 3.58167 12.25 4.375 12.25H9.625C10.4183 12.25 11.1504 12.4454 11.8212 12.8362C12.4921 13.2271 13.0229 13.7579 13.4137 14.4288C13.8046 15.0996 14 15.8317 14 16.625V18.375ZM7 10.5C6.055 10.5 5.17417 10.2608 4.3575 9.7825C3.56417 9.31583 2.93417 8.68583 2.4675 7.8925C1.98917 7.07583 1.75 6.195 1.75 5.25C1.75 4.305 1.98917 3.42417 2.4675 2.6075C2.93417 1.81417 3.56417 1.18417 4.3575 0.717501C5.17417 0.239166 6.055 0 7 0C7.945 0 8.82583 0.239166 9.6425 0.717501C10.4358 1.18417 11.0658 1.81417 11.5325 2.6075C12.0108 3.42417 12.25 4.305 12.25 5.25C12.25 6.195 12.0108 7.07583 11.5325 7.8925C11.0658 8.68583 10.4358 9.31583 9.6425 9.7825C8.82583 10.2608 7.945 10.5 7 10.5ZM7 8.75C7.63 8.75 8.21333 8.5925 8.75 8.2775C9.28667 7.9625 9.7125 7.53667 10.0275 7C10.3425 6.46333 10.5 5.88 10.5 5.25C10.5 4.62 10.3425 4.03667 10.0275 3.5C9.7125 2.96333 9.28667 2.5375 8.75 2.2225C8.21333 1.9075 7.63 1.75 7 1.75C6.37 1.75 5.78667 1.9075 5.25 2.2225C4.71333 2.5375 4.2875 2.96333 3.9725 3.5C3.6575 4.03667 3.5 4.62 3.5 5.25C3.5 5.88 3.6575 6.46333 3.9725 7C4.2875 7.53667 4.71333 7.9625 5.25 8.2775C5.78667 8.5925 6.37 8.75 7 8.75Z" fill="black"/>
</svg>
