<svg width="18" height="17" viewBox="0 0 18 17" fill="none" xmlns="http://www.w3.org/2000/svg">
<path d="M12.6875 0C13.5625 0 14.3675 0.2275 15.1025 0.6825C15.8375 1.1375 16.415 1.75583 16.835 2.5375C17.2783 3.35417 17.5 4.25833 17.5 5.25C17.5 6.60333 17.185 7.90417 16.555 9.1525C16.0183 10.2142 15.2542 11.235 14.2625 12.215C13.4925 12.985 12.5767 13.7375 11.515 14.4725C10.92 14.8808 10.1383 15.3708 9.17 15.9425L8.75 16.1875L8.33 15.9425C7.36167 15.3708 6.58 14.8808 5.985 14.4725C4.92333 13.7375 4.0075 12.985 3.2375 12.215C2.24583 11.235 1.48167 10.2142 0.945 9.1525C0.315 7.90417 0 6.60333 0 5.25C0 4.25833 0.221667 3.35417 0.665 2.5375C1.085 1.75583 1.6625 1.1375 2.3975 0.6825C3.1325 0.2275 3.9375 0 4.8125 0C5.57083 0.0116673 6.32333 0.198334 7.07 0.559999C7.7 0.863334 8.26 1.26 8.75 1.75C9.24 1.26 9.8 0.863334 10.43 0.559999C11.1767 0.186666 11.9292 0 12.6875 0ZM9.5725 13.6675C10.3658 13.1658 11.0717 12.67 11.69 12.18C13.02 11.1183 14.0233 10.0275 14.7 8.9075C15.4 7.74083 15.75 6.5275 15.75 5.2675C15.75 4.59083 15.6158 3.98417 15.3475 3.4475C15.0792 2.91083 14.7117 2.49667 14.245 2.205C13.7783 1.91333 13.2592 1.76167 12.6875 1.75C12.2208 1.75 11.7483 1.86375 11.27 2.09125C10.7917 2.31875 10.3658 2.61917 9.9925 2.9925L8.75 4.235L7.5075 2.9925C7.13417 2.61917 6.70833 2.31875 6.23 2.09125C5.75167 1.86375 5.27917 1.75 4.8125 1.75C4.2525 1.75 3.73917 1.90167 3.2725 2.205C2.80583 2.50833 2.43542 2.92542 2.16125 3.45625C1.88708 3.98708 1.75 4.59083 1.75 5.2675C1.75 6.5275 2.1 7.74083 2.8 8.9075C3.47667 10.0275 4.48 11.1183 5.81 12.18C6.42833 12.67 7.13417 13.1658 7.9275 13.6675C8.1725 13.8192 8.44667 13.9825 8.75 14.1575C9.05333 13.9825 9.3275 13.8192 9.5725 13.6675Z" fill="black"/>
</svg>
